M48
; DRILL file {KiCad (5.1.6)-1} date 06/16/20 21:04:37
; FORMAT={-:-/ absolute / metric / decimal}
; #@! TF.CreationDate,2020-06-16T21:04:37+02:00
; #@! TF.GenerationSoftware,Kicad,Pcbnew,(5.1.6)-1
FMAT,2
METRIC
T1C0.400
T2C0.600
T3C0.650
T4C0.700
T5C0.890
T6C0.900
T7C1.000
T8C1.600
T9C4.300
T10C3.250
%
G90
G05
T1
X95.0Y-45.0
X95.0Y-50.0
X95.0Y-55.0
X95.0Y-60.0
X95.0Y-65.0
X95.0Y-70.0
X95.0Y-75.0
X95.0Y-100.0
X95.0Y-105.0
X95.0Y-110.0
X95.0Y-115.0
X95.0Y-120.0
X95.0Y-125.0
X95.0Y-130.0
X95.0Y-135.0
X95.0Y-140.0
X96.471Y-98.646
X97.995Y-82.39
X100.0Y-45.0
X100.0Y-75.0
X100.0Y-110.0
X105.0Y-35.0
X105.0Y-40.0
X105.0Y-45.0
X105.0Y-75.0
X105.0Y-110.0
X105.0Y-140.0
X105.0Y-145.0
X109.679Y-96.233
X110.0Y-35.0
X110.0Y-75.0
X110.0Y-110.0
X110.0Y-145.0
X110.3Y-90.35
X110.55Y-92.2
X111.584Y-87.47
X111.584Y-91.153
X113.108Y-95.725
X113.616Y-96.487
X115.0Y-35.0
X115.0Y-75.0
X115.0Y-110.0
X115.0Y-145.0
X115.14Y-92.296
X115.521Y-96.868
X116.67Y-96.868
X117.305Y-100.376
X117.553Y-78.707
X117.553Y-79.85
X117.553Y-80.993
X117.553Y-82.009
X118.25Y-97.455
X118.321Y-102.916
X120.0Y-35.0
X120.0Y-50.0
X120.0Y-55.0
X120.0Y-60.0
X120.0Y-65.0
X120.0Y-70.0
X120.0Y-75.0
X120.0Y-110.0
X120.0Y-145.0
X120.855Y-93.566
X121.1Y-85.9
X121.2Y-90.1
X121.49Y-97.63
X122.385Y-91.8
X123.122Y-97.443
X123.218Y-94.512
X123.4Y-92.8
X124.143Y-93.812
X125.0Y-35.0
X125.0Y-50.0
X125.0Y-110.0
X125.0Y-145.0
X125.05Y-99.8
X125.052Y-85.009
X125.55Y-98.05
X126.15Y-99.55
X126.2Y-89.5
X126.4Y-102.4
X126.449Y-101.392
X126.7Y-98.1
X127.5Y-75.5
X127.5Y-95.9
X127.713Y-83.279
X127.713Y-88.105
X128.354Y-95.55
X128.6Y-75.5
X128.602Y-88.105
X128.729Y-83.279
X129.37Y-96.566
X129.491Y-87.35
X129.7Y-75.5
X129.745Y-82.263
X129.745Y-83.279
X130.0Y-35.0
X130.0Y-50.0
X130.0Y-64.4
X130.0Y-110.0
X130.0Y-115.0
X130.0Y-120.0
X130.0Y-125.0
X130.0Y-145.0
X130.38Y-79.215
X130.38Y-87.724
X130.761Y-82.263
X130.761Y-83.279
X130.9Y-96.5
X131.9Y-62.3
X131.9Y-66.6
X131.9Y-67.8
X131.9Y-68.9
X132.8Y-109.7
X133.5Y-95.3
X133.8Y-104.4
X134.2Y-107.2
X134.2Y-108.4
X134.2Y-109.7
X134.65Y-90.45
X134.65Y-92.45
X134.9Y-104.7
X135.0Y-35.0
X135.0Y-50.0
X135.0Y-125.0
X135.0Y-145.0
X135.2Y-105.7
X135.6Y-70.4
X135.6Y-71.4
X135.6Y-72.4
X136.81Y-95.116
X137.5Y-98.9
X137.834Y-95.081
X138.2Y-65.4
X138.4Y-88.8
X138.4Y-90.0
X138.5Y-92.0
X138.5Y-93.0
X139.1Y-65.8
X139.2Y-113.0
X139.2Y-114.0
X139.2Y-115.0
X139.3Y-66.7
X139.6Y-99.8
X140.0Y-35.0
X140.0Y-40.0
X140.0Y-45.0
X140.0Y-50.0
X140.0Y-125.0
X140.0Y-130.0
X140.0Y-135.0
X140.0Y-140.0
X140.0Y-145.0
X140.038Y-79.675
X140.6Y-65.9
X140.6Y-66.9
X140.6Y-67.8
X140.6Y-104.4
X140.6Y-107.0
X141.512Y-80.756
X141.65Y-93.15
X141.689Y-91.162
X141.8Y-112.8
X142.0Y-105.7
X142.55Y-65.45
X142.8Y-112.8
X142.88Y-58.345
X143.467Y-125.014
X143.975Y-112.187
X144.0Y-118.4
X144.404Y-66.473
X144.61Y-125.014
X145.0Y-35.0
X145.0Y-40.0
X145.0Y-45.0
X145.0Y-50.0
X145.0Y-88.6
X145.0Y-89.8
X145.0Y-130.0
X145.0Y-135.0
X145.0Y-140.0
X145.0Y-145.0
X145.2Y-82.3
X145.2Y-91.8
X145.2Y-95.2
X145.2Y-96.4
X145.226Y-92.8
X145.42Y-57.329
X145.75Y-65.15
X145.753Y-125.014
X146.0Y-88.6
X146.0Y-89.8
X146.0Y-105.0
X146.0Y-106.0
X146.2Y-95.2
X146.2Y-96.4
X146.2Y-100.0
X146.3Y-92.8
X146.769Y-125.014
X147.0Y-104.8
X147.0Y-105.8
X147.023Y-111.806
X147.023Y-112.822
X147.1Y-100.0
X147.15Y-36.495
X147.15Y-65.578
X147.15Y-144.572
X147.5Y-54.529
X147.6Y-82.2
X147.6Y-83.2
X147.976Y-65.542
X148.039Y-111.806
X148.039Y-112.822
X148.039Y-113.838
X148.039Y-114.854
X148.166Y-58.466
X148.166Y-61.514
X148.353Y-63.15
X148.6Y-54.55
X148.928Y-55.545
X149.23Y-69.394
X149.309Y-53.64
X149.35Y-70.9
X149.4Y-67.7
X149.563Y-49.703
X149.6Y-120.6
X149.8Y-117.35
X150.071Y-53.132
X150.246Y-68.378
X150.4Y-73.5
X150.4Y-100.0
X151.2Y-65.9
X151.2Y-82.2
X151.2Y-83.1
X151.284Y-63.242
X151.3Y-100.0
X151.679Y-78.514
X151.984Y-64.167
X152.0Y-60.95
X152.1Y-113.076
X152.23Y-130.983
X152.4Y-82.0
X152.484Y-112.187
X152.602Y-78.899
X152.8Y-106.2
X152.865Y-113.965
X152.865Y-114.854
X153.13Y-83.01
X153.33Y-84.07
X153.4Y-74.95
X153.5Y-55.164
X153.5Y-76.2
X153.5Y-99.25
X153.5Y-100.25
X153.627Y-50.5
X153.8Y-63.3
X153.9Y-106.2
X154.0Y-61.4
X154.3Y-98.5
X154.3Y-116.4
X154.5Y-76.2
X154.6Y-75.0
X154.643Y-51.608
X154.75Y-83.89
X154.864Y-121.364
X154.9Y-65.8
X155.0Y-35.0
X155.0Y-62.3
X155.0Y-106.2
X155.0Y-145.0
X155.1Y-132.25
X155.25Y-99.25
X155.25Y-100.25
X155.4Y-50.35
X155.656Y-88.565
X155.758Y-61.161
X155.913Y-76.246
X155.913Y-130.983
X156.356Y-89.581
X156.5Y-100.08
X156.7Y-65.8
X156.802Y-103.297
X156.9Y-120.8
X156.929Y-132.1
X157.056Y-90.724
X157.056Y-127.427
X157.4Y-77.2
X157.4Y-78.4
X157.691Y-67.737
X157.691Y-68.626
X157.8Y-119.8
X157.872Y-104.225
X157.945Y-91.359
X158.072Y-70.404
X158.326Y-51.608
X158.326Y-103.297
X158.326Y-121.712
X158.572Y-118.424
X158.6Y-69.55
X158.768Y-86.603
X159.272Y-119.349
X159.35Y-108.25
X159.9Y-61.1
X160.0Y-99.25
X160.0Y-100.25
X160.15Y-82.25
X160.2Y-83.6
X160.31Y-114.213
X160.485Y-129.459
X160.7Y-65.2
X160.7Y-109.05
X160.8Y-115.0
X160.813Y-84.628
X160.993Y-87.803
X160.993Y-132.888
X161.2Y-91.6
X161.2Y-97.4
X161.2Y-111.6
X161.247Y-113.197
X161.247Y-128.951
X161.538Y-85.898
X161.6Y-73.15
X161.6Y-74.15
X161.628Y-127.046
X162.1Y-93.9
X162.1Y-94.9
X162.173Y-92.8
X162.2Y-91.6
X162.2Y-97.4
X162.2Y-119.2
X162.263Y-124.252
X162.35Y-128.05
X162.39Y-121.077
X162.4Y-83.3
X162.4Y-84.3
X162.517Y-67.737
X162.517Y-68.753
X162.517Y-69.769
X162.517Y-70.785
X162.58Y-117.049
X162.898Y-99.233
X163.0Y-100.25
X163.406Y-38.019
X163.406Y-117.013
X163.406Y-146.096
X163.533Y-69.769
X163.533Y-70.785
X163.75Y-101.0
X163.787Y-57.577
X164.317Y-117.821
X164.803Y-57.577
X165.0Y-35.0
X165.0Y-40.0
X165.0Y-50.0
X165.0Y-81.3
X165.0Y-104.0
X165.0Y-110.0
X165.0Y-130.0
X165.136Y-125.262
X165.206Y-117.821
X165.438Y-100.63
X165.946Y-57.577
X166.1Y-81.2
X166.152Y-116.118
X166.2Y-85.8
X166.4Y-84.8
X166.45Y-100.227
X166.463Y-70.286
X167.089Y-57.577
X167.2Y-83.0
X167.4Y-85.6
X167.4Y-102.6
X167.5Y-77.4
X167.6Y-80.1
X167.662Y-81.199
X167.676Y-124.246
X168.2Y-117.2
X168.4Y-85.8
X168.6Y-80.2
X168.613Y-73.833
X168.8Y-67.8
X168.918Y-75.408
X169.4Y-99.3
X169.6Y-73.0
X169.8Y-89.4
X169.9Y-66.55
X170.0Y-35.0
X170.0Y-40.0
X170.0Y-130.0
X170.645Y-86.533
X170.7Y-64.7
X170.85Y-61.65
X170.85Y-62.6
X170.85Y-63.6
X171.4Y-141.2
X171.693Y-132.15
X171.697Y-68.027
X171.788Y-92.756
X172.094Y-140.051
X172.1Y-96.1
X172.4Y-62.8
X172.7Y-95.2
X172.707Y-92.127
X173.0Y-81.4
X173.1Y-144.1
X173.594Y-137.051
X173.6Y-57.65
X173.693Y-67.483
X174.0Y-81.4
X174.2Y-97.4
X174.2Y-98.2
X174.344Y-138.551
X174.4Y-144.4
X174.6Y-57.65
X174.8Y-134.8
X174.8Y-136.3
X174.9Y-68.7
X174.9Y-70.75
X174.95Y-69.7
X175.0Y-100.0
X175.0Y-105.0
X175.0Y-110.0
X175.0Y-115.0
X175.0Y-120.0
X175.0Y-142.2
X175.05Y-82.5
X176.042Y-93.835
X176.158Y-92.029
X176.2Y-79.8
X176.893Y-99.507
X176.9Y-95.3
X177.0Y-109.0
X177.2Y-40.0
X177.2Y-41.0
X177.297Y-79.905
X177.4Y-147.2
X177.6Y-98.8
X177.8Y-87.7
X177.82Y-110.218
X178.0Y-139.3
X178.138Y-95.423
X178.2Y-40.0
X178.2Y-41.0
X178.344Y-146.301
X178.4Y-80.0
X179.0Y-133.4
X179.0Y-141.2
X179.344Y-132.051
X179.4Y-73.0
X179.594Y-140.051
X179.969Y-136.301
X180.0Y-120.0
X180.0Y-144.6
X180.4Y-42.6
X180.4Y-44.8
X180.6Y-68.2
X180.678Y-78.213
X180.678Y-85.127
X180.958Y-79.661
X181.844Y-132.051
X181.948Y-79.802
X181.948Y-87.041
X182.094Y-139.351
X182.945Y-79.873
X182.964Y-110.218
X182.964Y-112.758
X183.345Y-75.865
X183.4Y-144.1
X183.6Y-42.8
X183.6Y-43.8
X183.6Y-44.8
X183.844Y-136.551
X184.253Y-72.074
X184.361Y-75.865
X184.398Y-94.5
X184.499Y-95.5
X184.6Y-137.6
X184.8Y-134.6
X184.8Y-144.2
X184.933Y-99.868
X185.0Y-35.0
X185.0Y-40.0
X185.0Y-120.0
X185.377Y-75.865
X185.402Y-58.179
X185.498Y-95.513
X185.5Y-85.1
X185.8Y-66.4
X185.948Y-89.771
X186.0Y-99.6
X186.012Y-84.027
X186.3Y-136.3
X186.393Y-75.865
X186.498Y-95.498
X186.695Y-145.652
X186.774Y-87.803
X186.844Y-138.051
X186.926Y-66.307
X187.3Y-90.4
X187.536Y-83.104
X187.536Y-86.787
X187.6Y-98.7
X187.663Y-85.771
X187.8Y-67.2
X187.9Y-95.6
X187.917Y-92.502
X187.942Y-57.163
X188.059Y-89.65
X188.171Y-91.359
X188.2Y-84.6
X188.4Y-64.9
X188.8Y-78.15
X188.8Y-80.0
X189.672Y-36.329
X189.672Y-65.412
X189.822Y-107.678
X190.0Y-120.0
X190.0Y-125.0
X190.0Y-145.0
X190.2Y-97.4
X190.498Y-65.376
X190.65Y-54.6
X190.688Y-61.348
X190.8Y-81.9
X190.815Y-58.173
X190.844Y-138.801
X190.875Y-62.98
X191.0Y-97.4
X191.0Y-107.8
X191.346Y-71.547
X191.4Y-87.3
X191.45Y-55.379
X191.6Y-70.4
X191.6Y-72.6
X191.831Y-53.474
X191.831Y-69.228
X191.9Y-91.3
X191.9Y-94.35
X192.085Y-49.537
X192.362Y-99.487
X192.362Y-101.138
X192.362Y-102.789
X192.362Y-104.44
X192.489Y-105.964
X192.591Y-74.397
X192.593Y-52.966
X192.621Y-73.219
X192.768Y-68.212
X192.8Y-83.28
X192.8Y-89.1
X192.8Y-75.625
X192.95Y-94.4
X193.0Y-91.3
X193.378Y-78.532
X193.5Y-88.5
X193.806Y-63.076
X194.3Y-65.7
X194.506Y-64.001
X194.521Y-99.487
X194.521Y-105.964
X194.752Y-60.713
X195.0Y-95.0
X195.0Y-120.0
X195.0Y-125.0
X195.0Y-130.0
X195.0Y-145.0
X195.3Y-62.6
X195.8Y-76.1
X196.022Y-54.998
X196.149Y-50.3
X196.2Y-61.5
X196.426Y-99.487
X196.553Y-102.789
X196.553Y-105.964
X196.8Y-89.2
X197.165Y-51.442
X197.4Y-61.7
X197.696Y-74.341
X198.0Y-50.172
X198.237Y-61.037
X198.696Y-74.341
X198.7Y-105.0
X198.8Y-65.8
X199.7Y-107.6
X200.0Y-35.0
X200.0Y-75.0
X200.0Y-80.0
X200.0Y-85.5
X200.0Y-95.0
X200.0Y-120.0
X200.0Y-125.0
X200.0Y-130.0
X200.0Y-135.0
X200.0Y-140.0
X200.0Y-145.0
X200.213Y-67.571
X200.213Y-68.46
X200.594Y-70.238
X200.8Y-107.6
X200.848Y-51.442
X201.65Y-70.25
X201.8Y-107.6
X202.4Y-61.0
X202.485Y-71.779
X202.7Y-107.6
X202.8Y-109.7
X202.9Y-98.2
X202.903Y-73.325
X203.885Y-72.479
X204.3Y-90.216
X204.3Y-91.74
X204.3Y-93.264
X204.3Y-94.788
X204.3Y-98.2
X204.3Y-99.5
X204.6Y-107.5
X205.0Y-75.0
X205.0Y-80.0
X205.0Y-120.0
X205.0Y-125.0
X205.0Y-130.0
X205.0Y-135.0
X205.039Y-67.571
X205.039Y-68.587
X205.039Y-69.603
X205.039Y-70.619
X205.928Y-37.853
X206.055Y-69.603
X206.055Y-70.619
X206.309Y-57.411
X207.325Y-57.411
X207.75Y-99.6
X207.75Y-100.5
X207.883Y-98.583
X208.468Y-57.411
X209.103Y-70.238
X209.611Y-57.411
X210.0Y-40.0
X210.0Y-45.0
X210.0Y-50.0
X210.0Y-55.0
X210.0Y-75.0
X210.0Y-80.0
X210.0Y-120.0
X210.0Y-125.0
X210.0Y-130.0
X210.0Y-135.0
X211.2Y-71.0
X211.85Y-110.4
X212.2Y-70.4
X212.2Y-71.6
T2
X95.775Y-39.0
X96.72Y-36.72
X96.72Y-41.28
X99.0Y-35.775
X99.0Y-42.225
X101.28Y-36.72
X101.28Y-41.28
X102.225Y-39.0
X167.575Y-47.8
X168.52Y-45.52
X168.52Y-50.08
X170.8Y-44.575
X170.8Y-51.025
X173.08Y-45.52
X173.08Y-50.08
X174.025Y-47.8
X95.775Y-144.0
X96.72Y-141.72
X96.72Y-146.28
X99.0Y-140.775
X99.0Y-147.225
X101.28Y-141.72
X101.28Y-146.28
X102.225Y-144.0
X203.775Y-144.0
X204.72Y-141.72
X204.72Y-146.28
X207.0Y-140.775
X207.0Y-147.225
X209.28Y-141.72
X209.28Y-146.28
X210.225Y-144.0
T5
X148.953Y-146.418
X151.493Y-147.938
X159.063Y-146.418
X161.603Y-147.938
X191.475Y-34.487
X194.015Y-36.007
X201.585Y-34.487
X204.125Y-36.007
X148.953Y-34.653
X151.493Y-36.173
X159.063Y-34.653
X161.603Y-36.173
X94.629Y-86.733
X94.629Y-96.843
X96.149Y-84.193
X96.149Y-94.303
T6
X105.869Y-87.343
X105.869Y-89.883
X105.869Y-92.423
X105.869Y-94.963
X108.409Y-86.073
X108.409Y-88.613
X108.409Y-91.153
X108.409Y-93.693
X150.833Y-134.158
X152.103Y-136.698
X153.373Y-134.158
X154.643Y-136.698
X155.913Y-134.158
X157.183Y-136.698
X158.453Y-134.158
X159.723Y-136.698
X193.355Y-45.727
X194.625Y-48.267
X195.895Y-45.727
X197.165Y-48.267
X198.435Y-45.727
X199.705Y-48.267
X200.975Y-45.727
X202.245Y-48.267
X150.833Y-45.893
X152.103Y-48.433
X153.373Y-45.893
X154.643Y-48.433
X155.913Y-45.893
X157.183Y-48.433
X158.453Y-45.893
X159.723Y-48.433
T7
X193.505Y-109.647
X196.045Y-109.647
X198.585Y-109.647
X123.02Y-58.085
X123.02Y-60.625
X123.02Y-63.165
X123.02Y-65.705
X123.02Y-68.245
X123.02Y-70.785
X123.02Y-73.325
X125.56Y-58.085
X125.56Y-60.625
X125.56Y-63.165
X125.56Y-65.705
X125.56Y-68.245
X125.56Y-70.785
X125.56Y-73.325
X184.933Y-102.599
X184.933Y-105.138
X184.933Y-107.678
X184.933Y-110.218
X184.933Y-112.758
X187.472Y-102.599
X187.472Y-105.138
X187.472Y-107.678
X187.472Y-110.218
X187.472Y-112.758
X210.0Y-100.25
X210.0Y-102.79
X210.0Y-105.33
X210.0Y-107.87
X210.0Y-110.41
X210.0Y-112.95
X210.0Y-115.49
X210.0Y-118.03
X174.455Y-118.283
X176.995Y-118.283
X179.535Y-118.283
X182.075Y-118.283
X184.615Y-118.283
X187.155Y-118.283
X189.695Y-118.283
X192.235Y-118.283
X181.8Y-41.2
X181.8Y-43.74
X181.8Y-46.28
X193.505Y-113.33
X196.045Y-113.33
X198.585Y-113.33
T8
X147.503Y-139.988
X163.053Y-139.988
X190.025Y-42.437
X205.575Y-42.437
X147.503Y-42.603
X163.053Y-42.603
X102.579Y-82.743
X102.579Y-98.293
T9
X99.0Y-39.0
X170.8Y-47.8
X99.0Y-144.0
X207.0Y-144.0
T10
X99.529Y-84.803
X99.529Y-96.233
X149.563Y-143.038
X160.993Y-143.038
X192.085Y-39.387
X203.515Y-39.387
X149.563Y-39.553
X160.993Y-39.553
T3
G00X176.605Y-37.885
M15
G01X176.605Y-38.285
M16
G05
G00X181.445Y-37.885
M15
G01X181.445Y-38.285
M16
G05
T4
G00X176.295Y-34.835
M15
G01X176.295Y-35.335
M16
G05
G00X181.755Y-34.835
M15
G01X181.755Y-35.335
M16
G05
T0
M30
