G04 #@! TF.GenerationSoftware,KiCad,Pcbnew,(5.1.6)-1*
G04 #@! TF.CreationDate,2020-06-16T21:04:05+02:00*
G04 #@! TF.ProjectId,ethernet-sniffer,65746865-726e-4657-942d-736e69666665,rev?*
G04 #@! TF.SameCoordinates,Original*
G04 #@! TF.FileFunction,Legend,Bot*
G04 #@! TF.FilePolarity,Positive*
%FSLAX46Y46*%
G04 Gerber Fmt 4.6, Leading zero omitted, Abs format (unit mm)*
G04 Created by KiCad (PCBNEW (5.1.6)-1) date 2020-06-16 21:04:05*
%MOMM*%
%LPD*%
G01*
G04 APERTURE LIST*
%ADD10C,0.150000*%
%ADD11C,0.010000*%
%ADD12C,0.120000*%
G04 APERTURE END LIST*
D10*
X143178571Y-133214285D02*
X143178571Y-132880952D01*
X143702380Y-132880952D02*
X142702380Y-132880952D01*
X142702380Y-133357142D01*
X143702380Y-133738095D02*
X142702380Y-133738095D01*
X142702380Y-134119047D01*
X142750000Y-134214285D01*
X142797619Y-134261904D01*
X142892857Y-134309523D01*
X143035714Y-134309523D01*
X143130952Y-134261904D01*
X143178571Y-134214285D01*
X143226190Y-134119047D01*
X143226190Y-133738095D01*
X142750000Y-135261904D02*
X142702380Y-135166666D01*
X142702380Y-135023809D01*
X142750000Y-134880952D01*
X142845238Y-134785714D01*
X142940476Y-134738095D01*
X143130952Y-134690476D01*
X143273809Y-134690476D01*
X143464285Y-134738095D01*
X143559523Y-134785714D01*
X143654761Y-134880952D01*
X143702380Y-135023809D01*
X143702380Y-135119047D01*
X143654761Y-135261904D01*
X143607142Y-135309523D01*
X143273809Y-135309523D01*
X143273809Y-135119047D01*
X143416666Y-135690476D02*
X143416666Y-136166666D01*
X143702380Y-135595238D02*
X142702380Y-135928571D01*
X143702380Y-136261904D01*
X143702380Y-137880952D02*
X143702380Y-137309523D01*
X143702380Y-137595238D02*
X142702380Y-137595238D01*
X142845238Y-137500000D01*
X142940476Y-137404761D01*
X142988095Y-137309523D01*
X142702380Y-138500000D02*
X142702380Y-138595238D01*
X142750000Y-138690476D01*
X142797619Y-138738095D01*
X142892857Y-138785714D01*
X143083333Y-138833333D01*
X143321428Y-138833333D01*
X143511904Y-138785714D01*
X143607142Y-138738095D01*
X143654761Y-138690476D01*
X143702380Y-138595238D01*
X143702380Y-138500000D01*
X143654761Y-138404761D01*
X143607142Y-138357142D01*
X143511904Y-138309523D01*
X143321428Y-138261904D01*
X143083333Y-138261904D01*
X142892857Y-138309523D01*
X142797619Y-138357142D01*
X142750000Y-138404761D01*
X142702380Y-138500000D01*
X142702380Y-139452380D02*
X142702380Y-139547619D01*
X142750000Y-139642857D01*
X142797619Y-139690476D01*
X142892857Y-139738095D01*
X143083333Y-139785714D01*
X143321428Y-139785714D01*
X143511904Y-139738095D01*
X143607142Y-139690476D01*
X143654761Y-139642857D01*
X143702380Y-139547619D01*
X143702380Y-139452380D01*
X143654761Y-139357142D01*
X143607142Y-139309523D01*
X143511904Y-139261904D01*
X143321428Y-139214285D01*
X143083333Y-139214285D01*
X142892857Y-139261904D01*
X142797619Y-139309523D01*
X142750000Y-139357142D01*
X142702380Y-139452380D01*
X143178571Y-140547619D02*
X143226190Y-140690476D01*
X143273809Y-140738095D01*
X143369047Y-140785714D01*
X143511904Y-140785714D01*
X143607142Y-140738095D01*
X143654761Y-140690476D01*
X143702380Y-140595238D01*
X143702380Y-140214285D01*
X142702380Y-140214285D01*
X142702380Y-140547619D01*
X142750000Y-140642857D01*
X142797619Y-140690476D01*
X142892857Y-140738095D01*
X142988095Y-140738095D01*
X143083333Y-140690476D01*
X143130952Y-140642857D01*
X143178571Y-140547619D01*
X143178571Y-140214285D01*
X143416666Y-141166666D02*
X143416666Y-141642857D01*
X143702380Y-141071428D02*
X142702380Y-141404761D01*
X143702380Y-141738095D01*
X143654761Y-142023809D02*
X143702380Y-142166666D01*
X143702380Y-142404761D01*
X143654761Y-142500000D01*
X143607142Y-142547619D01*
X143511904Y-142595238D01*
X143416666Y-142595238D01*
X143321428Y-142547619D01*
X143273809Y-142500000D01*
X143226190Y-142404761D01*
X143178571Y-142214285D01*
X143130952Y-142119047D01*
X143083333Y-142071428D01*
X142988095Y-142023809D01*
X142892857Y-142023809D01*
X142797619Y-142071428D01*
X142750000Y-142119047D01*
X142702380Y-142214285D01*
X142702380Y-142452380D01*
X142750000Y-142595238D01*
X143178571Y-143023809D02*
X143178571Y-143357142D01*
X143702380Y-143500000D02*
X143702380Y-143023809D01*
X142702380Y-143023809D01*
X142702380Y-143500000D01*
X143321428Y-143928571D02*
X143321428Y-144690476D01*
X142702380Y-145023809D02*
X142702380Y-145595238D01*
X143702380Y-145309523D02*
X142702380Y-145309523D01*
X142702380Y-145833333D02*
X143702380Y-146500000D01*
X142702380Y-146500000D02*
X143702380Y-145833333D01*
X142702380Y-147547619D02*
X142702380Y-148166666D01*
X143083333Y-147833333D01*
X143083333Y-147976190D01*
X143130952Y-148071428D01*
X143178571Y-148119047D01*
X143273809Y-148166666D01*
X143511904Y-148166666D01*
X143607142Y-148119047D01*
X143654761Y-148071428D01*
X143702380Y-147976190D01*
X143702380Y-147690476D01*
X143654761Y-147595238D01*
X143607142Y-147547619D01*
X109035714Y-78428571D02*
X109369047Y-78428571D01*
X109369047Y-78952380D02*
X109369047Y-77952380D01*
X108892857Y-77952380D01*
X108511904Y-78952380D02*
X108511904Y-77952380D01*
X108130952Y-77952380D01*
X108035714Y-78000000D01*
X107988095Y-78047619D01*
X107940476Y-78142857D01*
X107940476Y-78285714D01*
X107988095Y-78380952D01*
X108035714Y-78428571D01*
X108130952Y-78476190D01*
X108511904Y-78476190D01*
X106988095Y-78000000D02*
X107083333Y-77952380D01*
X107226190Y-77952380D01*
X107369047Y-78000000D01*
X107464285Y-78095238D01*
X107511904Y-78190476D01*
X107559523Y-78380952D01*
X107559523Y-78523809D01*
X107511904Y-78714285D01*
X107464285Y-78809523D01*
X107369047Y-78904761D01*
X107226190Y-78952380D01*
X107130952Y-78952380D01*
X106988095Y-78904761D01*
X106940476Y-78857142D01*
X106940476Y-78523809D01*
X107130952Y-78523809D01*
X106559523Y-78666666D02*
X106083333Y-78666666D01*
X106654761Y-78952380D02*
X106321428Y-77952380D01*
X105988095Y-78952380D01*
X104369047Y-78952380D02*
X104940476Y-78952380D01*
X104654761Y-78952380D02*
X104654761Y-77952380D01*
X104750000Y-78095238D01*
X104845238Y-78190476D01*
X104940476Y-78238095D01*
X103750000Y-77952380D02*
X103654761Y-77952380D01*
X103559523Y-78000000D01*
X103511904Y-78047619D01*
X103464285Y-78142857D01*
X103416666Y-78333333D01*
X103416666Y-78571428D01*
X103464285Y-78761904D01*
X103511904Y-78857142D01*
X103559523Y-78904761D01*
X103654761Y-78952380D01*
X103750000Y-78952380D01*
X103845238Y-78904761D01*
X103892857Y-78857142D01*
X103940476Y-78761904D01*
X103988095Y-78571428D01*
X103988095Y-78333333D01*
X103940476Y-78142857D01*
X103892857Y-78047619D01*
X103845238Y-78000000D01*
X103750000Y-77952380D01*
X102797619Y-77952380D02*
X102702380Y-77952380D01*
X102607142Y-78000000D01*
X102559523Y-78047619D01*
X102511904Y-78142857D01*
X102464285Y-78333333D01*
X102464285Y-78571428D01*
X102511904Y-78761904D01*
X102559523Y-78857142D01*
X102607142Y-78904761D01*
X102702380Y-78952380D01*
X102797619Y-78952380D01*
X102892857Y-78904761D01*
X102940476Y-78857142D01*
X102988095Y-78761904D01*
X103035714Y-78571428D01*
X103035714Y-78333333D01*
X102988095Y-78142857D01*
X102940476Y-78047619D01*
X102892857Y-78000000D01*
X102797619Y-77952380D01*
X101702380Y-78428571D02*
X101559523Y-78476190D01*
X101511904Y-78523809D01*
X101464285Y-78619047D01*
X101464285Y-78761904D01*
X101511904Y-78857142D01*
X101559523Y-78904761D01*
X101654761Y-78952380D01*
X102035714Y-78952380D01*
X102035714Y-77952380D01*
X101702380Y-77952380D01*
X101607142Y-78000000D01*
X101559523Y-78047619D01*
X101511904Y-78142857D01*
X101511904Y-78238095D01*
X101559523Y-78333333D01*
X101607142Y-78380952D01*
X101702380Y-78428571D01*
X102035714Y-78428571D01*
X101083333Y-78666666D02*
X100607142Y-78666666D01*
X101178571Y-78952380D02*
X100845238Y-77952380D01*
X100511904Y-78952380D01*
X100226190Y-78904761D02*
X100083333Y-78952380D01*
X99845238Y-78952380D01*
X99750000Y-78904761D01*
X99702380Y-78857142D01*
X99654761Y-78761904D01*
X99654761Y-78666666D01*
X99702380Y-78571428D01*
X99750000Y-78523809D01*
X99845238Y-78476190D01*
X100035714Y-78428571D01*
X100130952Y-78380952D01*
X100178571Y-78333333D01*
X100226190Y-78238095D01*
X100226190Y-78142857D01*
X100178571Y-78047619D01*
X100130952Y-78000000D01*
X100035714Y-77952380D01*
X99797619Y-77952380D01*
X99654761Y-78000000D01*
X99226190Y-78428571D02*
X98892857Y-78428571D01*
X98750000Y-78952380D02*
X99226190Y-78952380D01*
X99226190Y-77952380D01*
X98750000Y-77952380D01*
X98321428Y-78571428D02*
X97559523Y-78571428D01*
X97226190Y-77952380D02*
X96654761Y-77952380D01*
X96940476Y-78952380D02*
X96940476Y-77952380D01*
X96416666Y-77952380D02*
X95750000Y-78952380D01*
X95750000Y-77952380D02*
X96416666Y-78952380D01*
X94654761Y-78047619D02*
X94607142Y-78000000D01*
X94511904Y-77952380D01*
X94273809Y-77952380D01*
X94178571Y-78000000D01*
X94130952Y-78047619D01*
X94083333Y-78142857D01*
X94083333Y-78238095D01*
X94130952Y-78380952D01*
X94702380Y-78952380D01*
X94083333Y-78952380D01*
X143178571Y-34964285D02*
X143178571Y-34630952D01*
X143702380Y-34630952D02*
X142702380Y-34630952D01*
X142702380Y-35107142D01*
X143702380Y-35488095D02*
X142702380Y-35488095D01*
X142702380Y-35869047D01*
X142750000Y-35964285D01*
X142797619Y-36011904D01*
X142892857Y-36059523D01*
X143035714Y-36059523D01*
X143130952Y-36011904D01*
X143178571Y-35964285D01*
X143226190Y-35869047D01*
X143226190Y-35488095D01*
X142750000Y-37011904D02*
X142702380Y-36916666D01*
X142702380Y-36773809D01*
X142750000Y-36630952D01*
X142845238Y-36535714D01*
X142940476Y-36488095D01*
X143130952Y-36440476D01*
X143273809Y-36440476D01*
X143464285Y-36488095D01*
X143559523Y-36535714D01*
X143654761Y-36630952D01*
X143702380Y-36773809D01*
X143702380Y-36869047D01*
X143654761Y-37011904D01*
X143607142Y-37059523D01*
X143273809Y-37059523D01*
X143273809Y-36869047D01*
X143416666Y-37440476D02*
X143416666Y-37916666D01*
X143702380Y-37345238D02*
X142702380Y-37678571D01*
X143702380Y-38011904D01*
X143702380Y-39630952D02*
X143702380Y-39059523D01*
X143702380Y-39345238D02*
X142702380Y-39345238D01*
X142845238Y-39250000D01*
X142940476Y-39154761D01*
X142988095Y-39059523D01*
X142702380Y-40250000D02*
X142702380Y-40345238D01*
X142750000Y-40440476D01*
X142797619Y-40488095D01*
X142892857Y-40535714D01*
X143083333Y-40583333D01*
X143321428Y-40583333D01*
X143511904Y-40535714D01*
X143607142Y-40488095D01*
X143654761Y-40440476D01*
X143702380Y-40345238D01*
X143702380Y-40250000D01*
X143654761Y-40154761D01*
X143607142Y-40107142D01*
X143511904Y-40059523D01*
X143321428Y-40011904D01*
X143083333Y-40011904D01*
X142892857Y-40059523D01*
X142797619Y-40107142D01*
X142750000Y-40154761D01*
X142702380Y-40250000D01*
X142702380Y-41202380D02*
X142702380Y-41297619D01*
X142750000Y-41392857D01*
X142797619Y-41440476D01*
X142892857Y-41488095D01*
X143083333Y-41535714D01*
X143321428Y-41535714D01*
X143511904Y-41488095D01*
X143607142Y-41440476D01*
X143654761Y-41392857D01*
X143702380Y-41297619D01*
X143702380Y-41202380D01*
X143654761Y-41107142D01*
X143607142Y-41059523D01*
X143511904Y-41011904D01*
X143321428Y-40964285D01*
X143083333Y-40964285D01*
X142892857Y-41011904D01*
X142797619Y-41059523D01*
X142750000Y-41107142D01*
X142702380Y-41202380D01*
X143178571Y-42297619D02*
X143226190Y-42440476D01*
X143273809Y-42488095D01*
X143369047Y-42535714D01*
X143511904Y-42535714D01*
X143607142Y-42488095D01*
X143654761Y-42440476D01*
X143702380Y-42345238D01*
X143702380Y-41964285D01*
X142702380Y-41964285D01*
X142702380Y-42297619D01*
X142750000Y-42392857D01*
X142797619Y-42440476D01*
X142892857Y-42488095D01*
X142988095Y-42488095D01*
X143083333Y-42440476D01*
X143130952Y-42392857D01*
X143178571Y-42297619D01*
X143178571Y-41964285D01*
X143416666Y-42916666D02*
X143416666Y-43392857D01*
X143702380Y-42821428D02*
X142702380Y-43154761D01*
X143702380Y-43488095D01*
X143654761Y-43773809D02*
X143702380Y-43916666D01*
X143702380Y-44154761D01*
X143654761Y-44250000D01*
X143607142Y-44297619D01*
X143511904Y-44345238D01*
X143416666Y-44345238D01*
X143321428Y-44297619D01*
X143273809Y-44250000D01*
X143226190Y-44154761D01*
X143178571Y-43964285D01*
X143130952Y-43869047D01*
X143083333Y-43821428D01*
X142988095Y-43773809D01*
X142892857Y-43773809D01*
X142797619Y-43821428D01*
X142750000Y-43869047D01*
X142702380Y-43964285D01*
X142702380Y-44202380D01*
X142750000Y-44345238D01*
X143178571Y-44773809D02*
X143178571Y-45107142D01*
X143702380Y-45250000D02*
X143702380Y-44773809D01*
X142702380Y-44773809D01*
X142702380Y-45250000D01*
X143321428Y-45678571D02*
X143321428Y-46440476D01*
X142702380Y-46773809D02*
X142702380Y-47345238D01*
X143702380Y-47059523D02*
X142702380Y-47059523D01*
X142702380Y-47583333D02*
X143702380Y-48250000D01*
X142702380Y-48250000D02*
X143702380Y-47583333D01*
X143702380Y-49916666D02*
X143702380Y-49345238D01*
X143702380Y-49630952D02*
X142702380Y-49630952D01*
X142845238Y-49535714D01*
X142940476Y-49440476D01*
X142988095Y-49345238D01*
X187154761Y-34916666D02*
X187202380Y-35059523D01*
X187202380Y-35297619D01*
X187154761Y-35392857D01*
X187107142Y-35440476D01*
X187011904Y-35488095D01*
X186916666Y-35488095D01*
X186821428Y-35440476D01*
X186773809Y-35392857D01*
X186726190Y-35297619D01*
X186678571Y-35107142D01*
X186630952Y-35011904D01*
X186583333Y-34964285D01*
X186488095Y-34916666D01*
X186392857Y-34916666D01*
X186297619Y-34964285D01*
X186250000Y-35011904D01*
X186202380Y-35107142D01*
X186202380Y-35345238D01*
X186250000Y-35488095D01*
X186202380Y-35773809D02*
X186202380Y-36345238D01*
X187202380Y-36059523D02*
X186202380Y-36059523D01*
X187202380Y-36678571D02*
X186202380Y-36678571D01*
X186916666Y-37011904D01*
X186202380Y-37345238D01*
X187202380Y-37345238D01*
X186202380Y-37726190D02*
X186202380Y-38345238D01*
X186583333Y-38011904D01*
X186583333Y-38154761D01*
X186630952Y-38250000D01*
X186678571Y-38297619D01*
X186773809Y-38345238D01*
X187011904Y-38345238D01*
X187107142Y-38297619D01*
X187154761Y-38250000D01*
X187202380Y-38154761D01*
X187202380Y-37869047D01*
X187154761Y-37773809D01*
X187107142Y-37726190D01*
X186297619Y-38726190D02*
X186250000Y-38773809D01*
X186202380Y-38869047D01*
X186202380Y-39107142D01*
X186250000Y-39202380D01*
X186297619Y-39250000D01*
X186392857Y-39297619D01*
X186488095Y-39297619D01*
X186630952Y-39250000D01*
X187202380Y-38678571D01*
X187202380Y-39297619D01*
X187202380Y-41011904D02*
X187202380Y-40440476D01*
X187202380Y-40726190D02*
X186202380Y-40726190D01*
X186345238Y-40630952D01*
X186440476Y-40535714D01*
X186488095Y-40440476D01*
X186202380Y-41630952D02*
X186202380Y-41726190D01*
X186250000Y-41821428D01*
X186297619Y-41869047D01*
X186392857Y-41916666D01*
X186583333Y-41964285D01*
X186821428Y-41964285D01*
X187011904Y-41916666D01*
X187107142Y-41869047D01*
X187154761Y-41821428D01*
X187202380Y-41726190D01*
X187202380Y-41630952D01*
X187154761Y-41535714D01*
X187107142Y-41488095D01*
X187011904Y-41440476D01*
X186821428Y-41392857D01*
X186583333Y-41392857D01*
X186392857Y-41440476D01*
X186297619Y-41488095D01*
X186250000Y-41535714D01*
X186202380Y-41630952D01*
X186202380Y-42583333D02*
X186202380Y-42678571D01*
X186250000Y-42773809D01*
X186297619Y-42821428D01*
X186392857Y-42869047D01*
X186583333Y-42916666D01*
X186821428Y-42916666D01*
X187011904Y-42869047D01*
X187107142Y-42821428D01*
X187154761Y-42773809D01*
X187202380Y-42678571D01*
X187202380Y-42583333D01*
X187154761Y-42488095D01*
X187107142Y-42440476D01*
X187011904Y-42392857D01*
X186821428Y-42345238D01*
X186583333Y-42345238D01*
X186392857Y-42392857D01*
X186297619Y-42440476D01*
X186250000Y-42488095D01*
X186202380Y-42583333D01*
X186678571Y-43678571D02*
X186726190Y-43821428D01*
X186773809Y-43869047D01*
X186869047Y-43916666D01*
X187011904Y-43916666D01*
X187107142Y-43869047D01*
X187154761Y-43821428D01*
X187202380Y-43726190D01*
X187202380Y-43345238D01*
X186202380Y-43345238D01*
X186202380Y-43678571D01*
X186250000Y-43773809D01*
X186297619Y-43821428D01*
X186392857Y-43869047D01*
X186488095Y-43869047D01*
X186583333Y-43821428D01*
X186630952Y-43773809D01*
X186678571Y-43678571D01*
X186678571Y-43345238D01*
X186916666Y-44297619D02*
X186916666Y-44773809D01*
X187202380Y-44202380D02*
X186202380Y-44535714D01*
X187202380Y-44869047D01*
X187154761Y-45154761D02*
X187202380Y-45297619D01*
X187202380Y-45535714D01*
X187154761Y-45630952D01*
X187107142Y-45678571D01*
X187011904Y-45726190D01*
X186916666Y-45726190D01*
X186821428Y-45678571D01*
X186773809Y-45630952D01*
X186726190Y-45535714D01*
X186678571Y-45345238D01*
X186630952Y-45250000D01*
X186583333Y-45202380D01*
X186488095Y-45154761D01*
X186392857Y-45154761D01*
X186297619Y-45202380D01*
X186250000Y-45250000D01*
X186202380Y-45345238D01*
X186202380Y-45583333D01*
X186250000Y-45726190D01*
X186678571Y-46154761D02*
X186678571Y-46488095D01*
X187202380Y-46630952D02*
X187202380Y-46154761D01*
X186202380Y-46154761D01*
X186202380Y-46630952D01*
X186821428Y-47059523D02*
X186821428Y-47821428D01*
X186202380Y-48154761D02*
X186202380Y-48726190D01*
X187202380Y-48440476D02*
X186202380Y-48440476D01*
X186202380Y-48964285D02*
X187202380Y-49630952D01*
X186202380Y-49630952D02*
X187202380Y-48964285D01*
D11*
G36*
X102179749Y-115595242D02*
G01*
X102458625Y-115456194D01*
X102704770Y-115200173D01*
X102772557Y-115105340D01*
X102846406Y-114981249D01*
X102894320Y-114846469D01*
X102921732Y-114666589D01*
X102934072Y-114407195D01*
X102936782Y-114064748D01*
X102924545Y-113595461D01*
X102882010Y-113243104D01*
X102800442Y-112980230D01*
X102671104Y-112779393D01*
X102485260Y-112613147D01*
X102471605Y-112603304D01*
X102288451Y-112502616D01*
X102067899Y-112452799D01*
X101787405Y-112440517D01*
X101331418Y-112440517D01*
X101331226Y-111997857D01*
X101326983Y-111751325D01*
X101301126Y-111606716D01*
X101233554Y-111519986D01*
X101104170Y-111447089D01*
X101073098Y-111432196D01*
X100927692Y-111362403D01*
X100815110Y-111318321D01*
X100731396Y-111314514D01*
X100672595Y-111365547D01*
X100634751Y-111485983D01*
X100613907Y-111690386D01*
X100606109Y-111993320D01*
X100607400Y-112409349D01*
X100613823Y-112953037D01*
X100615829Y-113115661D01*
X100623056Y-113676245D01*
X100629530Y-114042947D01*
X101331034Y-114042947D01*
X101334977Y-113731685D01*
X101352500Y-113528033D01*
X101392145Y-113393712D01*
X101462453Y-113290441D01*
X101510188Y-113240073D01*
X101705338Y-113092697D01*
X101878118Y-113080701D01*
X102056400Y-113202405D01*
X102060919Y-113206896D01*
X102133456Y-113300955D01*
X102177582Y-113428789D01*
X102199840Y-113625655D01*
X102206771Y-113926811D01*
X102206896Y-113993530D01*
X102190146Y-114408542D01*
X102135620Y-114696237D01*
X102036911Y-114871865D01*
X101887610Y-114950677D01*
X101801321Y-114958621D01*
X101596526Y-114921350D01*
X101456052Y-114798629D01*
X101371494Y-114574096D01*
X101334449Y-114231386D01*
X101331034Y-114042947D01*
X100629530Y-114042947D01*
X100630716Y-114110119D01*
X100640617Y-114436545D01*
X100654564Y-114674781D01*
X100674365Y-114844090D01*
X100701826Y-114963731D01*
X100738753Y-115052966D01*
X100786954Y-115131056D01*
X100807622Y-115160440D01*
X101081781Y-115438008D01*
X101428413Y-115595382D01*
X101829384Y-115639256D01*
X102179749Y-115595242D01*
G37*
X102179749Y-115595242D02*
X102458625Y-115456194D01*
X102704770Y-115200173D01*
X102772557Y-115105340D01*
X102846406Y-114981249D01*
X102894320Y-114846469D01*
X102921732Y-114666589D01*
X102934072Y-114407195D01*
X102936782Y-114064748D01*
X102924545Y-113595461D01*
X102882010Y-113243104D01*
X102800442Y-112980230D01*
X102671104Y-112779393D01*
X102485260Y-112613147D01*
X102471605Y-112603304D01*
X102288451Y-112502616D01*
X102067899Y-112452799D01*
X101787405Y-112440517D01*
X101331418Y-112440517D01*
X101331226Y-111997857D01*
X101326983Y-111751325D01*
X101301126Y-111606716D01*
X101233554Y-111519986D01*
X101104170Y-111447089D01*
X101073098Y-111432196D01*
X100927692Y-111362403D01*
X100815110Y-111318321D01*
X100731396Y-111314514D01*
X100672595Y-111365547D01*
X100634751Y-111485983D01*
X100613907Y-111690386D01*
X100606109Y-111993320D01*
X100607400Y-112409349D01*
X100613823Y-112953037D01*
X100615829Y-113115661D01*
X100623056Y-113676245D01*
X100629530Y-114042947D01*
X101331034Y-114042947D01*
X101334977Y-113731685D01*
X101352500Y-113528033D01*
X101392145Y-113393712D01*
X101462453Y-113290441D01*
X101510188Y-113240073D01*
X101705338Y-113092697D01*
X101878118Y-113080701D01*
X102056400Y-113202405D01*
X102060919Y-113206896D01*
X102133456Y-113300955D01*
X102177582Y-113428789D01*
X102199840Y-113625655D01*
X102206771Y-113926811D01*
X102206896Y-113993530D01*
X102190146Y-114408542D01*
X102135620Y-114696237D01*
X102036911Y-114871865D01*
X101887610Y-114950677D01*
X101801321Y-114958621D01*
X101596526Y-114921350D01*
X101456052Y-114798629D01*
X101371494Y-114574096D01*
X101334449Y-114231386D01*
X101331034Y-114042947D01*
X100629530Y-114042947D01*
X100630716Y-114110119D01*
X100640617Y-114436545D01*
X100654564Y-114674781D01*
X100674365Y-114844090D01*
X100701826Y-114963731D01*
X100738753Y-115052966D01*
X100786954Y-115131056D01*
X100807622Y-115160440D01*
X101081781Y-115438008D01*
X101428413Y-115595382D01*
X101829384Y-115639256D01*
X102179749Y-115595242D01*
G36*
X107793573Y-115555702D02*
G01*
X108027807Y-115420215D01*
X108190661Y-115285733D01*
X108309766Y-115144836D01*
X108391819Y-114972532D01*
X108443515Y-114743829D01*
X108471550Y-114433734D01*
X108482621Y-114017256D01*
X108483908Y-113717872D01*
X108483908Y-112615851D01*
X108173707Y-112476792D01*
X107863506Y-112337732D01*
X107827011Y-113544763D01*
X107811932Y-113995551D01*
X107796113Y-114322748D01*
X107776514Y-114548722D01*
X107750092Y-114695839D01*
X107713808Y-114786468D01*
X107664619Y-114842976D01*
X107648837Y-114855207D01*
X107409719Y-114950734D01*
X107168018Y-114912933D01*
X107024138Y-114812644D01*
X106965611Y-114741576D01*
X106925098Y-114648319D01*
X106899351Y-114506942D01*
X106885122Y-114291514D01*
X106879160Y-113976104D01*
X106878161Y-113647395D01*
X106877965Y-113235001D01*
X106870903Y-112943097D01*
X106847268Y-112746224D01*
X106797350Y-112618923D01*
X106711439Y-112535734D01*
X106579829Y-112471199D01*
X106404042Y-112404139D01*
X106212051Y-112331144D01*
X106234905Y-113626635D01*
X106244108Y-114093653D01*
X106254876Y-114438775D01*
X106270307Y-114686079D01*
X106293504Y-114859637D01*
X106327568Y-114983526D01*
X106375598Y-115081818D01*
X106433504Y-115168540D01*
X106712879Y-115445575D01*
X107053781Y-115605778D01*
X107424562Y-115644153D01*
X107793573Y-115555702D01*
G37*
X107793573Y-115555702D02*
X108027807Y-115420215D01*
X108190661Y-115285733D01*
X108309766Y-115144836D01*
X108391819Y-114972532D01*
X108443515Y-114743829D01*
X108471550Y-114433734D01*
X108482621Y-114017256D01*
X108483908Y-113717872D01*
X108483908Y-112615851D01*
X108173707Y-112476792D01*
X107863506Y-112337732D01*
X107827011Y-113544763D01*
X107811932Y-113995551D01*
X107796113Y-114322748D01*
X107776514Y-114548722D01*
X107750092Y-114695839D01*
X107713808Y-114786468D01*
X107664619Y-114842976D01*
X107648837Y-114855207D01*
X107409719Y-114950734D01*
X107168018Y-114912933D01*
X107024138Y-114812644D01*
X106965611Y-114741576D01*
X106925098Y-114648319D01*
X106899351Y-114506942D01*
X106885122Y-114291514D01*
X106879160Y-113976104D01*
X106878161Y-113647395D01*
X106877965Y-113235001D01*
X106870903Y-112943097D01*
X106847268Y-112746224D01*
X106797350Y-112618923D01*
X106711439Y-112535734D01*
X106579829Y-112471199D01*
X106404042Y-112404139D01*
X106212051Y-112331144D01*
X106234905Y-113626635D01*
X106244108Y-114093653D01*
X106254876Y-114438775D01*
X106270307Y-114686079D01*
X106293504Y-114859637D01*
X106327568Y-114983526D01*
X106375598Y-115081818D01*
X106433504Y-115168540D01*
X106712879Y-115445575D01*
X107053781Y-115605778D01*
X107424562Y-115644153D01*
X107793573Y-115555702D01*
G36*
X99370551Y-115584963D02*
G01*
X99712653Y-115405080D01*
X99965127Y-115115584D01*
X100054811Y-114929467D01*
X100124598Y-114650020D01*
X100160322Y-114296933D01*
X100163709Y-113911572D01*
X100136487Y-113535302D01*
X100080383Y-113209487D01*
X99997125Y-112975493D01*
X99971537Y-112935194D01*
X99668454Y-112634378D01*
X99308467Y-112454207D01*
X98917848Y-112401480D01*
X98522869Y-112482995D01*
X98412949Y-112531866D01*
X98198890Y-112682470D01*
X98011020Y-112882163D01*
X97993265Y-112907489D01*
X97921097Y-113029547D01*
X97873392Y-113160024D01*
X97845210Y-113331788D01*
X97831611Y-113577705D01*
X97827655Y-113930641D01*
X97827586Y-114009770D01*
X97827768Y-114034952D01*
X98557471Y-114034952D01*
X98561718Y-113701859D01*
X98578431Y-113480815D01*
X98613563Y-113338038D01*
X98673071Y-113239745D01*
X98703448Y-113206896D01*
X98878089Y-113082070D01*
X99047646Y-113087763D01*
X99219086Y-113196040D01*
X99321338Y-113311634D01*
X99381895Y-113480356D01*
X99415902Y-113746418D01*
X99418235Y-113777449D01*
X99424039Y-114259633D01*
X99363374Y-114617750D01*
X99237061Y-114849600D01*
X99045919Y-114952983D01*
X98977689Y-114958621D01*
X98798527Y-114930268D01*
X98675975Y-114832041D01*
X98601044Y-114644185D01*
X98564748Y-114346945D01*
X98557471Y-114034952D01*
X97827768Y-114034952D01*
X97830305Y-114385853D01*
X97841719Y-114648628D01*
X97866721Y-114830714D01*
X97910197Y-114964730D01*
X97977039Y-115083296D01*
X97991810Y-115105340D01*
X98240079Y-115402483D01*
X98510604Y-115574979D01*
X98839952Y-115643453D01*
X98951791Y-115646798D01*
X99370551Y-115584963D01*
G37*
X99370551Y-115584963D02*
X99712653Y-115405080D01*
X99965127Y-115115584D01*
X100054811Y-114929467D01*
X100124598Y-114650020D01*
X100160322Y-114296933D01*
X100163709Y-113911572D01*
X100136487Y-113535302D01*
X100080383Y-113209487D01*
X99997125Y-112975493D01*
X99971537Y-112935194D01*
X99668454Y-112634378D01*
X99308467Y-112454207D01*
X98917848Y-112401480D01*
X98522869Y-112482995D01*
X98412949Y-112531866D01*
X98198890Y-112682470D01*
X98011020Y-112882163D01*
X97993265Y-112907489D01*
X97921097Y-113029547D01*
X97873392Y-113160024D01*
X97845210Y-113331788D01*
X97831611Y-113577705D01*
X97827655Y-113930641D01*
X97827586Y-114009770D01*
X97827768Y-114034952D01*
X98557471Y-114034952D01*
X98561718Y-113701859D01*
X98578431Y-113480815D01*
X98613563Y-113338038D01*
X98673071Y-113239745D01*
X98703448Y-113206896D01*
X98878089Y-113082070D01*
X99047646Y-113087763D01*
X99219086Y-113196040D01*
X99321338Y-113311634D01*
X99381895Y-113480356D01*
X99415902Y-113746418D01*
X99418235Y-113777449D01*
X99424039Y-114259633D01*
X99363374Y-114617750D01*
X99237061Y-114849600D01*
X99045919Y-114952983D01*
X98977689Y-114958621D01*
X98798527Y-114930268D01*
X98675975Y-114832041D01*
X98601044Y-114644185D01*
X98564748Y-114346945D01*
X98557471Y-114034952D01*
X97827768Y-114034952D01*
X97830305Y-114385853D01*
X97841719Y-114648628D01*
X97866721Y-114830714D01*
X97910197Y-114964730D01*
X97977039Y-115083296D01*
X97991810Y-115105340D01*
X98240079Y-115402483D01*
X98510604Y-115574979D01*
X98839952Y-115643453D01*
X98951791Y-115646798D01*
X99370551Y-115584963D01*
G36*
X105038879Y-115538309D02*
G01*
X105326644Y-115344721D01*
X105549027Y-115065127D01*
X105681873Y-114709337D01*
X105708742Y-114447463D01*
X105705690Y-114338184D01*
X105680140Y-114254514D01*
X105609903Y-114179553D01*
X105472790Y-114096401D01*
X105246612Y-113988156D01*
X104909180Y-113837918D01*
X104907471Y-113837164D01*
X104596876Y-113694907D01*
X104342181Y-113568586D01*
X104169417Y-113471801D01*
X104104615Y-113418150D01*
X104104598Y-113417718D01*
X104161712Y-113300889D01*
X104295273Y-113172114D01*
X104448605Y-113079347D01*
X104526288Y-113060919D01*
X104738223Y-113124654D01*
X104920732Y-113284272D01*
X105009782Y-113459766D01*
X105095450Y-113589143D01*
X105263257Y-113736478D01*
X105460519Y-113863760D01*
X105634551Y-113932978D01*
X105670943Y-113936781D01*
X105711907Y-113874198D01*
X105714375Y-113714222D01*
X105684271Y-113498518D01*
X105627516Y-113268748D01*
X105550034Y-113066576D01*
X105546121Y-113058727D01*
X105312953Y-112733165D01*
X105010760Y-112511723D01*
X104667568Y-112403034D01*
X104311400Y-112415735D01*
X103970281Y-112558459D01*
X103955113Y-112568495D01*
X103686775Y-112811684D01*
X103510330Y-113128977D01*
X103412684Y-113546185D01*
X103399579Y-113663403D01*
X103376370Y-114216676D01*
X103404194Y-114474689D01*
X104104598Y-114474689D01*
X104113698Y-114313743D01*
X104163473Y-114266772D01*
X104287564Y-114301912D01*
X104483167Y-114384978D01*
X104701814Y-114489102D01*
X104707248Y-114491859D01*
X104892574Y-114589338D01*
X104966953Y-114654390D01*
X104948612Y-114722587D01*
X104871382Y-114812196D01*
X104674900Y-114941873D01*
X104463306Y-114951401D01*
X104273507Y-114857027D01*
X104142411Y-114674996D01*
X104104598Y-114474689D01*
X103404194Y-114474689D01*
X103424109Y-114659348D01*
X103546586Y-115010428D01*
X103717090Y-115256381D01*
X104024837Y-115504926D01*
X104363821Y-115628222D01*
X104709886Y-115636079D01*
X105038879Y-115538309D01*
G37*
X105038879Y-115538309D02*
X105326644Y-115344721D01*
X105549027Y-115065127D01*
X105681873Y-114709337D01*
X105708742Y-114447463D01*
X105705690Y-114338184D01*
X105680140Y-114254514D01*
X105609903Y-114179553D01*
X105472790Y-114096401D01*
X105246612Y-113988156D01*
X104909180Y-113837918D01*
X104907471Y-113837164D01*
X104596876Y-113694907D01*
X104342181Y-113568586D01*
X104169417Y-113471801D01*
X104104615Y-113418150D01*
X104104598Y-113417718D01*
X104161712Y-113300889D01*
X104295273Y-113172114D01*
X104448605Y-113079347D01*
X104526288Y-113060919D01*
X104738223Y-113124654D01*
X104920732Y-113284272D01*
X105009782Y-113459766D01*
X105095450Y-113589143D01*
X105263257Y-113736478D01*
X105460519Y-113863760D01*
X105634551Y-113932978D01*
X105670943Y-113936781D01*
X105711907Y-113874198D01*
X105714375Y-113714222D01*
X105684271Y-113498518D01*
X105627516Y-113268748D01*
X105550034Y-113066576D01*
X105546121Y-113058727D01*
X105312953Y-112733165D01*
X105010760Y-112511723D01*
X104667568Y-112403034D01*
X104311400Y-112415735D01*
X103970281Y-112558459D01*
X103955113Y-112568495D01*
X103686775Y-112811684D01*
X103510330Y-113128977D01*
X103412684Y-113546185D01*
X103399579Y-113663403D01*
X103376370Y-114216676D01*
X103404194Y-114474689D01*
X104104598Y-114474689D01*
X104113698Y-114313743D01*
X104163473Y-114266772D01*
X104287564Y-114301912D01*
X104483167Y-114384978D01*
X104701814Y-114489102D01*
X104707248Y-114491859D01*
X104892574Y-114589338D01*
X104966953Y-114654390D01*
X104948612Y-114722587D01*
X104871382Y-114812196D01*
X104674900Y-114941873D01*
X104463306Y-114951401D01*
X104273507Y-114857027D01*
X104142411Y-114674996D01*
X104104598Y-114474689D01*
X103404194Y-114474689D01*
X103424109Y-114659348D01*
X103546586Y-115010428D01*
X103717090Y-115256381D01*
X104024837Y-115504926D01*
X104363821Y-115628222D01*
X104709886Y-115636079D01*
X105038879Y-115538309D01*
G36*
X111111494Y-115940357D02*
G01*
X111132884Y-115642031D01*
X111157452Y-115466234D01*
X111191497Y-115389553D01*
X111241317Y-115388572D01*
X111257471Y-115397726D01*
X111472349Y-115464005D01*
X111751862Y-115460135D01*
X112036036Y-115392002D01*
X112213775Y-115303861D01*
X112396013Y-115163054D01*
X112529233Y-115003703D01*
X112620687Y-114801226D01*
X112677624Y-114531036D01*
X112707297Y-114168550D01*
X112716955Y-113689184D01*
X112717128Y-113597226D01*
X112717241Y-112564280D01*
X112487384Y-112484151D01*
X112324130Y-112429639D01*
X112234561Y-112404258D01*
X112231924Y-112404023D01*
X112223104Y-112472850D01*
X112215597Y-112662692D01*
X112209975Y-112948588D01*
X112206809Y-113305578D01*
X112206322Y-113522622D01*
X112205306Y-113950568D01*
X112200079Y-114257280D01*
X112187367Y-114467499D01*
X112163899Y-114605966D01*
X112126403Y-114697421D01*
X112071606Y-114766603D01*
X112037393Y-114799921D01*
X111802372Y-114934179D01*
X111545911Y-114944233D01*
X111313224Y-114830688D01*
X111270194Y-114789692D01*
X111207079Y-114712607D01*
X111163301Y-114621172D01*
X111135355Y-114488963D01*
X111119741Y-114289558D01*
X111112955Y-113996536D01*
X111111494Y-113592522D01*
X111111494Y-112564280D01*
X110881637Y-112484151D01*
X110718383Y-112429639D01*
X110628813Y-112404258D01*
X110626177Y-112404023D01*
X110619437Y-112473880D01*
X110613362Y-112670924D01*
X110608194Y-112976367D01*
X110604178Y-113371419D01*
X110601558Y-113837293D01*
X110600576Y-114355199D01*
X110600575Y-114378236D01*
X110600575Y-116352449D01*
X110837787Y-116452508D01*
X111075000Y-116552567D01*
X111111494Y-115940357D01*
G37*
X111111494Y-115940357D02*
X111132884Y-115642031D01*
X111157452Y-115466234D01*
X111191497Y-115389553D01*
X111241317Y-115388572D01*
X111257471Y-115397726D01*
X111472349Y-115464005D01*
X111751862Y-115460135D01*
X112036036Y-115392002D01*
X112213775Y-115303861D01*
X112396013Y-115163054D01*
X112529233Y-115003703D01*
X112620687Y-114801226D01*
X112677624Y-114531036D01*
X112707297Y-114168550D01*
X112716955Y-113689184D01*
X112717128Y-113597226D01*
X112717241Y-112564280D01*
X112487384Y-112484151D01*
X112324130Y-112429639D01*
X112234561Y-112404258D01*
X112231924Y-112404023D01*
X112223104Y-112472850D01*
X112215597Y-112662692D01*
X112209975Y-112948588D01*
X112206809Y-113305578D01*
X112206322Y-113522622D01*
X112205306Y-113950568D01*
X112200079Y-114257280D01*
X112187367Y-114467499D01*
X112163899Y-114605966D01*
X112126403Y-114697421D01*
X112071606Y-114766603D01*
X112037393Y-114799921D01*
X111802372Y-114934179D01*
X111545911Y-114944233D01*
X111313224Y-114830688D01*
X111270194Y-114789692D01*
X111207079Y-114712607D01*
X111163301Y-114621172D01*
X111135355Y-114488963D01*
X111119741Y-114289558D01*
X111112955Y-113996536D01*
X111111494Y-113592522D01*
X111111494Y-112564280D01*
X110881637Y-112484151D01*
X110718383Y-112429639D01*
X110628813Y-112404258D01*
X110626177Y-112404023D01*
X110619437Y-112473880D01*
X110613362Y-112670924D01*
X110608194Y-112976367D01*
X110604178Y-113371419D01*
X110601558Y-113837293D01*
X110600576Y-114355199D01*
X110600575Y-114378236D01*
X110600575Y-116352449D01*
X110837787Y-116452508D01*
X111075000Y-116552567D01*
X111111494Y-115940357D01*
G36*
X114449861Y-115439099D02*
G01*
X114735857Y-115332896D01*
X114739129Y-115330854D01*
X114916008Y-115200675D01*
X115046589Y-115048541D01*
X115138428Y-114850282D01*
X115199084Y-114581728D01*
X115236113Y-114218708D01*
X115257073Y-113737051D01*
X115258910Y-113668429D01*
X115285299Y-112633697D01*
X115063228Y-112518860D01*
X114902545Y-112441255D01*
X114805525Y-112404484D01*
X114801038Y-112404023D01*
X114784249Y-112471874D01*
X114770912Y-112654897D01*
X114762708Y-112922298D01*
X114760919Y-113138826D01*
X114760878Y-113489594D01*
X114744843Y-113709872D01*
X114688949Y-113814937D01*
X114569331Y-113820063D01*
X114362123Y-113740525D01*
X114049282Y-113594319D01*
X113819242Y-113472887D01*
X113700927Y-113367534D01*
X113666145Y-113252710D01*
X113666092Y-113247027D01*
X113723488Y-113049223D01*
X113893424Y-112942363D01*
X114153495Y-112926885D01*
X114340824Y-112929570D01*
X114439598Y-112875617D01*
X114501196Y-112746023D01*
X114536648Y-112580919D01*
X114485557Y-112487239D01*
X114466320Y-112473831D01*
X114285207Y-112419985D01*
X114031582Y-112412362D01*
X113770391Y-112448054D01*
X113585313Y-112513280D01*
X113329430Y-112730537D01*
X113183977Y-113032959D01*
X113155172Y-113269231D01*
X113177155Y-113482345D01*
X113256701Y-113656309D01*
X113414209Y-113810819D01*
X113670078Y-113965570D01*
X114044706Y-114140257D01*
X114067529Y-114150130D01*
X114404993Y-114306029D01*
X114613235Y-114433885D01*
X114702493Y-114548779D01*
X114683008Y-114665792D01*
X114565017Y-114800004D01*
X114529734Y-114830891D01*
X114293398Y-114950647D01*
X114048514Y-114945605D01*
X113835241Y-114828190D01*
X113693740Y-114610828D01*
X113680592Y-114568164D01*
X113552557Y-114361240D01*
X113390093Y-114261570D01*
X113155172Y-114162794D01*
X113155172Y-114418355D01*
X113226633Y-114789819D01*
X113438738Y-115130540D01*
X113549113Y-115244523D01*
X113800013Y-115390816D01*
X114119088Y-115457040D01*
X114449861Y-115439099D01*
G37*
X114449861Y-115439099D02*
X114735857Y-115332896D01*
X114739129Y-115330854D01*
X114916008Y-115200675D01*
X115046589Y-115048541D01*
X115138428Y-114850282D01*
X115199084Y-114581728D01*
X115236113Y-114218708D01*
X115257073Y-113737051D01*
X115258910Y-113668429D01*
X115285299Y-112633697D01*
X115063228Y-112518860D01*
X114902545Y-112441255D01*
X114805525Y-112404484D01*
X114801038Y-112404023D01*
X114784249Y-112471874D01*
X114770912Y-112654897D01*
X114762708Y-112922298D01*
X114760919Y-113138826D01*
X114760878Y-113489594D01*
X114744843Y-113709872D01*
X114688949Y-113814937D01*
X114569331Y-113820063D01*
X114362123Y-113740525D01*
X114049282Y-113594319D01*
X113819242Y-113472887D01*
X113700927Y-113367534D01*
X113666145Y-113252710D01*
X113666092Y-113247027D01*
X113723488Y-113049223D01*
X113893424Y-112942363D01*
X114153495Y-112926885D01*
X114340824Y-112929570D01*
X114439598Y-112875617D01*
X114501196Y-112746023D01*
X114536648Y-112580919D01*
X114485557Y-112487239D01*
X114466320Y-112473831D01*
X114285207Y-112419985D01*
X114031582Y-112412362D01*
X113770391Y-112448054D01*
X113585313Y-112513280D01*
X113329430Y-112730537D01*
X113183977Y-113032959D01*
X113155172Y-113269231D01*
X113177155Y-113482345D01*
X113256701Y-113656309D01*
X113414209Y-113810819D01*
X113670078Y-113965570D01*
X114044706Y-114140257D01*
X114067529Y-114150130D01*
X114404993Y-114306029D01*
X114613235Y-114433885D01*
X114702493Y-114548779D01*
X114683008Y-114665792D01*
X114565017Y-114800004D01*
X114529734Y-114830891D01*
X114293398Y-114950647D01*
X114048514Y-114945605D01*
X113835241Y-114828190D01*
X113693740Y-114610828D01*
X113680592Y-114568164D01*
X113552557Y-114361240D01*
X113390093Y-114261570D01*
X113155172Y-114162794D01*
X113155172Y-114418355D01*
X113226633Y-114789819D01*
X113438738Y-115130540D01*
X113549113Y-115244523D01*
X113800013Y-115390816D01*
X114119088Y-115457040D01*
X114449861Y-115439099D01*
G36*
X116914857Y-115445200D02*
G01*
X117246413Y-115322851D01*
X117515024Y-115106451D01*
X117620079Y-114954120D01*
X117734606Y-114674598D01*
X117732227Y-114472485D01*
X117612020Y-114336554D01*
X117567543Y-114313440D01*
X117375510Y-114241374D01*
X117277440Y-114259837D01*
X117244222Y-114380854D01*
X117242529Y-114447701D01*
X117181714Y-114693629D01*
X117023202Y-114865664D01*
X116802885Y-114948755D01*
X116556658Y-114927847D01*
X116356505Y-114819260D01*
X116288902Y-114757320D01*
X116240984Y-114682177D01*
X116208615Y-114568587D01*
X116187659Y-114391309D01*
X116173981Y-114125101D01*
X116163445Y-113744721D01*
X116160717Y-113624281D01*
X116150766Y-113212263D01*
X116139453Y-112922279D01*
X116122486Y-112730418D01*
X116095576Y-112612767D01*
X116054432Y-112545413D01*
X115994765Y-112504443D01*
X115956564Y-112486343D01*
X115794333Y-112424450D01*
X115698835Y-112404023D01*
X115667280Y-112472243D01*
X115648019Y-112678491D01*
X115640949Y-113025148D01*
X115645966Y-113514594D01*
X115647528Y-113590086D01*
X115658552Y-114036628D01*
X115671588Y-114362692D01*
X115690138Y-114593771D01*
X115717705Y-114755356D01*
X115757792Y-114872938D01*
X115813902Y-114972010D01*
X115843254Y-115014463D01*
X116011548Y-115202300D01*
X116199775Y-115348405D01*
X116222819Y-115361159D01*
X116560333Y-115461851D01*
X116914857Y-115445200D01*
G37*
X116914857Y-115445200D02*
X117246413Y-115322851D01*
X117515024Y-115106451D01*
X117620079Y-114954120D01*
X117734606Y-114674598D01*
X117732227Y-114472485D01*
X117612020Y-114336554D01*
X117567543Y-114313440D01*
X117375510Y-114241374D01*
X117277440Y-114259837D01*
X117244222Y-114380854D01*
X117242529Y-114447701D01*
X117181714Y-114693629D01*
X117023202Y-114865664D01*
X116802885Y-114948755D01*
X116556658Y-114927847D01*
X116356505Y-114819260D01*
X116288902Y-114757320D01*
X116240984Y-114682177D01*
X116208615Y-114568587D01*
X116187659Y-114391309D01*
X116173981Y-114125101D01*
X116163445Y-113744721D01*
X116160717Y-113624281D01*
X116150766Y-113212263D01*
X116139453Y-112922279D01*
X116122486Y-112730418D01*
X116095576Y-112612767D01*
X116054432Y-112545413D01*
X115994765Y-112504443D01*
X115956564Y-112486343D01*
X115794333Y-112424450D01*
X115698835Y-112404023D01*
X115667280Y-112472243D01*
X115648019Y-112678491D01*
X115640949Y-113025148D01*
X115645966Y-113514594D01*
X115647528Y-113590086D01*
X115658552Y-114036628D01*
X115671588Y-114362692D01*
X115690138Y-114593771D01*
X115717705Y-114755356D01*
X115757792Y-114872938D01*
X115813902Y-114972010D01*
X115843254Y-115014463D01*
X116011548Y-115202300D01*
X116199775Y-115348405D01*
X116222819Y-115361159D01*
X116560333Y-115461851D01*
X116914857Y-115445200D01*
G36*
X120234785Y-114863861D02*
G01*
X120233858Y-114318347D01*
X120230270Y-113898702D01*
X120222506Y-113584824D01*
X120209055Y-113356612D01*
X120188404Y-113193962D01*
X120159040Y-113076772D01*
X120119452Y-112984940D01*
X120089475Y-112932522D01*
X119841224Y-112648264D01*
X119526471Y-112470088D01*
X119178228Y-112406154D01*
X118829511Y-112464626D01*
X118621857Y-112569702D01*
X118403862Y-112751471D01*
X118255291Y-112973469D01*
X118165652Y-113264199D01*
X118124453Y-113652162D01*
X118118618Y-113936781D01*
X118119405Y-113957235D01*
X118629310Y-113957235D01*
X118632425Y-113630856D01*
X118646694Y-113414799D01*
X118679511Y-113273454D01*
X118738264Y-113171216D01*
X118808464Y-113094096D01*
X119044219Y-112945237D01*
X119297350Y-112932521D01*
X119536589Y-113056802D01*
X119555210Y-113073642D01*
X119634686Y-113161244D01*
X119684520Y-113265471D01*
X119711499Y-113420596D01*
X119722412Y-113660890D01*
X119724138Y-113926553D01*
X119720397Y-114260299D01*
X119704911Y-114482945D01*
X119671285Y-114629267D01*
X119613126Y-114734045D01*
X119565438Y-114789692D01*
X119343907Y-114930037D01*
X119088769Y-114946912D01*
X118845238Y-114839716D01*
X118798239Y-114799921D01*
X118718232Y-114711546D01*
X118668296Y-114606245D01*
X118641483Y-114449373D01*
X118630848Y-114206281D01*
X118629310Y-113957235D01*
X118119405Y-113957235D01*
X118136259Y-114395132D01*
X118196179Y-114739511D01*
X118308869Y-114998420D01*
X118484821Y-115200360D01*
X118621857Y-115303861D01*
X118870940Y-115415679D01*
X119159637Y-115467581D01*
X119427998Y-115453688D01*
X119578161Y-115397643D01*
X119637088Y-115381693D01*
X119676191Y-115441163D01*
X119703487Y-115600529D01*
X119724138Y-115843282D01*
X119746747Y-116113647D01*
X119778153Y-116276313D01*
X119835298Y-116369331D01*
X119935126Y-116430752D01*
X119997845Y-116457952D01*
X120235057Y-116557321D01*
X120234785Y-114863861D01*
G37*
X120234785Y-114863861D02*
X120233858Y-114318347D01*
X120230270Y-113898702D01*
X120222506Y-113584824D01*
X120209055Y-113356612D01*
X120188404Y-113193962D01*
X120159040Y-113076772D01*
X120119452Y-112984940D01*
X120089475Y-112932522D01*
X119841224Y-112648264D01*
X119526471Y-112470088D01*
X119178228Y-112406154D01*
X118829511Y-112464626D01*
X118621857Y-112569702D01*
X118403862Y-112751471D01*
X118255291Y-112973469D01*
X118165652Y-113264199D01*
X118124453Y-113652162D01*
X118118618Y-113936781D01*
X118119405Y-113957235D01*
X118629310Y-113957235D01*
X118632425Y-113630856D01*
X118646694Y-113414799D01*
X118679511Y-113273454D01*
X118738264Y-113171216D01*
X118808464Y-113094096D01*
X119044219Y-112945237D01*
X119297350Y-112932521D01*
X119536589Y-113056802D01*
X119555210Y-113073642D01*
X119634686Y-113161244D01*
X119684520Y-113265471D01*
X119711499Y-113420596D01*
X119722412Y-113660890D01*
X119724138Y-113926553D01*
X119720397Y-114260299D01*
X119704911Y-114482945D01*
X119671285Y-114629267D01*
X119613126Y-114734045D01*
X119565438Y-114789692D01*
X119343907Y-114930037D01*
X119088769Y-114946912D01*
X118845238Y-114839716D01*
X118798239Y-114799921D01*
X118718232Y-114711546D01*
X118668296Y-114606245D01*
X118641483Y-114449373D01*
X118630848Y-114206281D01*
X118629310Y-113957235D01*
X118119405Y-113957235D01*
X118136259Y-114395132D01*
X118196179Y-114739511D01*
X118308869Y-114998420D01*
X118484821Y-115200360D01*
X118621857Y-115303861D01*
X118870940Y-115415679D01*
X119159637Y-115467581D01*
X119427998Y-115453688D01*
X119578161Y-115397643D01*
X119637088Y-115381693D01*
X119676191Y-115441163D01*
X119703487Y-115600529D01*
X119724138Y-115843282D01*
X119746747Y-116113647D01*
X119778153Y-116276313D01*
X119835298Y-116369331D01*
X119935126Y-116430752D01*
X119997845Y-116457952D01*
X120235057Y-116557321D01*
X120234785Y-114863861D01*
G36*
X123200309Y-115400400D02*
G01*
X123211448Y-115208367D01*
X123220177Y-114916523D01*
X123225787Y-114547947D01*
X123227586Y-114161361D01*
X123227586Y-112853183D01*
X122996612Y-112622208D01*
X122837444Y-112479883D01*
X122697723Y-112422232D01*
X122506755Y-112425881D01*
X122430951Y-112435166D01*
X122194025Y-112462185D01*
X121998055Y-112477668D01*
X121950287Y-112479097D01*
X121789248Y-112469744D01*
X121558928Y-112446265D01*
X121469624Y-112435166D01*
X121250285Y-112417998D01*
X121102883Y-112455288D01*
X120956724Y-112570413D01*
X120903963Y-112622208D01*
X120672988Y-112853183D01*
X120672988Y-115300132D01*
X120858894Y-115384836D01*
X121018974Y-115447576D01*
X121112630Y-115469540D01*
X121136643Y-115400125D01*
X121159087Y-115206174D01*
X121178466Y-114909129D01*
X121193285Y-114530431D01*
X121200432Y-114210488D01*
X121220402Y-112951437D01*
X121394619Y-112926804D01*
X121553073Y-112944027D01*
X121630714Y-112999792D01*
X121652417Y-113104053D01*
X121670946Y-113326141D01*
X121684828Y-113637914D01*
X121692591Y-114011233D01*
X121693710Y-114203348D01*
X121694828Y-115309283D01*
X121924685Y-115389411D01*
X122087373Y-115443891D01*
X122175868Y-115469298D01*
X122178421Y-115469540D01*
X122187299Y-115400477D01*
X122197057Y-115208973D01*
X122206878Y-114918552D01*
X122215940Y-114552739D01*
X122222271Y-114210488D01*
X122242241Y-112951437D01*
X122680172Y-112951437D01*
X122700268Y-114100087D01*
X122720364Y-115248738D01*
X122933856Y-115359139D01*
X123091483Y-115434951D01*
X123184775Y-115469354D01*
X123187467Y-115469540D01*
X123200309Y-115400400D01*
G37*
X123200309Y-115400400D02*
X123211448Y-115208367D01*
X123220177Y-114916523D01*
X123225787Y-114547947D01*
X123227586Y-114161361D01*
X123227586Y-112853183D01*
X122996612Y-112622208D01*
X122837444Y-112479883D01*
X122697723Y-112422232D01*
X122506755Y-112425881D01*
X122430951Y-112435166D01*
X122194025Y-112462185D01*
X121998055Y-112477668D01*
X121950287Y-112479097D01*
X121789248Y-112469744D01*
X121558928Y-112446265D01*
X121469624Y-112435166D01*
X121250285Y-112417998D01*
X121102883Y-112455288D01*
X120956724Y-112570413D01*
X120903963Y-112622208D01*
X120672988Y-112853183D01*
X120672988Y-115300132D01*
X120858894Y-115384836D01*
X121018974Y-115447576D01*
X121112630Y-115469540D01*
X121136643Y-115400125D01*
X121159087Y-115206174D01*
X121178466Y-114909129D01*
X121193285Y-114530431D01*
X121200432Y-114210488D01*
X121220402Y-112951437D01*
X121394619Y-112926804D01*
X121553073Y-112944027D01*
X121630714Y-112999792D01*
X121652417Y-113104053D01*
X121670946Y-113326141D01*
X121684828Y-113637914D01*
X121692591Y-114011233D01*
X121693710Y-114203348D01*
X121694828Y-115309283D01*
X121924685Y-115389411D01*
X122087373Y-115443891D01*
X122175868Y-115469298D01*
X122178421Y-115469540D01*
X122187299Y-115400477D01*
X122197057Y-115208973D01*
X122206878Y-114918552D01*
X122215940Y-114552739D01*
X122222271Y-114210488D01*
X122242241Y-112951437D01*
X122680172Y-112951437D01*
X122700268Y-114100087D01*
X122720364Y-115248738D01*
X122933856Y-115359139D01*
X123091483Y-115434951D01*
X123184775Y-115469354D01*
X123187467Y-115469540D01*
X123200309Y-115400400D01*
G36*
X125036016Y-115412109D02*
G01*
X125246172Y-115316516D01*
X125411124Y-115200686D01*
X125531986Y-115071170D01*
X125615431Y-114904092D01*
X125668133Y-114675577D01*
X125696767Y-114361748D01*
X125708008Y-113938731D01*
X125709195Y-113660168D01*
X125709195Y-112573431D01*
X125523290Y-112488727D01*
X125376865Y-112426820D01*
X125304324Y-112404023D01*
X125290446Y-112471858D01*
X125279437Y-112654764D01*
X125272696Y-112921842D01*
X125271264Y-113133908D01*
X125265114Y-113440281D01*
X125248531Y-113683331D01*
X125224316Y-113832164D01*
X125205080Y-113863793D01*
X125075778Y-113831494D01*
X124872793Y-113748651D01*
X124637755Y-113636347D01*
X124412293Y-113515663D01*
X124238038Y-113407680D01*
X124156619Y-113333481D01*
X124156297Y-113332678D01*
X124163300Y-113195358D01*
X124226098Y-113064270D01*
X124336352Y-112957797D01*
X124497273Y-112922185D01*
X124634802Y-112926335D01*
X124829586Y-112929388D01*
X124931831Y-112883754D01*
X124993237Y-112763186D01*
X125000980Y-112740450D01*
X125027600Y-112568504D01*
X124956413Y-112464100D01*
X124770860Y-112414343D01*
X124570420Y-112405140D01*
X124209725Y-112473355D01*
X124023006Y-112570774D01*
X123792406Y-112799631D01*
X123670108Y-113080544D01*
X123659134Y-113377372D01*
X123762503Y-113653973D01*
X123917991Y-113827299D01*
X124073234Y-113924337D01*
X124317238Y-114047188D01*
X124601580Y-114171771D01*
X124648975Y-114190808D01*
X124961303Y-114328638D01*
X125141347Y-114450115D01*
X125199251Y-114570881D01*
X125145159Y-114706575D01*
X125052299Y-114812644D01*
X124832818Y-114943245D01*
X124591325Y-114953041D01*
X124369859Y-114852398D01*
X124210464Y-114651684D01*
X124189543Y-114599900D01*
X124067739Y-114409437D01*
X123889912Y-114268037D01*
X123665517Y-114151998D01*
X123665517Y-114481039D01*
X123678725Y-114682081D01*
X123735354Y-114840534D01*
X123860917Y-115009592D01*
X123981454Y-115139810D01*
X124168886Y-115324195D01*
X124314514Y-115423244D01*
X124470930Y-115462975D01*
X124647983Y-115469540D01*
X125036016Y-115412109D01*
G37*
X125036016Y-115412109D02*
X125246172Y-115316516D01*
X125411124Y-115200686D01*
X125531986Y-115071170D01*
X125615431Y-114904092D01*
X125668133Y-114675577D01*
X125696767Y-114361748D01*
X125708008Y-113938731D01*
X125709195Y-113660168D01*
X125709195Y-112573431D01*
X125523290Y-112488727D01*
X125376865Y-112426820D01*
X125304324Y-112404023D01*
X125290446Y-112471858D01*
X125279437Y-112654764D01*
X125272696Y-112921842D01*
X125271264Y-113133908D01*
X125265114Y-113440281D01*
X125248531Y-113683331D01*
X125224316Y-113832164D01*
X125205080Y-113863793D01*
X125075778Y-113831494D01*
X124872793Y-113748651D01*
X124637755Y-113636347D01*
X124412293Y-113515663D01*
X124238038Y-113407680D01*
X124156619Y-113333481D01*
X124156297Y-113332678D01*
X124163300Y-113195358D01*
X124226098Y-113064270D01*
X124336352Y-112957797D01*
X124497273Y-112922185D01*
X124634802Y-112926335D01*
X124829586Y-112929388D01*
X124931831Y-112883754D01*
X124993237Y-112763186D01*
X125000980Y-112740450D01*
X125027600Y-112568504D01*
X124956413Y-112464100D01*
X124770860Y-112414343D01*
X124570420Y-112405140D01*
X124209725Y-112473355D01*
X124023006Y-112570774D01*
X123792406Y-112799631D01*
X123670108Y-113080544D01*
X123659134Y-113377372D01*
X123762503Y-113653973D01*
X123917991Y-113827299D01*
X124073234Y-113924337D01*
X124317238Y-114047188D01*
X124601580Y-114171771D01*
X124648975Y-114190808D01*
X124961303Y-114328638D01*
X125141347Y-114450115D01*
X125199251Y-114570881D01*
X125145159Y-114706575D01*
X125052299Y-114812644D01*
X124832818Y-114943245D01*
X124591325Y-114953041D01*
X124369859Y-114852398D01*
X124210464Y-114651684D01*
X124189543Y-114599900D01*
X124067739Y-114409437D01*
X123889912Y-114268037D01*
X123665517Y-114151998D01*
X123665517Y-114481039D01*
X123678725Y-114682081D01*
X123735354Y-114840534D01*
X123860917Y-115009592D01*
X123981454Y-115139810D01*
X124168886Y-115324195D01*
X124314514Y-115423244D01*
X124470930Y-115462975D01*
X124647983Y-115469540D01*
X125036016Y-115412109D01*
G36*
X127589224Y-115399954D02*
G01*
X127676463Y-115361827D01*
X127884692Y-115196912D01*
X128062756Y-114958456D01*
X128172881Y-114703984D01*
X128190805Y-114578531D01*
X128130713Y-114403383D01*
X127998901Y-114310707D01*
X127857577Y-114254590D01*
X127792865Y-114244250D01*
X127761355Y-114319293D01*
X127699135Y-114482597D01*
X127671837Y-114556386D01*
X127518771Y-114811631D01*
X127297153Y-114938943D01*
X127012982Y-114935028D01*
X126991934Y-114930014D01*
X126840220Y-114858083D01*
X126728685Y-114717853D01*
X126652506Y-114492092D01*
X126606861Y-114163573D01*
X126586926Y-113715066D01*
X126585057Y-113476416D01*
X126584130Y-113100217D01*
X126578056Y-112843763D01*
X126561899Y-112680819D01*
X126530720Y-112585155D01*
X126479582Y-112530536D01*
X126403547Y-112490731D01*
X126399152Y-112488727D01*
X126252727Y-112426820D01*
X126180186Y-112404023D01*
X126169040Y-112472945D01*
X126159498Y-112663450D01*
X126152247Y-112951148D01*
X126147977Y-113311647D01*
X126147126Y-113575464D01*
X126151469Y-114085968D01*
X126168455Y-114473258D01*
X126204018Y-114759940D01*
X126264094Y-114968621D01*
X126354620Y-115121910D01*
X126481529Y-115242414D01*
X126606848Y-115326518D01*
X126908186Y-115438452D01*
X127258893Y-115463698D01*
X127589224Y-115399954D01*
G37*
X127589224Y-115399954D02*
X127676463Y-115361827D01*
X127884692Y-115196912D01*
X128062756Y-114958456D01*
X128172881Y-114703984D01*
X128190805Y-114578531D01*
X128130713Y-114403383D01*
X127998901Y-114310707D01*
X127857577Y-114254590D01*
X127792865Y-114244250D01*
X127761355Y-114319293D01*
X127699135Y-114482597D01*
X127671837Y-114556386D01*
X127518771Y-114811631D01*
X127297153Y-114938943D01*
X127012982Y-114935028D01*
X126991934Y-114930014D01*
X126840220Y-114858083D01*
X126728685Y-114717853D01*
X126652506Y-114492092D01*
X126606861Y-114163573D01*
X126586926Y-113715066D01*
X126585057Y-113476416D01*
X126584130Y-113100217D01*
X126578056Y-112843763D01*
X126561899Y-112680819D01*
X126530720Y-112585155D01*
X126479582Y-112530536D01*
X126403547Y-112490731D01*
X126399152Y-112488727D01*
X126252727Y-112426820D01*
X126180186Y-112404023D01*
X126169040Y-112472945D01*
X126159498Y-112663450D01*
X126152247Y-112951148D01*
X126147977Y-113311647D01*
X126147126Y-113575464D01*
X126151469Y-114085968D01*
X126168455Y-114473258D01*
X126204018Y-114759940D01*
X126264094Y-114968621D01*
X126354620Y-115121910D01*
X126481529Y-115242414D01*
X126606848Y-115326518D01*
X126908186Y-115438452D01*
X127258893Y-115463698D01*
X127589224Y-115399954D01*
G36*
X130108597Y-115358650D02*
G01*
X130397374Y-115169915D01*
X130536660Y-115000956D01*
X130647009Y-114694362D01*
X130655773Y-114451755D01*
X130635919Y-114127360D01*
X129887787Y-113799903D01*
X129524026Y-113632605D01*
X129286343Y-113498025D01*
X129162753Y-113381459D01*
X129141276Y-113268200D01*
X129209930Y-113143544D01*
X129285632Y-113060919D01*
X129505907Y-112928416D01*
X129745491Y-112919132D01*
X129965530Y-113022398D01*
X130127171Y-113227542D01*
X130156082Y-113299981D01*
X130294563Y-113526228D01*
X130453882Y-113622649D01*
X130672414Y-113705136D01*
X130672414Y-113392415D01*
X130653094Y-113179611D01*
X130577414Y-113000155D01*
X130418795Y-112794109D01*
X130395219Y-112767334D01*
X130218782Y-112584021D01*
X130067118Y-112485645D01*
X129877374Y-112440387D01*
X129720076Y-112425566D01*
X129438716Y-112421873D01*
X129238425Y-112468663D01*
X129113474Y-112538132D01*
X128917094Y-112690898D01*
X128781158Y-112856114D01*
X128695129Y-113063897D01*
X128648469Y-113344365D01*
X128630640Y-113727634D01*
X128629217Y-113922159D01*
X128634056Y-114155368D01*
X129074748Y-114155368D01*
X129079859Y-114030259D01*
X129092598Y-114009770D01*
X129176664Y-114037604D01*
X129357576Y-114111267D01*
X129599368Y-114215998D01*
X129649932Y-114238508D01*
X129955508Y-114393894D01*
X130123868Y-114530462D01*
X130160869Y-114658378D01*
X130072367Y-114787809D01*
X129999277Y-114844999D01*
X129735540Y-114959375D01*
X129488690Y-114940479D01*
X129282031Y-114800871D01*
X129138869Y-114553117D01*
X129092970Y-114356465D01*
X129074748Y-114155368D01*
X128634056Y-114155368D01*
X128638648Y-114376622D01*
X128673397Y-114712867D01*
X128742235Y-114957711D01*
X128853930Y-115137972D01*
X129017253Y-115280468D01*
X129088457Y-115326518D01*
X129411906Y-115446446D01*
X129766030Y-115453992D01*
X130108597Y-115358650D01*
G37*
X130108597Y-115358650D02*
X130397374Y-115169915D01*
X130536660Y-115000956D01*
X130647009Y-114694362D01*
X130655773Y-114451755D01*
X130635919Y-114127360D01*
X129887787Y-113799903D01*
X129524026Y-113632605D01*
X129286343Y-113498025D01*
X129162753Y-113381459D01*
X129141276Y-113268200D01*
X129209930Y-113143544D01*
X129285632Y-113060919D01*
X129505907Y-112928416D01*
X129745491Y-112919132D01*
X129965530Y-113022398D01*
X130127171Y-113227542D01*
X130156082Y-113299981D01*
X130294563Y-113526228D01*
X130453882Y-113622649D01*
X130672414Y-113705136D01*
X130672414Y-113392415D01*
X130653094Y-113179611D01*
X130577414Y-113000155D01*
X130418795Y-112794109D01*
X130395219Y-112767334D01*
X130218782Y-112584021D01*
X130067118Y-112485645D01*
X129877374Y-112440387D01*
X129720076Y-112425566D01*
X129438716Y-112421873D01*
X129238425Y-112468663D01*
X129113474Y-112538132D01*
X128917094Y-112690898D01*
X128781158Y-112856114D01*
X128695129Y-113063897D01*
X128648469Y-113344365D01*
X128630640Y-113727634D01*
X128629217Y-113922159D01*
X128634056Y-114155368D01*
X129074748Y-114155368D01*
X129079859Y-114030259D01*
X129092598Y-114009770D01*
X129176664Y-114037604D01*
X129357576Y-114111267D01*
X129599368Y-114215998D01*
X129649932Y-114238508D01*
X129955508Y-114393894D01*
X130123868Y-114530462D01*
X130160869Y-114658378D01*
X130072367Y-114787809D01*
X129999277Y-114844999D01*
X129735540Y-114959375D01*
X129488690Y-114940479D01*
X129282031Y-114800871D01*
X129138869Y-114553117D01*
X129092970Y-114356465D01*
X129074748Y-114155368D01*
X128634056Y-114155368D01*
X128638648Y-114376622D01*
X128673397Y-114712867D01*
X128742235Y-114957711D01*
X128853930Y-115137972D01*
X129017253Y-115280468D01*
X129088457Y-115326518D01*
X129411906Y-115446446D01*
X129766030Y-115453992D01*
X130108597Y-115358650D01*
G36*
X114772534Y-139117505D02*
G01*
X115167515Y-139115342D01*
X115453368Y-139109487D01*
X115648517Y-139098095D01*
X115771385Y-139079325D01*
X115840398Y-139051334D01*
X115873979Y-139012279D01*
X115890552Y-138960318D01*
X115892163Y-138953592D01*
X115917338Y-138832217D01*
X115963937Y-138592738D01*
X116027113Y-138260643D01*
X116102018Y-137861423D01*
X116183804Y-137420566D01*
X116186660Y-137405083D01*
X116268583Y-136973046D01*
X116345232Y-136591328D01*
X116411659Y-136282822D01*
X116462918Y-136070423D01*
X116494064Y-135977025D01*
X116495549Y-135975370D01*
X116587298Y-135929761D01*
X116776464Y-135853758D01*
X117022195Y-135763768D01*
X117023563Y-135763287D01*
X117333081Y-135646945D01*
X117697989Y-135498740D01*
X118041953Y-135349728D01*
X118058232Y-135342360D01*
X118618475Y-135088086D01*
X119859046Y-135935257D01*
X120239614Y-136193520D01*
X120584352Y-136424407D01*
X120873287Y-136614790D01*
X121086447Y-136751537D01*
X121203860Y-136821518D01*
X121215010Y-136826708D01*
X121300336Y-136803601D01*
X121459703Y-136692110D01*
X121699327Y-136486978D01*
X122025423Y-136182948D01*
X122358321Y-135859488D01*
X122679235Y-135540746D01*
X122966452Y-135249885D01*
X123202681Y-135004869D01*
X123370632Y-134823659D01*
X123453014Y-134724217D01*
X123456079Y-134719098D01*
X123465186Y-134650859D01*
X123430876Y-134539416D01*
X123344672Y-134369721D01*
X123198098Y-134126722D01*
X122982676Y-133795372D01*
X122695499Y-133368811D01*
X122440634Y-132993362D01*
X122212807Y-132656626D01*
X122025181Y-132378151D01*
X121890923Y-132177488D01*
X121823199Y-132074187D01*
X121818936Y-132067174D01*
X121827204Y-131968198D01*
X121889882Y-131775828D01*
X121994495Y-131526421D01*
X122031780Y-131446772D01*
X122194465Y-131091935D01*
X122368030Y-130689316D01*
X122509022Y-130340948D01*
X122610617Y-130082390D01*
X122691314Y-129885896D01*
X122737945Y-129783200D01*
X122743743Y-129775287D01*
X122829506Y-129762180D01*
X123031672Y-129726266D01*
X123323358Y-129672658D01*
X123677686Y-129606467D01*
X124067775Y-129532808D01*
X124466744Y-129456792D01*
X124847713Y-129383530D01*
X125183801Y-129318137D01*
X125448129Y-129265724D01*
X125613815Y-129231403D01*
X125654454Y-129221699D01*
X125696433Y-129197749D01*
X125728121Y-129143660D01*
X125750944Y-129041172D01*
X125766328Y-128872028D01*
X125775699Y-128617971D01*
X125780481Y-128260743D01*
X125782100Y-127782087D01*
X125782184Y-127585888D01*
X125782184Y-125990234D01*
X125398994Y-125914601D01*
X125185805Y-125873590D01*
X124867674Y-125813727D01*
X124483288Y-125742233D01*
X124071336Y-125666332D01*
X123957471Y-125645484D01*
X123577331Y-125571574D01*
X123246170Y-125498895D01*
X122991784Y-125434178D01*
X122841969Y-125384156D01*
X122817013Y-125369247D01*
X122755733Y-125263664D01*
X122667869Y-125059076D01*
X122570432Y-124795792D01*
X122551105Y-124739080D01*
X122423400Y-124387456D01*
X122264884Y-123990714D01*
X122109759Y-123634438D01*
X122108995Y-123632784D01*
X121850668Y-123073901D01*
X122700285Y-121824161D01*
X123549901Y-120574420D01*
X122459053Y-119481750D01*
X122129121Y-119156548D01*
X121828197Y-118869879D01*
X121573182Y-118637046D01*
X121380977Y-118473355D01*
X121268483Y-118394108D01*
X121252346Y-118389080D01*
X121157600Y-118428676D01*
X120964269Y-118538760D01*
X120693472Y-118706275D01*
X120366330Y-118918164D01*
X120012630Y-119155460D01*
X119653653Y-119397505D01*
X119333588Y-119608122D01*
X119072762Y-119774354D01*
X118891500Y-119883244D01*
X118810394Y-119921839D01*
X118711440Y-119889180D01*
X118523797Y-119803124D01*
X118286169Y-119681550D01*
X118260979Y-119668037D01*
X117940978Y-119507550D01*
X117721545Y-119428843D01*
X117585069Y-119428006D01*
X117513938Y-119501131D01*
X117513524Y-119502155D01*
X117477969Y-119588755D01*
X117393172Y-119794328D01*
X117265710Y-120102965D01*
X117102156Y-120498754D01*
X116909085Y-120965784D01*
X116693072Y-121488145D01*
X116483876Y-121993885D01*
X116253969Y-122552001D01*
X116042876Y-123069020D01*
X115856922Y-123529094D01*
X115702436Y-123916373D01*
X115585743Y-124215009D01*
X115513170Y-124409153D01*
X115490805Y-124481609D01*
X115546891Y-124564725D01*
X115693596Y-124697193D01*
X115889221Y-124843239D01*
X116446334Y-125305120D01*
X116881794Y-125834544D01*
X117190384Y-126420359D01*
X117366884Y-127051414D01*
X117406076Y-127716557D01*
X117377589Y-128023563D01*
X117222374Y-128660516D01*
X116955058Y-129222996D01*
X116592222Y-129705456D01*
X116150444Y-130102348D01*
X115646306Y-130408125D01*
X115096386Y-130617238D01*
X114517264Y-130724139D01*
X113925521Y-130723282D01*
X113337736Y-130609119D01*
X112770489Y-130376102D01*
X112240360Y-130018682D01*
X112019090Y-129816542D01*
X111594723Y-129297481D01*
X111299247Y-128730262D01*
X111130695Y-128131417D01*
X111087100Y-127517483D01*
X111166495Y-126904992D01*
X111366913Y-126310481D01*
X111686387Y-125750483D01*
X112122949Y-125241533D01*
X112610779Y-124843239D01*
X112813977Y-124690994D01*
X112957523Y-124559963D01*
X113009195Y-124481485D01*
X112982140Y-124395903D01*
X112905193Y-124191453D01*
X112784685Y-123883983D01*
X112626946Y-123489342D01*
X112438305Y-123023377D01*
X112225094Y-122501936D01*
X112015546Y-121993761D01*
X111784361Y-121435167D01*
X111570223Y-120917539D01*
X111379705Y-120456784D01*
X111219383Y-120068812D01*
X111095829Y-119769530D01*
X111015619Y-119574848D01*
X110985898Y-119502155D01*
X110915685Y-119428306D01*
X110779873Y-119428523D01*
X110560986Y-119506685D01*
X110241547Y-119666676D01*
X110239021Y-119668037D01*
X109998505Y-119792196D01*
X109804078Y-119882637D01*
X109694443Y-119921481D01*
X109689605Y-119921839D01*
X109607073Y-119882439D01*
X109424864Y-119772876D01*
X109163306Y-119606107D01*
X108842724Y-119395091D01*
X108487370Y-119155460D01*
X108125582Y-118912832D01*
X107799510Y-118701826D01*
X107530275Y-118535498D01*
X107338996Y-118426905D01*
X107247654Y-118389080D01*
X107163545Y-118438796D01*
X106994439Y-118577741D01*
X106757233Y-118790615D01*
X106468825Y-119062118D01*
X106146112Y-119376946D01*
X106040572Y-119482126D01*
X104949348Y-120575172D01*
X105779942Y-121794150D01*
X106032365Y-122168487D01*
X106253905Y-122504451D01*
X106432134Y-122782577D01*
X106554624Y-122983403D01*
X106608945Y-123087465D01*
X106610536Y-123094868D01*
X106581899Y-123192954D01*
X106504873Y-123390263D01*
X106392789Y-123653728D01*
X106314117Y-123830114D01*
X106167019Y-124167809D01*
X106028489Y-124508978D01*
X105921090Y-124797242D01*
X105891916Y-124885057D01*
X105809028Y-125119566D01*
X105728002Y-125300764D01*
X105683498Y-125369247D01*
X105585286Y-125411159D01*
X105370935Y-125470574D01*
X105068258Y-125540757D01*
X104705067Y-125614976D01*
X104542529Y-125645484D01*
X104129783Y-125721329D01*
X103733881Y-125794767D01*
X103393510Y-125858578D01*
X103147358Y-125905538D01*
X103101006Y-125914601D01*
X102717816Y-125990234D01*
X102717816Y-127585888D01*
X102718677Y-128110576D01*
X102722209Y-128507550D01*
X102729839Y-128795067D01*
X102742991Y-128991384D01*
X102763092Y-129114761D01*
X102791568Y-129183453D01*
X102829843Y-129215718D01*
X102845546Y-129221699D01*
X102940261Y-129242916D01*
X103149511Y-129285250D01*
X103446416Y-129343586D01*
X103804096Y-129412813D01*
X104195670Y-129487818D01*
X104594257Y-129563489D01*
X104972978Y-129634713D01*
X105304952Y-129696378D01*
X105563298Y-129743372D01*
X105721137Y-129770583D01*
X105756257Y-129775287D01*
X105788074Y-129838241D01*
X105858501Y-130005946D01*
X105954371Y-130246668D01*
X105990978Y-130340948D01*
X106138629Y-130705196D01*
X106312500Y-131107623D01*
X106468220Y-131446772D01*
X106582801Y-131706097D01*
X106659033Y-131919185D01*
X106684480Y-132049684D01*
X106680423Y-132067174D01*
X106626641Y-132149745D01*
X106503837Y-132333392D01*
X106325192Y-132598557D01*
X106103886Y-132925685D01*
X105853103Y-133295220D01*
X105803514Y-133368164D01*
X105512530Y-133800341D01*
X105298631Y-134129435D01*
X105153290Y-134370598D01*
X105067980Y-134538981D01*
X105034173Y-134649736D01*
X105043341Y-134718016D01*
X105043575Y-134718451D01*
X105115732Y-134808135D01*
X105275333Y-134981522D01*
X105505077Y-135220636D01*
X105787666Y-135507503D01*
X106105802Y-135824148D01*
X106141679Y-135859488D01*
X106542606Y-136247742D01*
X106852012Y-136532825D01*
X107076111Y-136719995D01*
X107221120Y-136814509D01*
X107284990Y-136826708D01*
X107378205Y-136773492D01*
X107571643Y-136650566D01*
X107845333Y-136471063D01*
X108179300Y-136248111D01*
X108553575Y-135994843D01*
X108640954Y-135935257D01*
X109881525Y-135088086D01*
X110441768Y-135342360D01*
X110782473Y-135490543D01*
X111148191Y-135639574D01*
X111462587Y-135758399D01*
X111476437Y-135763287D01*
X111722357Y-135853307D01*
X111911927Y-135929427D01*
X112004294Y-135975238D01*
X112004451Y-135975370D01*
X112033760Y-136058178D01*
X112083581Y-136261832D01*
X112148968Y-136563437D01*
X112224976Y-136940102D01*
X112306657Y-137368931D01*
X112313340Y-137405083D01*
X112395276Y-137846912D01*
X112470495Y-138247974D01*
X112534152Y-138582781D01*
X112581397Y-138825842D01*
X112607383Y-138951670D01*
X112607837Y-138953592D01*
X112623651Y-139007118D01*
X112654403Y-139047531D01*
X112718515Y-139076673D01*
X112834413Y-139096388D01*
X113020521Y-139108517D01*
X113295263Y-139114903D01*
X113677063Y-139117388D01*
X114184346Y-139117815D01*
X114250000Y-139117816D01*
X114772534Y-139117505D01*
G37*
X114772534Y-139117505D02*
X115167515Y-139115342D01*
X115453368Y-139109487D01*
X115648517Y-139098095D01*
X115771385Y-139079325D01*
X115840398Y-139051334D01*
X115873979Y-139012279D01*
X115890552Y-138960318D01*
X115892163Y-138953592D01*
X115917338Y-138832217D01*
X115963937Y-138592738D01*
X116027113Y-138260643D01*
X116102018Y-137861423D01*
X116183804Y-137420566D01*
X116186660Y-137405083D01*
X116268583Y-136973046D01*
X116345232Y-136591328D01*
X116411659Y-136282822D01*
X116462918Y-136070423D01*
X116494064Y-135977025D01*
X116495549Y-135975370D01*
X116587298Y-135929761D01*
X116776464Y-135853758D01*
X117022195Y-135763768D01*
X117023563Y-135763287D01*
X117333081Y-135646945D01*
X117697989Y-135498740D01*
X118041953Y-135349728D01*
X118058232Y-135342360D01*
X118618475Y-135088086D01*
X119859046Y-135935257D01*
X120239614Y-136193520D01*
X120584352Y-136424407D01*
X120873287Y-136614790D01*
X121086447Y-136751537D01*
X121203860Y-136821518D01*
X121215010Y-136826708D01*
X121300336Y-136803601D01*
X121459703Y-136692110D01*
X121699327Y-136486978D01*
X122025423Y-136182948D01*
X122358321Y-135859488D01*
X122679235Y-135540746D01*
X122966452Y-135249885D01*
X123202681Y-135004869D01*
X123370632Y-134823659D01*
X123453014Y-134724217D01*
X123456079Y-134719098D01*
X123465186Y-134650859D01*
X123430876Y-134539416D01*
X123344672Y-134369721D01*
X123198098Y-134126722D01*
X122982676Y-133795372D01*
X122695499Y-133368811D01*
X122440634Y-132993362D01*
X122212807Y-132656626D01*
X122025181Y-132378151D01*
X121890923Y-132177488D01*
X121823199Y-132074187D01*
X121818936Y-132067174D01*
X121827204Y-131968198D01*
X121889882Y-131775828D01*
X121994495Y-131526421D01*
X122031780Y-131446772D01*
X122194465Y-131091935D01*
X122368030Y-130689316D01*
X122509022Y-130340948D01*
X122610617Y-130082390D01*
X122691314Y-129885896D01*
X122737945Y-129783200D01*
X122743743Y-129775287D01*
X122829506Y-129762180D01*
X123031672Y-129726266D01*
X123323358Y-129672658D01*
X123677686Y-129606467D01*
X124067775Y-129532808D01*
X124466744Y-129456792D01*
X124847713Y-129383530D01*
X125183801Y-129318137D01*
X125448129Y-129265724D01*
X125613815Y-129231403D01*
X125654454Y-129221699D01*
X125696433Y-129197749D01*
X125728121Y-129143660D01*
X125750944Y-129041172D01*
X125766328Y-128872028D01*
X125775699Y-128617971D01*
X125780481Y-128260743D01*
X125782100Y-127782087D01*
X125782184Y-127585888D01*
X125782184Y-125990234D01*
X125398994Y-125914601D01*
X125185805Y-125873590D01*
X124867674Y-125813727D01*
X124483288Y-125742233D01*
X124071336Y-125666332D01*
X123957471Y-125645484D01*
X123577331Y-125571574D01*
X123246170Y-125498895D01*
X122991784Y-125434178D01*
X122841969Y-125384156D01*
X122817013Y-125369247D01*
X122755733Y-125263664D01*
X122667869Y-125059076D01*
X122570432Y-124795792D01*
X122551105Y-124739080D01*
X122423400Y-124387456D01*
X122264884Y-123990714D01*
X122109759Y-123634438D01*
X122108995Y-123632784D01*
X121850668Y-123073901D01*
X122700285Y-121824161D01*
X123549901Y-120574420D01*
X122459053Y-119481750D01*
X122129121Y-119156548D01*
X121828197Y-118869879D01*
X121573182Y-118637046D01*
X121380977Y-118473355D01*
X121268483Y-118394108D01*
X121252346Y-118389080D01*
X121157600Y-118428676D01*
X120964269Y-118538760D01*
X120693472Y-118706275D01*
X120366330Y-118918164D01*
X120012630Y-119155460D01*
X119653653Y-119397505D01*
X119333588Y-119608122D01*
X119072762Y-119774354D01*
X118891500Y-119883244D01*
X118810394Y-119921839D01*
X118711440Y-119889180D01*
X118523797Y-119803124D01*
X118286169Y-119681550D01*
X118260979Y-119668037D01*
X117940978Y-119507550D01*
X117721545Y-119428843D01*
X117585069Y-119428006D01*
X117513938Y-119501131D01*
X117513524Y-119502155D01*
X117477969Y-119588755D01*
X117393172Y-119794328D01*
X117265710Y-120102965D01*
X117102156Y-120498754D01*
X116909085Y-120965784D01*
X116693072Y-121488145D01*
X116483876Y-121993885D01*
X116253969Y-122552001D01*
X116042876Y-123069020D01*
X115856922Y-123529094D01*
X115702436Y-123916373D01*
X115585743Y-124215009D01*
X115513170Y-124409153D01*
X115490805Y-124481609D01*
X115546891Y-124564725D01*
X115693596Y-124697193D01*
X115889221Y-124843239D01*
X116446334Y-125305120D01*
X116881794Y-125834544D01*
X117190384Y-126420359D01*
X117366884Y-127051414D01*
X117406076Y-127716557D01*
X117377589Y-128023563D01*
X117222374Y-128660516D01*
X116955058Y-129222996D01*
X116592222Y-129705456D01*
X116150444Y-130102348D01*
X115646306Y-130408125D01*
X115096386Y-130617238D01*
X114517264Y-130724139D01*
X113925521Y-130723282D01*
X113337736Y-130609119D01*
X112770489Y-130376102D01*
X112240360Y-130018682D01*
X112019090Y-129816542D01*
X111594723Y-129297481D01*
X111299247Y-128730262D01*
X111130695Y-128131417D01*
X111087100Y-127517483D01*
X111166495Y-126904992D01*
X111366913Y-126310481D01*
X111686387Y-125750483D01*
X112122949Y-125241533D01*
X112610779Y-124843239D01*
X112813977Y-124690994D01*
X112957523Y-124559963D01*
X113009195Y-124481485D01*
X112982140Y-124395903D01*
X112905193Y-124191453D01*
X112784685Y-123883983D01*
X112626946Y-123489342D01*
X112438305Y-123023377D01*
X112225094Y-122501936D01*
X112015546Y-121993761D01*
X111784361Y-121435167D01*
X111570223Y-120917539D01*
X111379705Y-120456784D01*
X111219383Y-120068812D01*
X111095829Y-119769530D01*
X111015619Y-119574848D01*
X110985898Y-119502155D01*
X110915685Y-119428306D01*
X110779873Y-119428523D01*
X110560986Y-119506685D01*
X110241547Y-119666676D01*
X110239021Y-119668037D01*
X109998505Y-119792196D01*
X109804078Y-119882637D01*
X109694443Y-119921481D01*
X109689605Y-119921839D01*
X109607073Y-119882439D01*
X109424864Y-119772876D01*
X109163306Y-119606107D01*
X108842724Y-119395091D01*
X108487370Y-119155460D01*
X108125582Y-118912832D01*
X107799510Y-118701826D01*
X107530275Y-118535498D01*
X107338996Y-118426905D01*
X107247654Y-118389080D01*
X107163545Y-118438796D01*
X106994439Y-118577741D01*
X106757233Y-118790615D01*
X106468825Y-119062118D01*
X106146112Y-119376946D01*
X106040572Y-119482126D01*
X104949348Y-120575172D01*
X105779942Y-121794150D01*
X106032365Y-122168487D01*
X106253905Y-122504451D01*
X106432134Y-122782577D01*
X106554624Y-122983403D01*
X106608945Y-123087465D01*
X106610536Y-123094868D01*
X106581899Y-123192954D01*
X106504873Y-123390263D01*
X106392789Y-123653728D01*
X106314117Y-123830114D01*
X106167019Y-124167809D01*
X106028489Y-124508978D01*
X105921090Y-124797242D01*
X105891916Y-124885057D01*
X105809028Y-125119566D01*
X105728002Y-125300764D01*
X105683498Y-125369247D01*
X105585286Y-125411159D01*
X105370935Y-125470574D01*
X105068258Y-125540757D01*
X104705067Y-125614976D01*
X104542529Y-125645484D01*
X104129783Y-125721329D01*
X103733881Y-125794767D01*
X103393510Y-125858578D01*
X103147358Y-125905538D01*
X103101006Y-125914601D01*
X102717816Y-125990234D01*
X102717816Y-127585888D01*
X102718677Y-128110576D01*
X102722209Y-128507550D01*
X102729839Y-128795067D01*
X102742991Y-128991384D01*
X102763092Y-129114761D01*
X102791568Y-129183453D01*
X102829843Y-129215718D01*
X102845546Y-129221699D01*
X102940261Y-129242916D01*
X103149511Y-129285250D01*
X103446416Y-129343586D01*
X103804096Y-129412813D01*
X104195670Y-129487818D01*
X104594257Y-129563489D01*
X104972978Y-129634713D01*
X105304952Y-129696378D01*
X105563298Y-129743372D01*
X105721137Y-129770583D01*
X105756257Y-129775287D01*
X105788074Y-129838241D01*
X105858501Y-130005946D01*
X105954371Y-130246668D01*
X105990978Y-130340948D01*
X106138629Y-130705196D01*
X106312500Y-131107623D01*
X106468220Y-131446772D01*
X106582801Y-131706097D01*
X106659033Y-131919185D01*
X106684480Y-132049684D01*
X106680423Y-132067174D01*
X106626641Y-132149745D01*
X106503837Y-132333392D01*
X106325192Y-132598557D01*
X106103886Y-132925685D01*
X105853103Y-133295220D01*
X105803514Y-133368164D01*
X105512530Y-133800341D01*
X105298631Y-134129435D01*
X105153290Y-134370598D01*
X105067980Y-134538981D01*
X105034173Y-134649736D01*
X105043341Y-134718016D01*
X105043575Y-134718451D01*
X105115732Y-134808135D01*
X105275333Y-134981522D01*
X105505077Y-135220636D01*
X105787666Y-135507503D01*
X106105802Y-135824148D01*
X106141679Y-135859488D01*
X106542606Y-136247742D01*
X106852012Y-136532825D01*
X107076111Y-136719995D01*
X107221120Y-136814509D01*
X107284990Y-136826708D01*
X107378205Y-136773492D01*
X107571643Y-136650566D01*
X107845333Y-136471063D01*
X108179300Y-136248111D01*
X108553575Y-135994843D01*
X108640954Y-135935257D01*
X109881525Y-135088086D01*
X110441768Y-135342360D01*
X110782473Y-135490543D01*
X111148191Y-135639574D01*
X111462587Y-135758399D01*
X111476437Y-135763287D01*
X111722357Y-135853307D01*
X111911927Y-135929427D01*
X112004294Y-135975238D01*
X112004451Y-135975370D01*
X112033760Y-136058178D01*
X112083581Y-136261832D01*
X112148968Y-136563437D01*
X112224976Y-136940102D01*
X112306657Y-137368931D01*
X112313340Y-137405083D01*
X112395276Y-137846912D01*
X112470495Y-138247974D01*
X112534152Y-138582781D01*
X112581397Y-138825842D01*
X112607383Y-138951670D01*
X112607837Y-138953592D01*
X112623651Y-139007118D01*
X112654403Y-139047531D01*
X112718515Y-139076673D01*
X112834413Y-139096388D01*
X113020521Y-139108517D01*
X113295263Y-139114903D01*
X113677063Y-139117388D01*
X114184346Y-139117815D01*
X114250000Y-139117816D01*
X114772534Y-139117505D01*
D12*
X189825000Y-44037000D02*
X189825000Y-50317000D01*
X189825000Y-50317000D02*
X205775000Y-50317000D01*
X205775000Y-50317000D02*
X205775000Y-44037000D01*
X205775000Y-40837000D02*
X205775000Y-28397000D01*
X205775000Y-28397000D02*
X189825000Y-28397000D01*
X189825000Y-28397000D02*
X189825000Y-40837000D01*
X189625000Y-46727000D02*
X189625000Y-44727000D01*
X147103000Y-46893000D02*
X147103000Y-44893000D01*
X147303000Y-28563000D02*
X147303000Y-41003000D01*
X163253000Y-28563000D02*
X147303000Y-28563000D01*
X163253000Y-41003000D02*
X163253000Y-28563000D01*
X163253000Y-50483000D02*
X163253000Y-44203000D01*
X147303000Y-50483000D02*
X163253000Y-50483000D01*
X147303000Y-44203000D02*
X147303000Y-50483000D01*
X163453000Y-135698000D02*
X163453000Y-137698000D01*
X163253000Y-154028000D02*
X163253000Y-141588000D01*
X147303000Y-154028000D02*
X163253000Y-154028000D01*
X147303000Y-141588000D02*
X147303000Y-154028000D01*
X147303000Y-132108000D02*
X147303000Y-138388000D01*
X163253000Y-132108000D02*
X147303000Y-132108000D01*
X163253000Y-138388000D02*
X163253000Y-132108000D01*
X104179000Y-98493000D02*
X110459000Y-98493000D01*
X110459000Y-98493000D02*
X110459000Y-82543000D01*
X110459000Y-82543000D02*
X104179000Y-82543000D01*
X100979000Y-82543000D02*
X88539000Y-82543000D01*
X88539000Y-82543000D02*
X88539000Y-98493000D01*
X88539000Y-98493000D02*
X100979000Y-98493000D01*
X106869000Y-98693000D02*
X104869000Y-98693000D01*
M02*
