G04 #@! TF.GenerationSoftware,KiCad,Pcbnew,(5.1.6)-1*
G04 #@! TF.CreationDate,2020-06-16T21:04:05+02:00*
G04 #@! TF.ProjectId,ethernet-sniffer,65746865-726e-4657-942d-736e69666665,rev?*
G04 #@! TF.SameCoordinates,Original*
G04 #@! TF.FileFunction,Soldermask,Bot*
G04 #@! TF.FilePolarity,Negative*
%FSLAX46Y46*%
G04 Gerber Fmt 4.6, Leading zero omitted, Abs format (unit mm)*
G04 Created by KiCad (PCBNEW (5.1.6)-1) date 2020-06-16 21:04:05*
%MOMM*%
%LPD*%
G01*
G04 APERTURE LIST*
%ADD10C,0.100000*%
G04 APERTURE END LIST*
D10*
G36*
X161893521Y-146980275D02*
G01*
X161984152Y-147017816D01*
X162074783Y-147055356D01*
X162237913Y-147164356D01*
X162376644Y-147303087D01*
X162485644Y-147466217D01*
X162518015Y-147544369D01*
X162560725Y-147647479D01*
X162599000Y-147839901D01*
X162599000Y-148036099D01*
X162560725Y-148228521D01*
X162523184Y-148319153D01*
X162485644Y-148409783D01*
X162376644Y-148572913D01*
X162237913Y-148711644D01*
X162074783Y-148820644D01*
X161984152Y-148858184D01*
X161893521Y-148895725D01*
X161701099Y-148934000D01*
X161504901Y-148934000D01*
X161312479Y-148895725D01*
X161221848Y-148858184D01*
X161131217Y-148820644D01*
X160968087Y-148711644D01*
X160829356Y-148572913D01*
X160720356Y-148409783D01*
X160682816Y-148319153D01*
X160645275Y-148228521D01*
X160607000Y-148036099D01*
X160607000Y-147839901D01*
X160645275Y-147647479D01*
X160687985Y-147544369D01*
X160720356Y-147466217D01*
X160829356Y-147303087D01*
X160968087Y-147164356D01*
X161131217Y-147055356D01*
X161221848Y-147017816D01*
X161312479Y-146980275D01*
X161504901Y-146942000D01*
X161701099Y-146942000D01*
X161893521Y-146980275D01*
G37*
G36*
X151783521Y-146980275D02*
G01*
X151874152Y-147017816D01*
X151964783Y-147055356D01*
X152127913Y-147164356D01*
X152266644Y-147303087D01*
X152375644Y-147466217D01*
X152408015Y-147544369D01*
X152450725Y-147647479D01*
X152489000Y-147839901D01*
X152489000Y-148036099D01*
X152450725Y-148228521D01*
X152413184Y-148319153D01*
X152375644Y-148409783D01*
X152266644Y-148572913D01*
X152127913Y-148711644D01*
X151964783Y-148820644D01*
X151874152Y-148858184D01*
X151783521Y-148895725D01*
X151591099Y-148934000D01*
X151394901Y-148934000D01*
X151202479Y-148895725D01*
X151111848Y-148858184D01*
X151021217Y-148820644D01*
X150858087Y-148711644D01*
X150719356Y-148572913D01*
X150610356Y-148409783D01*
X150572816Y-148319153D01*
X150535275Y-148228521D01*
X150497000Y-148036099D01*
X150497000Y-147839901D01*
X150535275Y-147647479D01*
X150577985Y-147544369D01*
X150610356Y-147466217D01*
X150719356Y-147303087D01*
X150858087Y-147164356D01*
X151021217Y-147055356D01*
X151111848Y-147017816D01*
X151202479Y-146980275D01*
X151394901Y-146942000D01*
X151591099Y-146942000D01*
X151783521Y-146980275D01*
G37*
G36*
X207548156Y-139672794D02*
G01*
X208269140Y-139816206D01*
X209060972Y-140144193D01*
X209773601Y-140620357D01*
X210379643Y-141226399D01*
X210855807Y-141939028D01*
X211183794Y-142730860D01*
X211351000Y-143571464D01*
X211351000Y-144428536D01*
X211183794Y-145269140D01*
X210855807Y-146060972D01*
X210379643Y-146773601D01*
X209773601Y-147379643D01*
X209060972Y-147855807D01*
X208269140Y-148183794D01*
X207548156Y-148327206D01*
X207428537Y-148351000D01*
X206571463Y-148351000D01*
X206451844Y-148327206D01*
X205730860Y-148183794D01*
X204939028Y-147855807D01*
X204226399Y-147379643D01*
X203620357Y-146773601D01*
X203144193Y-146060972D01*
X202816206Y-145269140D01*
X202649000Y-144428536D01*
X202649000Y-143571464D01*
X202816206Y-142730860D01*
X203144193Y-141939028D01*
X203620357Y-141226399D01*
X204226399Y-140620357D01*
X204939028Y-140144193D01*
X205730860Y-139816206D01*
X206451844Y-139672794D01*
X206571463Y-139649000D01*
X207428537Y-139649000D01*
X207548156Y-139672794D01*
G37*
G36*
X99548156Y-139672794D02*
G01*
X100269140Y-139816206D01*
X101060972Y-140144193D01*
X101773601Y-140620357D01*
X102379643Y-141226399D01*
X102855807Y-141939028D01*
X103183794Y-142730860D01*
X103351000Y-143571464D01*
X103351000Y-144428536D01*
X103183794Y-145269140D01*
X102855807Y-146060972D01*
X102379643Y-146773601D01*
X101773601Y-147379643D01*
X101060972Y-147855807D01*
X100269140Y-148183794D01*
X99548156Y-148327206D01*
X99428537Y-148351000D01*
X98571463Y-148351000D01*
X98451844Y-148327206D01*
X97730860Y-148183794D01*
X96939028Y-147855807D01*
X96226399Y-147379643D01*
X95620357Y-146773601D01*
X95144193Y-146060972D01*
X94816206Y-145269140D01*
X94649000Y-144428536D01*
X94649000Y-143571464D01*
X94816206Y-142730860D01*
X95144193Y-141939028D01*
X95620357Y-141226399D01*
X96226399Y-140620357D01*
X96939028Y-140144193D01*
X97730860Y-139816206D01*
X98451844Y-139672794D01*
X98571463Y-139649000D01*
X99428537Y-139649000D01*
X99548156Y-139672794D01*
G37*
G36*
X149243521Y-145460275D02*
G01*
X149334153Y-145497816D01*
X149424783Y-145535356D01*
X149587913Y-145644356D01*
X149726644Y-145783087D01*
X149835644Y-145946217D01*
X149873184Y-146036848D01*
X149910725Y-146127479D01*
X149949000Y-146319901D01*
X149949000Y-146516099D01*
X149910725Y-146708521D01*
X149904313Y-146724000D01*
X149835644Y-146889783D01*
X149726644Y-147052913D01*
X149587913Y-147191644D01*
X149424783Y-147300644D01*
X149334153Y-147338184D01*
X149243521Y-147375725D01*
X149051099Y-147414000D01*
X148854901Y-147414000D01*
X148662479Y-147375725D01*
X148571847Y-147338184D01*
X148481217Y-147300644D01*
X148318087Y-147191644D01*
X148179356Y-147052913D01*
X148070356Y-146889783D01*
X148001687Y-146724000D01*
X147995275Y-146708521D01*
X147957000Y-146516099D01*
X147957000Y-146319901D01*
X147995275Y-146127479D01*
X148032816Y-146036848D01*
X148070356Y-145946217D01*
X148179356Y-145783087D01*
X148318087Y-145644356D01*
X148481217Y-145535356D01*
X148571847Y-145497816D01*
X148662479Y-145460275D01*
X148854901Y-145422000D01*
X149051099Y-145422000D01*
X149243521Y-145460275D01*
G37*
G36*
X159353521Y-145460275D02*
G01*
X159444153Y-145497816D01*
X159534783Y-145535356D01*
X159697913Y-145644356D01*
X159836644Y-145783087D01*
X159945644Y-145946217D01*
X159983184Y-146036848D01*
X160020725Y-146127479D01*
X160059000Y-146319901D01*
X160059000Y-146516099D01*
X160020725Y-146708521D01*
X160014313Y-146724000D01*
X159945644Y-146889783D01*
X159836644Y-147052913D01*
X159697913Y-147191644D01*
X159534783Y-147300644D01*
X159444153Y-147338184D01*
X159353521Y-147375725D01*
X159161099Y-147414000D01*
X158964901Y-147414000D01*
X158772479Y-147375725D01*
X158681847Y-147338184D01*
X158591217Y-147300644D01*
X158428087Y-147191644D01*
X158289356Y-147052913D01*
X158180356Y-146889783D01*
X158111687Y-146724000D01*
X158105275Y-146708521D01*
X158067000Y-146516099D01*
X158067000Y-146319901D01*
X158105275Y-146127479D01*
X158142816Y-146036848D01*
X158180356Y-145946217D01*
X158289356Y-145783087D01*
X158428087Y-145644356D01*
X158591217Y-145535356D01*
X158681847Y-145497816D01*
X158772479Y-145460275D01*
X158964901Y-145422000D01*
X159161099Y-145422000D01*
X159353521Y-145460275D01*
G37*
G36*
X161319971Y-141394204D02*
G01*
X161481871Y-141426408D01*
X161786883Y-141552748D01*
X162061387Y-141736166D01*
X162294834Y-141969613D01*
X162478252Y-142244117D01*
X162604592Y-142549129D01*
X162669000Y-142872928D01*
X162669000Y-143203072D01*
X162604592Y-143526871D01*
X162478252Y-143831883D01*
X162294834Y-144106387D01*
X162061387Y-144339834D01*
X161786883Y-144523252D01*
X161481871Y-144649592D01*
X161158073Y-144714000D01*
X160827927Y-144714000D01*
X160504129Y-144649592D01*
X160199117Y-144523252D01*
X159924613Y-144339834D01*
X159691166Y-144106387D01*
X159507748Y-143831883D01*
X159381408Y-143526871D01*
X159317000Y-143203072D01*
X159317000Y-142872928D01*
X159381408Y-142549129D01*
X159507748Y-142244117D01*
X159691166Y-141969613D01*
X159924613Y-141736166D01*
X160199117Y-141552748D01*
X160504129Y-141426408D01*
X160666029Y-141394204D01*
X160827927Y-141362000D01*
X161158073Y-141362000D01*
X161319971Y-141394204D01*
G37*
G36*
X149889971Y-141394204D02*
G01*
X150051871Y-141426408D01*
X150356883Y-141552748D01*
X150631387Y-141736166D01*
X150864834Y-141969613D01*
X151048252Y-142244117D01*
X151174592Y-142549129D01*
X151239000Y-142872928D01*
X151239000Y-143203072D01*
X151174592Y-143526871D01*
X151048252Y-143831883D01*
X150864834Y-144106387D01*
X150631387Y-144339834D01*
X150356883Y-144523252D01*
X150051871Y-144649592D01*
X149728073Y-144714000D01*
X149397927Y-144714000D01*
X149074129Y-144649592D01*
X148769117Y-144523252D01*
X148494613Y-144339834D01*
X148261166Y-144106387D01*
X148077748Y-143831883D01*
X147951408Y-143526871D01*
X147887000Y-143203072D01*
X147887000Y-142872928D01*
X147951408Y-142549129D01*
X148077748Y-142244117D01*
X148261166Y-141969613D01*
X148494613Y-141736166D01*
X148769117Y-141552748D01*
X149074129Y-141426408D01*
X149236029Y-141394204D01*
X149397927Y-141362000D01*
X149728073Y-141362000D01*
X149889971Y-141394204D01*
G37*
G36*
X163447072Y-138688918D02*
G01*
X163692939Y-138790759D01*
X163804328Y-138865187D01*
X163914211Y-138938609D01*
X164102391Y-139126789D01*
X164250242Y-139348063D01*
X164352082Y-139593928D01*
X164404000Y-139854937D01*
X164404000Y-140121063D01*
X164352082Y-140382072D01*
X164250242Y-140627937D01*
X164119007Y-140824344D01*
X164102390Y-140849212D01*
X163914212Y-141037390D01*
X163692939Y-141185241D01*
X163692938Y-141185242D01*
X163692937Y-141185242D01*
X163447072Y-141287082D01*
X163186063Y-141339000D01*
X162919937Y-141339000D01*
X162658928Y-141287082D01*
X162413063Y-141185242D01*
X162413062Y-141185242D01*
X162413061Y-141185241D01*
X162191788Y-141037390D01*
X162003610Y-140849212D01*
X161986994Y-140824344D01*
X161855758Y-140627937D01*
X161753918Y-140382072D01*
X161702000Y-140121063D01*
X161702000Y-139854937D01*
X161753918Y-139593928D01*
X161855758Y-139348063D01*
X162003609Y-139126789D01*
X162191789Y-138938609D01*
X162301672Y-138865187D01*
X162413061Y-138790759D01*
X162658928Y-138688918D01*
X162919937Y-138637000D01*
X163186063Y-138637000D01*
X163447072Y-138688918D01*
G37*
G36*
X147897072Y-138688918D02*
G01*
X148142939Y-138790759D01*
X148254328Y-138865187D01*
X148364211Y-138938609D01*
X148552391Y-139126789D01*
X148700242Y-139348063D01*
X148802082Y-139593928D01*
X148854000Y-139854937D01*
X148854000Y-140121063D01*
X148802082Y-140382072D01*
X148700242Y-140627937D01*
X148569007Y-140824344D01*
X148552390Y-140849212D01*
X148364212Y-141037390D01*
X148142939Y-141185241D01*
X148142938Y-141185242D01*
X148142937Y-141185242D01*
X147897072Y-141287082D01*
X147636063Y-141339000D01*
X147369937Y-141339000D01*
X147108928Y-141287082D01*
X146863063Y-141185242D01*
X146863062Y-141185242D01*
X146863061Y-141185241D01*
X146641788Y-141037390D01*
X146453610Y-140849212D01*
X146436994Y-140824344D01*
X146305758Y-140627937D01*
X146203918Y-140382072D01*
X146152000Y-140121063D01*
X146152000Y-139854937D01*
X146203918Y-139593928D01*
X146305758Y-139348063D01*
X146453609Y-139126789D01*
X146641789Y-138938609D01*
X146751672Y-138865187D01*
X146863061Y-138790759D01*
X147108928Y-138688918D01*
X147369937Y-138637000D01*
X147636063Y-138637000D01*
X147897072Y-138688918D01*
G37*
G36*
X160724000Y-137699000D02*
G01*
X158722000Y-137699000D01*
X158722000Y-135697000D01*
X160724000Y-135697000D01*
X160724000Y-137699000D01*
G37*
G36*
X157378285Y-135716234D02*
G01*
X157474981Y-135735468D01*
X157657151Y-135810926D01*
X157821100Y-135920473D01*
X157960527Y-136059900D01*
X158070074Y-136223849D01*
X158145532Y-136406019D01*
X158184000Y-136599410D01*
X158184000Y-136796590D01*
X158145532Y-136989981D01*
X158070074Y-137172151D01*
X157960527Y-137336100D01*
X157821100Y-137475527D01*
X157657151Y-137585074D01*
X157474981Y-137660532D01*
X157378285Y-137679766D01*
X157281591Y-137699000D01*
X157084409Y-137699000D01*
X156987715Y-137679766D01*
X156891019Y-137660532D01*
X156708849Y-137585074D01*
X156544900Y-137475527D01*
X156405473Y-137336100D01*
X156295926Y-137172151D01*
X156220468Y-136989981D01*
X156182000Y-136796590D01*
X156182000Y-136599410D01*
X156220468Y-136406019D01*
X156295926Y-136223849D01*
X156405473Y-136059900D01*
X156544900Y-135920473D01*
X156708849Y-135810926D01*
X156891019Y-135735468D01*
X156987715Y-135716234D01*
X157084409Y-135697000D01*
X157281591Y-135697000D01*
X157378285Y-135716234D01*
G37*
G36*
X154838285Y-135716234D02*
G01*
X154934981Y-135735468D01*
X155117151Y-135810926D01*
X155281100Y-135920473D01*
X155420527Y-136059900D01*
X155530074Y-136223849D01*
X155605532Y-136406019D01*
X155644000Y-136599410D01*
X155644000Y-136796590D01*
X155605532Y-136989981D01*
X155530074Y-137172151D01*
X155420527Y-137336100D01*
X155281100Y-137475527D01*
X155117151Y-137585074D01*
X154934981Y-137660532D01*
X154838285Y-137679766D01*
X154741591Y-137699000D01*
X154544409Y-137699000D01*
X154447715Y-137679766D01*
X154351019Y-137660532D01*
X154168849Y-137585074D01*
X154004900Y-137475527D01*
X153865473Y-137336100D01*
X153755926Y-137172151D01*
X153680468Y-136989981D01*
X153642000Y-136796590D01*
X153642000Y-136599410D01*
X153680468Y-136406019D01*
X153755926Y-136223849D01*
X153865473Y-136059900D01*
X154004900Y-135920473D01*
X154168849Y-135810926D01*
X154351019Y-135735468D01*
X154447715Y-135716234D01*
X154544409Y-135697000D01*
X154741591Y-135697000D01*
X154838285Y-135716234D01*
G37*
G36*
X152298285Y-135716234D02*
G01*
X152394981Y-135735468D01*
X152577151Y-135810926D01*
X152741100Y-135920473D01*
X152880527Y-136059900D01*
X152990074Y-136223849D01*
X153065532Y-136406019D01*
X153104000Y-136599410D01*
X153104000Y-136796590D01*
X153065532Y-136989981D01*
X152990074Y-137172151D01*
X152880527Y-137336100D01*
X152741100Y-137475527D01*
X152577151Y-137585074D01*
X152394981Y-137660532D01*
X152298285Y-137679766D01*
X152201591Y-137699000D01*
X152004409Y-137699000D01*
X151907715Y-137679766D01*
X151811019Y-137660532D01*
X151628849Y-137585074D01*
X151464900Y-137475527D01*
X151325473Y-137336100D01*
X151215926Y-137172151D01*
X151140468Y-136989981D01*
X151102000Y-136796590D01*
X151102000Y-136599410D01*
X151140468Y-136406019D01*
X151215926Y-136223849D01*
X151325473Y-136059900D01*
X151464900Y-135920473D01*
X151628849Y-135810926D01*
X151811019Y-135735468D01*
X151907715Y-135716234D01*
X152004409Y-135697000D01*
X152201591Y-135697000D01*
X152298285Y-135716234D01*
G37*
G36*
X158648285Y-133176234D02*
G01*
X158744981Y-133195468D01*
X158927151Y-133270926D01*
X159091100Y-133380473D01*
X159230527Y-133519900D01*
X159340074Y-133683849D01*
X159415532Y-133866019D01*
X159454000Y-134059410D01*
X159454000Y-134256590D01*
X159415532Y-134449981D01*
X159340074Y-134632151D01*
X159230527Y-134796100D01*
X159091100Y-134935527D01*
X158927151Y-135045074D01*
X158744981Y-135120532D01*
X158551591Y-135159000D01*
X158354409Y-135159000D01*
X158161019Y-135120532D01*
X157978849Y-135045074D01*
X157814900Y-134935527D01*
X157675473Y-134796100D01*
X157565926Y-134632151D01*
X157490468Y-134449981D01*
X157452000Y-134256590D01*
X157452000Y-134059410D01*
X157490468Y-133866019D01*
X157565926Y-133683849D01*
X157675473Y-133519900D01*
X157814900Y-133380473D01*
X157978849Y-133270926D01*
X158161019Y-133195468D01*
X158257715Y-133176234D01*
X158354409Y-133157000D01*
X158551591Y-133157000D01*
X158648285Y-133176234D01*
G37*
G36*
X156108285Y-133176234D02*
G01*
X156204981Y-133195468D01*
X156387151Y-133270926D01*
X156551100Y-133380473D01*
X156690527Y-133519900D01*
X156800074Y-133683849D01*
X156875532Y-133866019D01*
X156914000Y-134059410D01*
X156914000Y-134256590D01*
X156875532Y-134449981D01*
X156800074Y-134632151D01*
X156690527Y-134796100D01*
X156551100Y-134935527D01*
X156387151Y-135045074D01*
X156204981Y-135120532D01*
X156011591Y-135159000D01*
X155814409Y-135159000D01*
X155621019Y-135120532D01*
X155438849Y-135045074D01*
X155274900Y-134935527D01*
X155135473Y-134796100D01*
X155025926Y-134632151D01*
X154950468Y-134449981D01*
X154912000Y-134256590D01*
X154912000Y-134059410D01*
X154950468Y-133866019D01*
X155025926Y-133683849D01*
X155135473Y-133519900D01*
X155274900Y-133380473D01*
X155438849Y-133270926D01*
X155621019Y-133195468D01*
X155717715Y-133176234D01*
X155814409Y-133157000D01*
X156011591Y-133157000D01*
X156108285Y-133176234D01*
G37*
G36*
X153568285Y-133176234D02*
G01*
X153664981Y-133195468D01*
X153847151Y-133270926D01*
X154011100Y-133380473D01*
X154150527Y-133519900D01*
X154260074Y-133683849D01*
X154335532Y-133866019D01*
X154374000Y-134059410D01*
X154374000Y-134256590D01*
X154335532Y-134449981D01*
X154260074Y-134632151D01*
X154150527Y-134796100D01*
X154011100Y-134935527D01*
X153847151Y-135045074D01*
X153664981Y-135120532D01*
X153471591Y-135159000D01*
X153274409Y-135159000D01*
X153081019Y-135120532D01*
X152898849Y-135045074D01*
X152734900Y-134935527D01*
X152595473Y-134796100D01*
X152485926Y-134632151D01*
X152410468Y-134449981D01*
X152372000Y-134256590D01*
X152372000Y-134059410D01*
X152410468Y-133866019D01*
X152485926Y-133683849D01*
X152595473Y-133519900D01*
X152734900Y-133380473D01*
X152898849Y-133270926D01*
X153081019Y-133195468D01*
X153177715Y-133176234D01*
X153274409Y-133157000D01*
X153471591Y-133157000D01*
X153568285Y-133176234D01*
G37*
G36*
X151028285Y-133176234D02*
G01*
X151124981Y-133195468D01*
X151307151Y-133270926D01*
X151471100Y-133380473D01*
X151610527Y-133519900D01*
X151720074Y-133683849D01*
X151795532Y-133866019D01*
X151834000Y-134059410D01*
X151834000Y-134256590D01*
X151795532Y-134449981D01*
X151720074Y-134632151D01*
X151610527Y-134796100D01*
X151471100Y-134935527D01*
X151307151Y-135045074D01*
X151124981Y-135120532D01*
X150931591Y-135159000D01*
X150734409Y-135159000D01*
X150541019Y-135120532D01*
X150358849Y-135045074D01*
X150194900Y-134935527D01*
X150055473Y-134796100D01*
X149945926Y-134632151D01*
X149870468Y-134449981D01*
X149832000Y-134256590D01*
X149832000Y-134059410D01*
X149870468Y-133866019D01*
X149945926Y-133683849D01*
X150055473Y-133519900D01*
X150194900Y-133380473D01*
X150358849Y-133270926D01*
X150541019Y-133195468D01*
X150637715Y-133176234D01*
X150734409Y-133157000D01*
X150931591Y-133157000D01*
X151028285Y-133176234D01*
G37*
G36*
X189808512Y-117386927D02*
G01*
X189957812Y-117416624D01*
X190121784Y-117484544D01*
X190269354Y-117583147D01*
X190394853Y-117708646D01*
X190493456Y-117856216D01*
X190561376Y-118020188D01*
X190596000Y-118194259D01*
X190596000Y-118371741D01*
X190561376Y-118545812D01*
X190493456Y-118709784D01*
X190394853Y-118857354D01*
X190269354Y-118982853D01*
X190121784Y-119081456D01*
X189957812Y-119149376D01*
X189808512Y-119179073D01*
X189783742Y-119184000D01*
X189606258Y-119184000D01*
X189581488Y-119179073D01*
X189432188Y-119149376D01*
X189268216Y-119081456D01*
X189120646Y-118982853D01*
X188995147Y-118857354D01*
X188896544Y-118709784D01*
X188828624Y-118545812D01*
X188794000Y-118371741D01*
X188794000Y-118194259D01*
X188828624Y-118020188D01*
X188896544Y-117856216D01*
X188995147Y-117708646D01*
X189120646Y-117583147D01*
X189268216Y-117484544D01*
X189432188Y-117416624D01*
X189581488Y-117386927D01*
X189606258Y-117382000D01*
X189783742Y-117382000D01*
X189808512Y-117386927D01*
G37*
G36*
X177108512Y-117386927D02*
G01*
X177257812Y-117416624D01*
X177421784Y-117484544D01*
X177569354Y-117583147D01*
X177694853Y-117708646D01*
X177793456Y-117856216D01*
X177861376Y-118020188D01*
X177896000Y-118194259D01*
X177896000Y-118371741D01*
X177861376Y-118545812D01*
X177793456Y-118709784D01*
X177694853Y-118857354D01*
X177569354Y-118982853D01*
X177421784Y-119081456D01*
X177257812Y-119149376D01*
X177108512Y-119179073D01*
X177083742Y-119184000D01*
X176906258Y-119184000D01*
X176881488Y-119179073D01*
X176732188Y-119149376D01*
X176568216Y-119081456D01*
X176420646Y-118982853D01*
X176295147Y-118857354D01*
X176196544Y-118709784D01*
X176128624Y-118545812D01*
X176094000Y-118371741D01*
X176094000Y-118194259D01*
X176128624Y-118020188D01*
X176196544Y-117856216D01*
X176295147Y-117708646D01*
X176420646Y-117583147D01*
X176568216Y-117484544D01*
X176732188Y-117416624D01*
X176881488Y-117386927D01*
X176906258Y-117382000D01*
X177083742Y-117382000D01*
X177108512Y-117386927D01*
G37*
G36*
X179648512Y-117386927D02*
G01*
X179797812Y-117416624D01*
X179961784Y-117484544D01*
X180109354Y-117583147D01*
X180234853Y-117708646D01*
X180333456Y-117856216D01*
X180401376Y-118020188D01*
X180436000Y-118194259D01*
X180436000Y-118371741D01*
X180401376Y-118545812D01*
X180333456Y-118709784D01*
X180234853Y-118857354D01*
X180109354Y-118982853D01*
X179961784Y-119081456D01*
X179797812Y-119149376D01*
X179648512Y-119179073D01*
X179623742Y-119184000D01*
X179446258Y-119184000D01*
X179421488Y-119179073D01*
X179272188Y-119149376D01*
X179108216Y-119081456D01*
X178960646Y-118982853D01*
X178835147Y-118857354D01*
X178736544Y-118709784D01*
X178668624Y-118545812D01*
X178634000Y-118371741D01*
X178634000Y-118194259D01*
X178668624Y-118020188D01*
X178736544Y-117856216D01*
X178835147Y-117708646D01*
X178960646Y-117583147D01*
X179108216Y-117484544D01*
X179272188Y-117416624D01*
X179421488Y-117386927D01*
X179446258Y-117382000D01*
X179623742Y-117382000D01*
X179648512Y-117386927D01*
G37*
G36*
X182188512Y-117386927D02*
G01*
X182337812Y-117416624D01*
X182501784Y-117484544D01*
X182649354Y-117583147D01*
X182774853Y-117708646D01*
X182873456Y-117856216D01*
X182941376Y-118020188D01*
X182976000Y-118194259D01*
X182976000Y-118371741D01*
X182941376Y-118545812D01*
X182873456Y-118709784D01*
X182774853Y-118857354D01*
X182649354Y-118982853D01*
X182501784Y-119081456D01*
X182337812Y-119149376D01*
X182188512Y-119179073D01*
X182163742Y-119184000D01*
X181986258Y-119184000D01*
X181961488Y-119179073D01*
X181812188Y-119149376D01*
X181648216Y-119081456D01*
X181500646Y-118982853D01*
X181375147Y-118857354D01*
X181276544Y-118709784D01*
X181208624Y-118545812D01*
X181174000Y-118371741D01*
X181174000Y-118194259D01*
X181208624Y-118020188D01*
X181276544Y-117856216D01*
X181375147Y-117708646D01*
X181500646Y-117583147D01*
X181648216Y-117484544D01*
X181812188Y-117416624D01*
X181961488Y-117386927D01*
X181986258Y-117382000D01*
X182163742Y-117382000D01*
X182188512Y-117386927D01*
G37*
G36*
X184728512Y-117386927D02*
G01*
X184877812Y-117416624D01*
X185041784Y-117484544D01*
X185189354Y-117583147D01*
X185314853Y-117708646D01*
X185413456Y-117856216D01*
X185481376Y-118020188D01*
X185516000Y-118194259D01*
X185516000Y-118371741D01*
X185481376Y-118545812D01*
X185413456Y-118709784D01*
X185314853Y-118857354D01*
X185189354Y-118982853D01*
X185041784Y-119081456D01*
X184877812Y-119149376D01*
X184728512Y-119179073D01*
X184703742Y-119184000D01*
X184526258Y-119184000D01*
X184501488Y-119179073D01*
X184352188Y-119149376D01*
X184188216Y-119081456D01*
X184040646Y-118982853D01*
X183915147Y-118857354D01*
X183816544Y-118709784D01*
X183748624Y-118545812D01*
X183714000Y-118371741D01*
X183714000Y-118194259D01*
X183748624Y-118020188D01*
X183816544Y-117856216D01*
X183915147Y-117708646D01*
X184040646Y-117583147D01*
X184188216Y-117484544D01*
X184352188Y-117416624D01*
X184501488Y-117386927D01*
X184526258Y-117382000D01*
X184703742Y-117382000D01*
X184728512Y-117386927D01*
G37*
G36*
X187268512Y-117386927D02*
G01*
X187417812Y-117416624D01*
X187581784Y-117484544D01*
X187729354Y-117583147D01*
X187854853Y-117708646D01*
X187953456Y-117856216D01*
X188021376Y-118020188D01*
X188056000Y-118194259D01*
X188056000Y-118371741D01*
X188021376Y-118545812D01*
X187953456Y-118709784D01*
X187854853Y-118857354D01*
X187729354Y-118982853D01*
X187581784Y-119081456D01*
X187417812Y-119149376D01*
X187268512Y-119179073D01*
X187243742Y-119184000D01*
X187066258Y-119184000D01*
X187041488Y-119179073D01*
X186892188Y-119149376D01*
X186728216Y-119081456D01*
X186580646Y-118982853D01*
X186455147Y-118857354D01*
X186356544Y-118709784D01*
X186288624Y-118545812D01*
X186254000Y-118371741D01*
X186254000Y-118194259D01*
X186288624Y-118020188D01*
X186356544Y-117856216D01*
X186455147Y-117708646D01*
X186580646Y-117583147D01*
X186728216Y-117484544D01*
X186892188Y-117416624D01*
X187041488Y-117386927D01*
X187066258Y-117382000D01*
X187243742Y-117382000D01*
X187268512Y-117386927D01*
G37*
G36*
X192348512Y-117386927D02*
G01*
X192497812Y-117416624D01*
X192661784Y-117484544D01*
X192809354Y-117583147D01*
X192934853Y-117708646D01*
X193033456Y-117856216D01*
X193101376Y-118020188D01*
X193136000Y-118194259D01*
X193136000Y-118371741D01*
X193101376Y-118545812D01*
X193033456Y-118709784D01*
X192934853Y-118857354D01*
X192809354Y-118982853D01*
X192661784Y-119081456D01*
X192497812Y-119149376D01*
X192348512Y-119179073D01*
X192323742Y-119184000D01*
X192146258Y-119184000D01*
X192121488Y-119179073D01*
X191972188Y-119149376D01*
X191808216Y-119081456D01*
X191660646Y-118982853D01*
X191535147Y-118857354D01*
X191436544Y-118709784D01*
X191368624Y-118545812D01*
X191334000Y-118371741D01*
X191334000Y-118194259D01*
X191368624Y-118020188D01*
X191436544Y-117856216D01*
X191535147Y-117708646D01*
X191660646Y-117583147D01*
X191808216Y-117484544D01*
X191972188Y-117416624D01*
X192121488Y-117386927D01*
X192146258Y-117382000D01*
X192323742Y-117382000D01*
X192348512Y-117386927D01*
G37*
G36*
X175356000Y-119184000D02*
G01*
X173554000Y-119184000D01*
X173554000Y-117382000D01*
X175356000Y-117382000D01*
X175356000Y-119184000D01*
G37*
G36*
X210113512Y-117133927D02*
G01*
X210262812Y-117163624D01*
X210426784Y-117231544D01*
X210574354Y-117330147D01*
X210699853Y-117455646D01*
X210798456Y-117603216D01*
X210866376Y-117767188D01*
X210901000Y-117941259D01*
X210901000Y-118118741D01*
X210866376Y-118292812D01*
X210798456Y-118456784D01*
X210699853Y-118604354D01*
X210574354Y-118729853D01*
X210426784Y-118828456D01*
X210262812Y-118896376D01*
X210113512Y-118926073D01*
X210088742Y-118931000D01*
X209911258Y-118931000D01*
X209886488Y-118926073D01*
X209737188Y-118896376D01*
X209573216Y-118828456D01*
X209425646Y-118729853D01*
X209300147Y-118604354D01*
X209201544Y-118456784D01*
X209133624Y-118292812D01*
X209099000Y-118118741D01*
X209099000Y-117941259D01*
X209133624Y-117767188D01*
X209201544Y-117603216D01*
X209300147Y-117455646D01*
X209425646Y-117330147D01*
X209573216Y-117231544D01*
X209737188Y-117163624D01*
X209886488Y-117133927D01*
X209911258Y-117129000D01*
X210088742Y-117129000D01*
X210113512Y-117133927D01*
G37*
G36*
X210113512Y-114593927D02*
G01*
X210262812Y-114623624D01*
X210426784Y-114691544D01*
X210574354Y-114790147D01*
X210699853Y-114915646D01*
X210798456Y-115063216D01*
X210866376Y-115227188D01*
X210901000Y-115401259D01*
X210901000Y-115578741D01*
X210866376Y-115752812D01*
X210798456Y-115916784D01*
X210699853Y-116064354D01*
X210574354Y-116189853D01*
X210426784Y-116288456D01*
X210262812Y-116356376D01*
X210113512Y-116386073D01*
X210088742Y-116391000D01*
X209911258Y-116391000D01*
X209886488Y-116386073D01*
X209737188Y-116356376D01*
X209573216Y-116288456D01*
X209425646Y-116189853D01*
X209300147Y-116064354D01*
X209201544Y-115916784D01*
X209133624Y-115752812D01*
X209099000Y-115578741D01*
X209099000Y-115401259D01*
X209133624Y-115227188D01*
X209201544Y-115063216D01*
X209300147Y-114915646D01*
X209425646Y-114790147D01*
X209573216Y-114691544D01*
X209737188Y-114623624D01*
X209886488Y-114593927D01*
X209911258Y-114589000D01*
X210088742Y-114589000D01*
X210113512Y-114593927D01*
G37*
G36*
X198698512Y-112433927D02*
G01*
X198847812Y-112463624D01*
X199011784Y-112531544D01*
X199159354Y-112630147D01*
X199284853Y-112755646D01*
X199383456Y-112903216D01*
X199451376Y-113067188D01*
X199486000Y-113241259D01*
X199486000Y-113418741D01*
X199451376Y-113592812D01*
X199383456Y-113756784D01*
X199284853Y-113904354D01*
X199159354Y-114029853D01*
X199011784Y-114128456D01*
X198847812Y-114196376D01*
X198698512Y-114226073D01*
X198673742Y-114231000D01*
X198496258Y-114231000D01*
X198471488Y-114226073D01*
X198322188Y-114196376D01*
X198158216Y-114128456D01*
X198010646Y-114029853D01*
X197885147Y-113904354D01*
X197786544Y-113756784D01*
X197718624Y-113592812D01*
X197684000Y-113418741D01*
X197684000Y-113241259D01*
X197718624Y-113067188D01*
X197786544Y-112903216D01*
X197885147Y-112755646D01*
X198010646Y-112630147D01*
X198158216Y-112531544D01*
X198322188Y-112463624D01*
X198471488Y-112433927D01*
X198496258Y-112429000D01*
X198673742Y-112429000D01*
X198698512Y-112433927D01*
G37*
G36*
X194406000Y-114231000D02*
G01*
X192604000Y-114231000D01*
X192604000Y-112429000D01*
X194406000Y-112429000D01*
X194406000Y-114231000D01*
G37*
G36*
X196158512Y-112433927D02*
G01*
X196307812Y-112463624D01*
X196471784Y-112531544D01*
X196619354Y-112630147D01*
X196744853Y-112755646D01*
X196843456Y-112903216D01*
X196911376Y-113067188D01*
X196946000Y-113241259D01*
X196946000Y-113418741D01*
X196911376Y-113592812D01*
X196843456Y-113756784D01*
X196744853Y-113904354D01*
X196619354Y-114029853D01*
X196471784Y-114128456D01*
X196307812Y-114196376D01*
X196158512Y-114226073D01*
X196133742Y-114231000D01*
X195956258Y-114231000D01*
X195931488Y-114226073D01*
X195782188Y-114196376D01*
X195618216Y-114128456D01*
X195470646Y-114029853D01*
X195345147Y-113904354D01*
X195246544Y-113756784D01*
X195178624Y-113592812D01*
X195144000Y-113418741D01*
X195144000Y-113241259D01*
X195178624Y-113067188D01*
X195246544Y-112903216D01*
X195345147Y-112755646D01*
X195470646Y-112630147D01*
X195618216Y-112531544D01*
X195782188Y-112463624D01*
X195931488Y-112433927D01*
X195956258Y-112429000D01*
X196133742Y-112429000D01*
X196158512Y-112433927D01*
G37*
G36*
X210113512Y-112053927D02*
G01*
X210262812Y-112083624D01*
X210426784Y-112151544D01*
X210574354Y-112250147D01*
X210699853Y-112375646D01*
X210798456Y-112523216D01*
X210866376Y-112687188D01*
X210901000Y-112861259D01*
X210901000Y-113038741D01*
X210866376Y-113212812D01*
X210798456Y-113376784D01*
X210699853Y-113524354D01*
X210574354Y-113649853D01*
X210426784Y-113748456D01*
X210262812Y-113816376D01*
X210113512Y-113846073D01*
X210088742Y-113851000D01*
X209911258Y-113851000D01*
X209886488Y-113846073D01*
X209737188Y-113816376D01*
X209573216Y-113748456D01*
X209425646Y-113649853D01*
X209300147Y-113524354D01*
X209201544Y-113376784D01*
X209133624Y-113212812D01*
X209099000Y-113038741D01*
X209099000Y-112861259D01*
X209133624Y-112687188D01*
X209201544Y-112523216D01*
X209300147Y-112375646D01*
X209425646Y-112250147D01*
X209573216Y-112151544D01*
X209737188Y-112083624D01*
X209886488Y-112053927D01*
X209911258Y-112049000D01*
X210088742Y-112049000D01*
X210113512Y-112053927D01*
G37*
G36*
X185046012Y-111862427D02*
G01*
X185195312Y-111892124D01*
X185359284Y-111960044D01*
X185506854Y-112058647D01*
X185632353Y-112184146D01*
X185730956Y-112331716D01*
X185798876Y-112495688D01*
X185833500Y-112669759D01*
X185833500Y-112847241D01*
X185798876Y-113021312D01*
X185730956Y-113185284D01*
X185632353Y-113332854D01*
X185506854Y-113458353D01*
X185359284Y-113556956D01*
X185195312Y-113624876D01*
X185046012Y-113654573D01*
X185021242Y-113659500D01*
X184843758Y-113659500D01*
X184818988Y-113654573D01*
X184669688Y-113624876D01*
X184505716Y-113556956D01*
X184358146Y-113458353D01*
X184232647Y-113332854D01*
X184134044Y-113185284D01*
X184066124Y-113021312D01*
X184031500Y-112847241D01*
X184031500Y-112669759D01*
X184066124Y-112495688D01*
X184134044Y-112331716D01*
X184232647Y-112184146D01*
X184358146Y-112058647D01*
X184505716Y-111960044D01*
X184669688Y-111892124D01*
X184818988Y-111862427D01*
X184843758Y-111857500D01*
X185021242Y-111857500D01*
X185046012Y-111862427D01*
G37*
G36*
X188373500Y-113659500D02*
G01*
X186571500Y-113659500D01*
X186571500Y-111857500D01*
X188373500Y-111857500D01*
X188373500Y-113659500D01*
G37*
G36*
X210113512Y-109513927D02*
G01*
X210262812Y-109543624D01*
X210426784Y-109611544D01*
X210574354Y-109710147D01*
X210699853Y-109835646D01*
X210798456Y-109983216D01*
X210866376Y-110147188D01*
X210901000Y-110321259D01*
X210901000Y-110498741D01*
X210866376Y-110672812D01*
X210798456Y-110836784D01*
X210699853Y-110984354D01*
X210574354Y-111109853D01*
X210426784Y-111208456D01*
X210262812Y-111276376D01*
X210113512Y-111306073D01*
X210088742Y-111311000D01*
X209911258Y-111311000D01*
X209886488Y-111306073D01*
X209737188Y-111276376D01*
X209573216Y-111208456D01*
X209425646Y-111109853D01*
X209300147Y-110984354D01*
X209201544Y-110836784D01*
X209133624Y-110672812D01*
X209099000Y-110498741D01*
X209099000Y-110321259D01*
X209133624Y-110147188D01*
X209201544Y-109983216D01*
X209300147Y-109835646D01*
X209425646Y-109710147D01*
X209573216Y-109611544D01*
X209737188Y-109543624D01*
X209886488Y-109513927D01*
X209911258Y-109509000D01*
X210088742Y-109509000D01*
X210113512Y-109513927D01*
G37*
G36*
X185046012Y-109322427D02*
G01*
X185195312Y-109352124D01*
X185359284Y-109420044D01*
X185506854Y-109518647D01*
X185632353Y-109644146D01*
X185730956Y-109791716D01*
X185798876Y-109955688D01*
X185833500Y-110129759D01*
X185833500Y-110307241D01*
X185798876Y-110481312D01*
X185730956Y-110645284D01*
X185632353Y-110792854D01*
X185506854Y-110918353D01*
X185359284Y-111016956D01*
X185195312Y-111084876D01*
X185046012Y-111114573D01*
X185021242Y-111119500D01*
X184843758Y-111119500D01*
X184818988Y-111114573D01*
X184669688Y-111084876D01*
X184505716Y-111016956D01*
X184358146Y-110918353D01*
X184232647Y-110792854D01*
X184134044Y-110645284D01*
X184066124Y-110481312D01*
X184031500Y-110307241D01*
X184031500Y-110129759D01*
X184066124Y-109955688D01*
X184134044Y-109791716D01*
X184232647Y-109644146D01*
X184358146Y-109518647D01*
X184505716Y-109420044D01*
X184669688Y-109352124D01*
X184818988Y-109322427D01*
X184843758Y-109317500D01*
X185021242Y-109317500D01*
X185046012Y-109322427D01*
G37*
G36*
X187586012Y-109322427D02*
G01*
X187735312Y-109352124D01*
X187899284Y-109420044D01*
X188046854Y-109518647D01*
X188172353Y-109644146D01*
X188270956Y-109791716D01*
X188338876Y-109955688D01*
X188373500Y-110129759D01*
X188373500Y-110307241D01*
X188338876Y-110481312D01*
X188270956Y-110645284D01*
X188172353Y-110792854D01*
X188046854Y-110918353D01*
X187899284Y-111016956D01*
X187735312Y-111084876D01*
X187586012Y-111114573D01*
X187561242Y-111119500D01*
X187383758Y-111119500D01*
X187358988Y-111114573D01*
X187209688Y-111084876D01*
X187045716Y-111016956D01*
X186898146Y-110918353D01*
X186772647Y-110792854D01*
X186674044Y-110645284D01*
X186606124Y-110481312D01*
X186571500Y-110307241D01*
X186571500Y-110129759D01*
X186606124Y-109955688D01*
X186674044Y-109791716D01*
X186772647Y-109644146D01*
X186898146Y-109518647D01*
X187045716Y-109420044D01*
X187209688Y-109352124D01*
X187358988Y-109322427D01*
X187383758Y-109317500D01*
X187561242Y-109317500D01*
X187586012Y-109322427D01*
G37*
G36*
X194406000Y-110548000D02*
G01*
X192604000Y-110548000D01*
X192604000Y-108746000D01*
X194406000Y-108746000D01*
X194406000Y-110548000D01*
G37*
G36*
X196158512Y-108750927D02*
G01*
X196307812Y-108780624D01*
X196471784Y-108848544D01*
X196619354Y-108947147D01*
X196744853Y-109072646D01*
X196843456Y-109220216D01*
X196911376Y-109384188D01*
X196946000Y-109558259D01*
X196946000Y-109735741D01*
X196911376Y-109909812D01*
X196843456Y-110073784D01*
X196744853Y-110221354D01*
X196619354Y-110346853D01*
X196471784Y-110445456D01*
X196307812Y-110513376D01*
X196158512Y-110543073D01*
X196133742Y-110548000D01*
X195956258Y-110548000D01*
X195931488Y-110543073D01*
X195782188Y-110513376D01*
X195618216Y-110445456D01*
X195470646Y-110346853D01*
X195345147Y-110221354D01*
X195246544Y-110073784D01*
X195178624Y-109909812D01*
X195144000Y-109735741D01*
X195144000Y-109558259D01*
X195178624Y-109384188D01*
X195246544Y-109220216D01*
X195345147Y-109072646D01*
X195470646Y-108947147D01*
X195618216Y-108848544D01*
X195782188Y-108780624D01*
X195931488Y-108750927D01*
X195956258Y-108746000D01*
X196133742Y-108746000D01*
X196158512Y-108750927D01*
G37*
G36*
X198698512Y-108750927D02*
G01*
X198847812Y-108780624D01*
X199011784Y-108848544D01*
X199159354Y-108947147D01*
X199284853Y-109072646D01*
X199383456Y-109220216D01*
X199451376Y-109384188D01*
X199486000Y-109558259D01*
X199486000Y-109735741D01*
X199451376Y-109909812D01*
X199383456Y-110073784D01*
X199284853Y-110221354D01*
X199159354Y-110346853D01*
X199011784Y-110445456D01*
X198847812Y-110513376D01*
X198698512Y-110543073D01*
X198673742Y-110548000D01*
X198496258Y-110548000D01*
X198471488Y-110543073D01*
X198322188Y-110513376D01*
X198158216Y-110445456D01*
X198010646Y-110346853D01*
X197885147Y-110221354D01*
X197786544Y-110073784D01*
X197718624Y-109909812D01*
X197684000Y-109735741D01*
X197684000Y-109558259D01*
X197718624Y-109384188D01*
X197786544Y-109220216D01*
X197885147Y-109072646D01*
X198010646Y-108947147D01*
X198158216Y-108848544D01*
X198322188Y-108780624D01*
X198471488Y-108750927D01*
X198496258Y-108746000D01*
X198673742Y-108746000D01*
X198698512Y-108750927D01*
G37*
G36*
X210113512Y-106973927D02*
G01*
X210262812Y-107003624D01*
X210426784Y-107071544D01*
X210574354Y-107170147D01*
X210699853Y-107295646D01*
X210798456Y-107443216D01*
X210866376Y-107607188D01*
X210901000Y-107781259D01*
X210901000Y-107958741D01*
X210866376Y-108132812D01*
X210798456Y-108296784D01*
X210699853Y-108444354D01*
X210574354Y-108569853D01*
X210426784Y-108668456D01*
X210262812Y-108736376D01*
X210113512Y-108766073D01*
X210088742Y-108771000D01*
X209911258Y-108771000D01*
X209886488Y-108766073D01*
X209737188Y-108736376D01*
X209573216Y-108668456D01*
X209425646Y-108569853D01*
X209300147Y-108444354D01*
X209201544Y-108296784D01*
X209133624Y-108132812D01*
X209099000Y-107958741D01*
X209099000Y-107781259D01*
X209133624Y-107607188D01*
X209201544Y-107443216D01*
X209300147Y-107295646D01*
X209425646Y-107170147D01*
X209573216Y-107071544D01*
X209737188Y-107003624D01*
X209886488Y-106973927D01*
X209911258Y-106969000D01*
X210088742Y-106969000D01*
X210113512Y-106973927D01*
G37*
G36*
X187586012Y-106782427D02*
G01*
X187735312Y-106812124D01*
X187899284Y-106880044D01*
X188046854Y-106978647D01*
X188172353Y-107104146D01*
X188270956Y-107251716D01*
X188338876Y-107415688D01*
X188373500Y-107589759D01*
X188373500Y-107767241D01*
X188338876Y-107941312D01*
X188270956Y-108105284D01*
X188172353Y-108252854D01*
X188046854Y-108378353D01*
X187899284Y-108476956D01*
X187735312Y-108544876D01*
X187586012Y-108574573D01*
X187561242Y-108579500D01*
X187383758Y-108579500D01*
X187358988Y-108574573D01*
X187209688Y-108544876D01*
X187045716Y-108476956D01*
X186898146Y-108378353D01*
X186772647Y-108252854D01*
X186674044Y-108105284D01*
X186606124Y-107941312D01*
X186571500Y-107767241D01*
X186571500Y-107589759D01*
X186606124Y-107415688D01*
X186674044Y-107251716D01*
X186772647Y-107104146D01*
X186898146Y-106978647D01*
X187045716Y-106880044D01*
X187209688Y-106812124D01*
X187358988Y-106782427D01*
X187383758Y-106777500D01*
X187561242Y-106777500D01*
X187586012Y-106782427D01*
G37*
G36*
X185046012Y-106782427D02*
G01*
X185195312Y-106812124D01*
X185359284Y-106880044D01*
X185506854Y-106978647D01*
X185632353Y-107104146D01*
X185730956Y-107251716D01*
X185798876Y-107415688D01*
X185833500Y-107589759D01*
X185833500Y-107767241D01*
X185798876Y-107941312D01*
X185730956Y-108105284D01*
X185632353Y-108252854D01*
X185506854Y-108378353D01*
X185359284Y-108476956D01*
X185195312Y-108544876D01*
X185046012Y-108574573D01*
X185021242Y-108579500D01*
X184843758Y-108579500D01*
X184818988Y-108574573D01*
X184669688Y-108544876D01*
X184505716Y-108476956D01*
X184358146Y-108378353D01*
X184232647Y-108252854D01*
X184134044Y-108105284D01*
X184066124Y-107941312D01*
X184031500Y-107767241D01*
X184031500Y-107589759D01*
X184066124Y-107415688D01*
X184134044Y-107251716D01*
X184232647Y-107104146D01*
X184358146Y-106978647D01*
X184505716Y-106880044D01*
X184669688Y-106812124D01*
X184818988Y-106782427D01*
X184843758Y-106777500D01*
X185021242Y-106777500D01*
X185046012Y-106782427D01*
G37*
G36*
X210113512Y-104433927D02*
G01*
X210262812Y-104463624D01*
X210426784Y-104531544D01*
X210574354Y-104630147D01*
X210699853Y-104755646D01*
X210798456Y-104903216D01*
X210866376Y-105067188D01*
X210901000Y-105241259D01*
X210901000Y-105418741D01*
X210866376Y-105592812D01*
X210798456Y-105756784D01*
X210699853Y-105904354D01*
X210574354Y-106029853D01*
X210426784Y-106128456D01*
X210262812Y-106196376D01*
X210113512Y-106226073D01*
X210088742Y-106231000D01*
X209911258Y-106231000D01*
X209886488Y-106226073D01*
X209737188Y-106196376D01*
X209573216Y-106128456D01*
X209425646Y-106029853D01*
X209300147Y-105904354D01*
X209201544Y-105756784D01*
X209133624Y-105592812D01*
X209099000Y-105418741D01*
X209099000Y-105241259D01*
X209133624Y-105067188D01*
X209201544Y-104903216D01*
X209300147Y-104755646D01*
X209425646Y-104630147D01*
X209573216Y-104531544D01*
X209737188Y-104463624D01*
X209886488Y-104433927D01*
X209911258Y-104429000D01*
X210088742Y-104429000D01*
X210113512Y-104433927D01*
G37*
G36*
X185046012Y-104242427D02*
G01*
X185195312Y-104272124D01*
X185359284Y-104340044D01*
X185506854Y-104438647D01*
X185632353Y-104564146D01*
X185730956Y-104711716D01*
X185798876Y-104875688D01*
X185833500Y-105049759D01*
X185833500Y-105227241D01*
X185798876Y-105401312D01*
X185730956Y-105565284D01*
X185632353Y-105712854D01*
X185506854Y-105838353D01*
X185359284Y-105936956D01*
X185195312Y-106004876D01*
X185046012Y-106034573D01*
X185021242Y-106039500D01*
X184843758Y-106039500D01*
X184818988Y-106034573D01*
X184669688Y-106004876D01*
X184505716Y-105936956D01*
X184358146Y-105838353D01*
X184232647Y-105712854D01*
X184134044Y-105565284D01*
X184066124Y-105401312D01*
X184031500Y-105227241D01*
X184031500Y-105049759D01*
X184066124Y-104875688D01*
X184134044Y-104711716D01*
X184232647Y-104564146D01*
X184358146Y-104438647D01*
X184505716Y-104340044D01*
X184669688Y-104272124D01*
X184818988Y-104242427D01*
X184843758Y-104237500D01*
X185021242Y-104237500D01*
X185046012Y-104242427D01*
G37*
G36*
X187586012Y-104242427D02*
G01*
X187735312Y-104272124D01*
X187899284Y-104340044D01*
X188046854Y-104438647D01*
X188172353Y-104564146D01*
X188270956Y-104711716D01*
X188338876Y-104875688D01*
X188373500Y-105049759D01*
X188373500Y-105227241D01*
X188338876Y-105401312D01*
X188270956Y-105565284D01*
X188172353Y-105712854D01*
X188046854Y-105838353D01*
X187899284Y-105936956D01*
X187735312Y-106004876D01*
X187586012Y-106034573D01*
X187561242Y-106039500D01*
X187383758Y-106039500D01*
X187358988Y-106034573D01*
X187209688Y-106004876D01*
X187045716Y-105936956D01*
X186898146Y-105838353D01*
X186772647Y-105712854D01*
X186674044Y-105565284D01*
X186606124Y-105401312D01*
X186571500Y-105227241D01*
X186571500Y-105049759D01*
X186606124Y-104875688D01*
X186674044Y-104711716D01*
X186772647Y-104564146D01*
X186898146Y-104438647D01*
X187045716Y-104340044D01*
X187209688Y-104272124D01*
X187358988Y-104242427D01*
X187383758Y-104237500D01*
X187561242Y-104237500D01*
X187586012Y-104242427D01*
G37*
G36*
X210113512Y-101893927D02*
G01*
X210262812Y-101923624D01*
X210426784Y-101991544D01*
X210574354Y-102090147D01*
X210699853Y-102215646D01*
X210798456Y-102363216D01*
X210866376Y-102527188D01*
X210901000Y-102701259D01*
X210901000Y-102878741D01*
X210866376Y-103052812D01*
X210798456Y-103216784D01*
X210699853Y-103364354D01*
X210574354Y-103489853D01*
X210426784Y-103588456D01*
X210262812Y-103656376D01*
X210113512Y-103686073D01*
X210088742Y-103691000D01*
X209911258Y-103691000D01*
X209886488Y-103686073D01*
X209737188Y-103656376D01*
X209573216Y-103588456D01*
X209425646Y-103489853D01*
X209300147Y-103364354D01*
X209201544Y-103216784D01*
X209133624Y-103052812D01*
X209099000Y-102878741D01*
X209099000Y-102701259D01*
X209133624Y-102527188D01*
X209201544Y-102363216D01*
X209300147Y-102215646D01*
X209425646Y-102090147D01*
X209573216Y-101991544D01*
X209737188Y-101923624D01*
X209886488Y-101893927D01*
X209911258Y-101889000D01*
X210088742Y-101889000D01*
X210113512Y-101893927D01*
G37*
G36*
X185046012Y-101702427D02*
G01*
X185195312Y-101732124D01*
X185359284Y-101800044D01*
X185506854Y-101898647D01*
X185632353Y-102024146D01*
X185730956Y-102171716D01*
X185798876Y-102335688D01*
X185833500Y-102509759D01*
X185833500Y-102687241D01*
X185798876Y-102861312D01*
X185730956Y-103025284D01*
X185632353Y-103172854D01*
X185506854Y-103298353D01*
X185359284Y-103396956D01*
X185195312Y-103464876D01*
X185046012Y-103494573D01*
X185021242Y-103499500D01*
X184843758Y-103499500D01*
X184818988Y-103494573D01*
X184669688Y-103464876D01*
X184505716Y-103396956D01*
X184358146Y-103298353D01*
X184232647Y-103172854D01*
X184134044Y-103025284D01*
X184066124Y-102861312D01*
X184031500Y-102687241D01*
X184031500Y-102509759D01*
X184066124Y-102335688D01*
X184134044Y-102171716D01*
X184232647Y-102024146D01*
X184358146Y-101898647D01*
X184505716Y-101800044D01*
X184669688Y-101732124D01*
X184818988Y-101702427D01*
X184843758Y-101697500D01*
X185021242Y-101697500D01*
X185046012Y-101702427D01*
G37*
G36*
X187586012Y-101702427D02*
G01*
X187735312Y-101732124D01*
X187899284Y-101800044D01*
X188046854Y-101898647D01*
X188172353Y-102024146D01*
X188270956Y-102171716D01*
X188338876Y-102335688D01*
X188373500Y-102509759D01*
X188373500Y-102687241D01*
X188338876Y-102861312D01*
X188270956Y-103025284D01*
X188172353Y-103172854D01*
X188046854Y-103298353D01*
X187899284Y-103396956D01*
X187735312Y-103464876D01*
X187586012Y-103494573D01*
X187561242Y-103499500D01*
X187383758Y-103499500D01*
X187358988Y-103494573D01*
X187209688Y-103464876D01*
X187045716Y-103396956D01*
X186898146Y-103298353D01*
X186772647Y-103172854D01*
X186674044Y-103025284D01*
X186606124Y-102861312D01*
X186571500Y-102687241D01*
X186571500Y-102509759D01*
X186606124Y-102335688D01*
X186674044Y-102171716D01*
X186772647Y-102024146D01*
X186898146Y-101898647D01*
X187045716Y-101800044D01*
X187209688Y-101732124D01*
X187358988Y-101702427D01*
X187383758Y-101697500D01*
X187561242Y-101697500D01*
X187586012Y-101702427D01*
G37*
G36*
X210901000Y-101151000D02*
G01*
X209099000Y-101151000D01*
X209099000Y-99349000D01*
X210901000Y-99349000D01*
X210901000Y-101151000D01*
G37*
G36*
X102973072Y-96993918D02*
G01*
X103052655Y-97026882D01*
X103218939Y-97095759D01*
X103440212Y-97243610D01*
X103628390Y-97431788D01*
X103776241Y-97653061D01*
X103878082Y-97898928D01*
X103930000Y-98159938D01*
X103930000Y-98426062D01*
X103878082Y-98687072D01*
X103776241Y-98932939D01*
X103628390Y-99154212D01*
X103440212Y-99342390D01*
X103218939Y-99490241D01*
X103218938Y-99490242D01*
X103218937Y-99490242D01*
X102973072Y-99592082D01*
X102712063Y-99644000D01*
X102445937Y-99644000D01*
X102184928Y-99592082D01*
X101939063Y-99490242D01*
X101939062Y-99490242D01*
X101939061Y-99490241D01*
X101717788Y-99342390D01*
X101529610Y-99154212D01*
X101381759Y-98932939D01*
X101279918Y-98687072D01*
X101228000Y-98426062D01*
X101228000Y-98159938D01*
X101279918Y-97898928D01*
X101381759Y-97653061D01*
X101529610Y-97431788D01*
X101717788Y-97243610D01*
X101939061Y-97095759D01*
X102105346Y-97026882D01*
X102184928Y-96993918D01*
X102445937Y-96942000D01*
X102712063Y-96942000D01*
X102973072Y-96993918D01*
G37*
G36*
X99810072Y-94580074D02*
G01*
X100017871Y-94621408D01*
X100322883Y-94747748D01*
X100597387Y-94931166D01*
X100830834Y-95164613D01*
X101014252Y-95439117D01*
X101014252Y-95439118D01*
X101140592Y-95744130D01*
X101183603Y-95960356D01*
X101205000Y-96067928D01*
X101205000Y-96398072D01*
X101140592Y-96721871D01*
X101014252Y-97026883D01*
X100830834Y-97301387D01*
X100597387Y-97534834D01*
X100322883Y-97718252D01*
X100017871Y-97844592D01*
X99855971Y-97876796D01*
X99694073Y-97909000D01*
X99363927Y-97909000D01*
X99040129Y-97844592D01*
X98735117Y-97718252D01*
X98460613Y-97534834D01*
X98227166Y-97301387D01*
X98043748Y-97026883D01*
X97917408Y-96721871D01*
X97853000Y-96398072D01*
X97853000Y-96067928D01*
X97874398Y-95960356D01*
X97917408Y-95744130D01*
X98043748Y-95439118D01*
X98043748Y-95439117D01*
X98227166Y-95164613D01*
X98460613Y-94931166D01*
X98735117Y-94747748D01*
X99040129Y-94621408D01*
X99247928Y-94580074D01*
X99363927Y-94557000D01*
X99694073Y-94557000D01*
X99810072Y-94580074D01*
G37*
G36*
X94919521Y-95885275D02*
G01*
X95010152Y-95922816D01*
X95100783Y-95960356D01*
X95263913Y-96069356D01*
X95402644Y-96208087D01*
X95511644Y-96371217D01*
X95522768Y-96398073D01*
X95586725Y-96552479D01*
X95625000Y-96744901D01*
X95625000Y-96941099D01*
X95586725Y-97133521D01*
X95549184Y-97224152D01*
X95511644Y-97314783D01*
X95402644Y-97477913D01*
X95263913Y-97616644D01*
X95100783Y-97725644D01*
X95010152Y-97763184D01*
X94919521Y-97800725D01*
X94727099Y-97839000D01*
X94530901Y-97839000D01*
X94338479Y-97800725D01*
X94247848Y-97763184D01*
X94157217Y-97725644D01*
X93994087Y-97616644D01*
X93855356Y-97477913D01*
X93746356Y-97314783D01*
X93708816Y-97224152D01*
X93671275Y-97133521D01*
X93633000Y-96941099D01*
X93633000Y-96744901D01*
X93671275Y-96552479D01*
X93735232Y-96398073D01*
X93746356Y-96371217D01*
X93855356Y-96208087D01*
X93994087Y-96069356D01*
X94157217Y-95960356D01*
X94247848Y-95922816D01*
X94338479Y-95885275D01*
X94530901Y-95847000D01*
X94727099Y-95847000D01*
X94919521Y-95885275D01*
G37*
G36*
X106870000Y-95964000D02*
G01*
X104868000Y-95964000D01*
X104868000Y-93962000D01*
X106870000Y-93962000D01*
X106870000Y-95964000D01*
G37*
G36*
X96439521Y-93345275D02*
G01*
X96530152Y-93382816D01*
X96620783Y-93420356D01*
X96783913Y-93529356D01*
X96922644Y-93668087D01*
X97031644Y-93831217D01*
X97069184Y-93921847D01*
X97106725Y-94012479D01*
X97145000Y-94204901D01*
X97145000Y-94401099D01*
X97106725Y-94593521D01*
X97081039Y-94655532D01*
X97031644Y-94774783D01*
X96922644Y-94937913D01*
X96783913Y-95076644D01*
X96620783Y-95185644D01*
X96530152Y-95223184D01*
X96439521Y-95260725D01*
X96247099Y-95299000D01*
X96050901Y-95299000D01*
X95858479Y-95260725D01*
X95767848Y-95223184D01*
X95677217Y-95185644D01*
X95514087Y-95076644D01*
X95375356Y-94937913D01*
X95266356Y-94774783D01*
X95216961Y-94655532D01*
X95191275Y-94593521D01*
X95153000Y-94401099D01*
X95153000Y-94204901D01*
X95191275Y-94012479D01*
X95228816Y-93921847D01*
X95266356Y-93831217D01*
X95375356Y-93668087D01*
X95514087Y-93529356D01*
X95677217Y-93420356D01*
X95767848Y-93382816D01*
X95858479Y-93345275D01*
X96050901Y-93307000D01*
X96247099Y-93307000D01*
X96439521Y-93345275D01*
G37*
G36*
X108604285Y-92711234D02*
G01*
X108700981Y-92730468D01*
X108883151Y-92805926D01*
X109047100Y-92915473D01*
X109186527Y-93054900D01*
X109296074Y-93218849D01*
X109371532Y-93401019D01*
X109410000Y-93594410D01*
X109410000Y-93791590D01*
X109371532Y-93984981D01*
X109296074Y-94167151D01*
X109186527Y-94331100D01*
X109047100Y-94470527D01*
X108883151Y-94580074D01*
X108883150Y-94580075D01*
X108883149Y-94580075D01*
X108850685Y-94593522D01*
X108700981Y-94655532D01*
X108507591Y-94694000D01*
X108310409Y-94694000D01*
X108117019Y-94655532D01*
X107967315Y-94593522D01*
X107934851Y-94580075D01*
X107934850Y-94580075D01*
X107934849Y-94580074D01*
X107770900Y-94470527D01*
X107631473Y-94331100D01*
X107521926Y-94167151D01*
X107446468Y-93984981D01*
X107408000Y-93791590D01*
X107408000Y-93594410D01*
X107446468Y-93401019D01*
X107521926Y-93218849D01*
X107631473Y-93054900D01*
X107770900Y-92915473D01*
X107934849Y-92805926D01*
X108117019Y-92730468D01*
X108213715Y-92711234D01*
X108310409Y-92692000D01*
X108507591Y-92692000D01*
X108604285Y-92711234D01*
G37*
G36*
X106064285Y-91441234D02*
G01*
X106160981Y-91460468D01*
X106343151Y-91535926D01*
X106507100Y-91645473D01*
X106646527Y-91784900D01*
X106756074Y-91948849D01*
X106831532Y-92131019D01*
X106870000Y-92324410D01*
X106870000Y-92521590D01*
X106831532Y-92714981D01*
X106756074Y-92897151D01*
X106646527Y-93061100D01*
X106507100Y-93200527D01*
X106343151Y-93310074D01*
X106160981Y-93385532D01*
X106083123Y-93401019D01*
X105967591Y-93424000D01*
X105770409Y-93424000D01*
X105654877Y-93401019D01*
X105577019Y-93385532D01*
X105394849Y-93310074D01*
X105230900Y-93200527D01*
X105091473Y-93061100D01*
X104981926Y-92897151D01*
X104906468Y-92714981D01*
X104868000Y-92521590D01*
X104868000Y-92324410D01*
X104906468Y-92131019D01*
X104981926Y-91948849D01*
X105091473Y-91784900D01*
X105230900Y-91645473D01*
X105394849Y-91535926D01*
X105577019Y-91460468D01*
X105673715Y-91441234D01*
X105770409Y-91422000D01*
X105967591Y-91422000D01*
X106064285Y-91441234D01*
G37*
G36*
X108700981Y-90190468D02*
G01*
X108883151Y-90265926D01*
X109047100Y-90375473D01*
X109186527Y-90514900D01*
X109296074Y-90678849D01*
X109371532Y-90861019D01*
X109410000Y-91054410D01*
X109410000Y-91251590D01*
X109371532Y-91444981D01*
X109296074Y-91627151D01*
X109186527Y-91791100D01*
X109047100Y-91930527D01*
X108883151Y-92040074D01*
X108700981Y-92115532D01*
X108623123Y-92131019D01*
X108507591Y-92154000D01*
X108310409Y-92154000D01*
X108194877Y-92131019D01*
X108117019Y-92115532D01*
X107934849Y-92040074D01*
X107770900Y-91930527D01*
X107631473Y-91791100D01*
X107521926Y-91627151D01*
X107446468Y-91444981D01*
X107408000Y-91251590D01*
X107408000Y-91054410D01*
X107446468Y-90861019D01*
X107521926Y-90678849D01*
X107631473Y-90514900D01*
X107770900Y-90375473D01*
X107934849Y-90265926D01*
X108117019Y-90190468D01*
X108310409Y-90152000D01*
X108507591Y-90152000D01*
X108700981Y-90190468D01*
G37*
G36*
X106160981Y-88920468D02*
G01*
X106343151Y-88995926D01*
X106507100Y-89105473D01*
X106646527Y-89244900D01*
X106756074Y-89408849D01*
X106831532Y-89591019D01*
X106870000Y-89784410D01*
X106870000Y-89981590D01*
X106831532Y-90174981D01*
X106756074Y-90357151D01*
X106646527Y-90521100D01*
X106507100Y-90660527D01*
X106343151Y-90770074D01*
X106160981Y-90845532D01*
X106083123Y-90861019D01*
X105967591Y-90884000D01*
X105770409Y-90884000D01*
X105654877Y-90861019D01*
X105577019Y-90845532D01*
X105394849Y-90770074D01*
X105230900Y-90660527D01*
X105091473Y-90521100D01*
X104981926Y-90357151D01*
X104906468Y-90174981D01*
X104868000Y-89981590D01*
X104868000Y-89784410D01*
X104906468Y-89591019D01*
X104981926Y-89408849D01*
X105091473Y-89244900D01*
X105230900Y-89105473D01*
X105394849Y-88995926D01*
X105577019Y-88920468D01*
X105770409Y-88882000D01*
X105967591Y-88882000D01*
X106160981Y-88920468D01*
G37*
G36*
X108525905Y-87615643D02*
G01*
X108700981Y-87650468D01*
X108883151Y-87725926D01*
X109047100Y-87835473D01*
X109186527Y-87974900D01*
X109296074Y-88138849D01*
X109371532Y-88321019D01*
X109410000Y-88514410D01*
X109410000Y-88711590D01*
X109371532Y-88904981D01*
X109296074Y-89087151D01*
X109186527Y-89251100D01*
X109047100Y-89390527D01*
X108883151Y-89500074D01*
X108700981Y-89575532D01*
X108623123Y-89591019D01*
X108507591Y-89614000D01*
X108310409Y-89614000D01*
X108194877Y-89591019D01*
X108117019Y-89575532D01*
X107934849Y-89500074D01*
X107770900Y-89390527D01*
X107631473Y-89251100D01*
X107521926Y-89087151D01*
X107446468Y-88904981D01*
X107408000Y-88711590D01*
X107408000Y-88514410D01*
X107446468Y-88321019D01*
X107521926Y-88138849D01*
X107631473Y-87974900D01*
X107770900Y-87835473D01*
X107934849Y-87725926D01*
X108117019Y-87650468D01*
X108292095Y-87615643D01*
X108310409Y-87612000D01*
X108507591Y-87612000D01*
X108525905Y-87615643D01*
G37*
G36*
X106160981Y-86380468D02*
G01*
X106289795Y-86433825D01*
X106310688Y-86442479D01*
X106343151Y-86455926D01*
X106507100Y-86565473D01*
X106646527Y-86704900D01*
X106756074Y-86868849D01*
X106831532Y-87051019D01*
X106870000Y-87244410D01*
X106870000Y-87441590D01*
X106831532Y-87634981D01*
X106756074Y-87817151D01*
X106646527Y-87981100D01*
X106507100Y-88120527D01*
X106343151Y-88230074D01*
X106160981Y-88305532D01*
X106083123Y-88321019D01*
X105967591Y-88344000D01*
X105770409Y-88344000D01*
X105654877Y-88321019D01*
X105577019Y-88305532D01*
X105394849Y-88230074D01*
X105230900Y-88120527D01*
X105091473Y-87981100D01*
X104981926Y-87817151D01*
X104906468Y-87634981D01*
X104868000Y-87441590D01*
X104868000Y-87244410D01*
X104906468Y-87051019D01*
X104981926Y-86868849D01*
X105091473Y-86704900D01*
X105230900Y-86565473D01*
X105394849Y-86455926D01*
X105427313Y-86442479D01*
X105448205Y-86433825D01*
X105577019Y-86380468D01*
X105770409Y-86342000D01*
X105967591Y-86342000D01*
X106160981Y-86380468D01*
G37*
G36*
X94919521Y-85775275D02*
G01*
X95010152Y-85812816D01*
X95100783Y-85850356D01*
X95263913Y-85959356D01*
X95402644Y-86098087D01*
X95511644Y-86261217D01*
X95522842Y-86288252D01*
X95586725Y-86442479D01*
X95625000Y-86634901D01*
X95625000Y-86831099D01*
X95586725Y-87023521D01*
X95575334Y-87051020D01*
X95511644Y-87204783D01*
X95402644Y-87367913D01*
X95263913Y-87506644D01*
X95100783Y-87615644D01*
X95010153Y-87653184D01*
X94919521Y-87690725D01*
X94727099Y-87729000D01*
X94530901Y-87729000D01*
X94338479Y-87690725D01*
X94247847Y-87653184D01*
X94157217Y-87615644D01*
X93994087Y-87506644D01*
X93855356Y-87367913D01*
X93746356Y-87204783D01*
X93682666Y-87051020D01*
X93671275Y-87023521D01*
X93633000Y-86831099D01*
X93633000Y-86634901D01*
X93671275Y-86442479D01*
X93735158Y-86288252D01*
X93746356Y-86261217D01*
X93855356Y-86098087D01*
X93994087Y-85959356D01*
X94157217Y-85850356D01*
X94247848Y-85812816D01*
X94338479Y-85775275D01*
X94530901Y-85737000D01*
X94727099Y-85737000D01*
X94919521Y-85775275D01*
G37*
G36*
X108525905Y-85075643D02*
G01*
X108700981Y-85110468D01*
X108883151Y-85185926D01*
X109047100Y-85295473D01*
X109186527Y-85434900D01*
X109296074Y-85598849D01*
X109371532Y-85781019D01*
X109410000Y-85974410D01*
X109410000Y-86171590D01*
X109371532Y-86364981D01*
X109296074Y-86547151D01*
X109186527Y-86711100D01*
X109047100Y-86850527D01*
X108883151Y-86960074D01*
X108700981Y-87035532D01*
X108623123Y-87051019D01*
X108507591Y-87074000D01*
X108310409Y-87074000D01*
X108194877Y-87051019D01*
X108117019Y-87035532D01*
X107934849Y-86960074D01*
X107770900Y-86850527D01*
X107631473Y-86711100D01*
X107521926Y-86547151D01*
X107446468Y-86364981D01*
X107408000Y-86171590D01*
X107408000Y-85974410D01*
X107446468Y-85781019D01*
X107521926Y-85598849D01*
X107631473Y-85434900D01*
X107770900Y-85295473D01*
X107934849Y-85185926D01*
X108117019Y-85110468D01*
X108292095Y-85075643D01*
X108310409Y-85072000D01*
X108507591Y-85072000D01*
X108525905Y-85075643D01*
G37*
G36*
X99855971Y-83159204D02*
G01*
X100017871Y-83191408D01*
X100322883Y-83317748D01*
X100597387Y-83501166D01*
X100830834Y-83734613D01*
X101014252Y-84009117D01*
X101140592Y-84314129D01*
X101140592Y-84314130D01*
X101205000Y-84637927D01*
X101205000Y-84968073D01*
X101176676Y-85110468D01*
X101140592Y-85291871D01*
X101014252Y-85596883D01*
X100830834Y-85871387D01*
X100597387Y-86104834D01*
X100322883Y-86288252D01*
X100017871Y-86414592D01*
X99877679Y-86442478D01*
X99694073Y-86479000D01*
X99363927Y-86479000D01*
X99180321Y-86442478D01*
X99040129Y-86414592D01*
X98735117Y-86288252D01*
X98460613Y-86104834D01*
X98227166Y-85871387D01*
X98043748Y-85596883D01*
X97917408Y-85291871D01*
X97881324Y-85110468D01*
X97853000Y-84968073D01*
X97853000Y-84637927D01*
X97917408Y-84314130D01*
X97917408Y-84314129D01*
X98043748Y-84009117D01*
X98227166Y-83734613D01*
X98460613Y-83501166D01*
X98735117Y-83317748D01*
X99040129Y-83191408D01*
X99202029Y-83159204D01*
X99363927Y-83127000D01*
X99694073Y-83127000D01*
X99855971Y-83159204D01*
G37*
G36*
X96439521Y-83235275D02*
G01*
X96530152Y-83272816D01*
X96620783Y-83310356D01*
X96783913Y-83419356D01*
X96922644Y-83558087D01*
X97031644Y-83721217D01*
X97061125Y-83792391D01*
X97106725Y-83902479D01*
X97145000Y-84094901D01*
X97145000Y-84291099D01*
X97106725Y-84483521D01*
X97069184Y-84574153D01*
X97031644Y-84664783D01*
X96922644Y-84827913D01*
X96783913Y-84966644D01*
X96620783Y-85075644D01*
X96530153Y-85113184D01*
X96439521Y-85150725D01*
X96247099Y-85189000D01*
X96050901Y-85189000D01*
X95858479Y-85150725D01*
X95767847Y-85113184D01*
X95677217Y-85075644D01*
X95514087Y-84966644D01*
X95375356Y-84827913D01*
X95266356Y-84664783D01*
X95228816Y-84574152D01*
X95191275Y-84483521D01*
X95153000Y-84291099D01*
X95153000Y-84094901D01*
X95191275Y-83902479D01*
X95236875Y-83792391D01*
X95266356Y-83721217D01*
X95375356Y-83558087D01*
X95514087Y-83419356D01*
X95677217Y-83310356D01*
X95767847Y-83272816D01*
X95858479Y-83235275D01*
X96050901Y-83197000D01*
X96247099Y-83197000D01*
X96439521Y-83235275D01*
G37*
G36*
X102973072Y-81443918D02*
G01*
X103218939Y-81545759D01*
X103440212Y-81693610D01*
X103628390Y-81881788D01*
X103776241Y-82103061D01*
X103878082Y-82348928D01*
X103930000Y-82609938D01*
X103930000Y-82876062D01*
X103878082Y-83137072D01*
X103776241Y-83382939D01*
X103628390Y-83604212D01*
X103440212Y-83792390D01*
X103218939Y-83940241D01*
X103218938Y-83940242D01*
X103218937Y-83940242D01*
X102973072Y-84042082D01*
X102712063Y-84094000D01*
X102445937Y-84094000D01*
X102184928Y-84042082D01*
X101939063Y-83940242D01*
X101939062Y-83940242D01*
X101939061Y-83940241D01*
X101717788Y-83792390D01*
X101529610Y-83604212D01*
X101381759Y-83382939D01*
X101279918Y-83137072D01*
X101228000Y-82876062D01*
X101228000Y-82609938D01*
X101279918Y-82348928D01*
X101381759Y-82103061D01*
X101529610Y-81881788D01*
X101717788Y-81693610D01*
X101939061Y-81545759D01*
X102184928Y-81443918D01*
X102445937Y-81392000D01*
X102712063Y-81392000D01*
X102973072Y-81443918D01*
G37*
G36*
X126461000Y-74226000D02*
G01*
X124659000Y-74226000D01*
X124659000Y-72424000D01*
X126461000Y-72424000D01*
X126461000Y-74226000D01*
G37*
G36*
X123133512Y-72428927D02*
G01*
X123282812Y-72458624D01*
X123446784Y-72526544D01*
X123594354Y-72625147D01*
X123719853Y-72750646D01*
X123818456Y-72898216D01*
X123886376Y-73062188D01*
X123921000Y-73236259D01*
X123921000Y-73413741D01*
X123886376Y-73587812D01*
X123818456Y-73751784D01*
X123719853Y-73899354D01*
X123594354Y-74024853D01*
X123446784Y-74123456D01*
X123282812Y-74191376D01*
X123133512Y-74221073D01*
X123108742Y-74226000D01*
X122931258Y-74226000D01*
X122906488Y-74221073D01*
X122757188Y-74191376D01*
X122593216Y-74123456D01*
X122445646Y-74024853D01*
X122320147Y-73899354D01*
X122221544Y-73751784D01*
X122153624Y-73587812D01*
X122119000Y-73413741D01*
X122119000Y-73236259D01*
X122153624Y-73062188D01*
X122221544Y-72898216D01*
X122320147Y-72750646D01*
X122445646Y-72625147D01*
X122593216Y-72526544D01*
X122757188Y-72458624D01*
X122906488Y-72428927D01*
X122931258Y-72424000D01*
X123108742Y-72424000D01*
X123133512Y-72428927D01*
G37*
G36*
X125673512Y-69888927D02*
G01*
X125822812Y-69918624D01*
X125986784Y-69986544D01*
X126134354Y-70085147D01*
X126259853Y-70210646D01*
X126358456Y-70358216D01*
X126426376Y-70522188D01*
X126461000Y-70696259D01*
X126461000Y-70873741D01*
X126426376Y-71047812D01*
X126358456Y-71211784D01*
X126259853Y-71359354D01*
X126134354Y-71484853D01*
X125986784Y-71583456D01*
X125822812Y-71651376D01*
X125673512Y-71681073D01*
X125648742Y-71686000D01*
X125471258Y-71686000D01*
X125446488Y-71681073D01*
X125297188Y-71651376D01*
X125133216Y-71583456D01*
X124985646Y-71484853D01*
X124860147Y-71359354D01*
X124761544Y-71211784D01*
X124693624Y-71047812D01*
X124659000Y-70873741D01*
X124659000Y-70696259D01*
X124693624Y-70522188D01*
X124761544Y-70358216D01*
X124860147Y-70210646D01*
X124985646Y-70085147D01*
X125133216Y-69986544D01*
X125297188Y-69918624D01*
X125446488Y-69888927D01*
X125471258Y-69884000D01*
X125648742Y-69884000D01*
X125673512Y-69888927D01*
G37*
G36*
X123133512Y-69888927D02*
G01*
X123282812Y-69918624D01*
X123446784Y-69986544D01*
X123594354Y-70085147D01*
X123719853Y-70210646D01*
X123818456Y-70358216D01*
X123886376Y-70522188D01*
X123921000Y-70696259D01*
X123921000Y-70873741D01*
X123886376Y-71047812D01*
X123818456Y-71211784D01*
X123719853Y-71359354D01*
X123594354Y-71484853D01*
X123446784Y-71583456D01*
X123282812Y-71651376D01*
X123133512Y-71681073D01*
X123108742Y-71686000D01*
X122931258Y-71686000D01*
X122906488Y-71681073D01*
X122757188Y-71651376D01*
X122593216Y-71583456D01*
X122445646Y-71484853D01*
X122320147Y-71359354D01*
X122221544Y-71211784D01*
X122153624Y-71047812D01*
X122119000Y-70873741D01*
X122119000Y-70696259D01*
X122153624Y-70522188D01*
X122221544Y-70358216D01*
X122320147Y-70210646D01*
X122445646Y-70085147D01*
X122593216Y-69986544D01*
X122757188Y-69918624D01*
X122906488Y-69888927D01*
X122931258Y-69884000D01*
X123108742Y-69884000D01*
X123133512Y-69888927D01*
G37*
G36*
X123133512Y-67348927D02*
G01*
X123282812Y-67378624D01*
X123446784Y-67446544D01*
X123594354Y-67545147D01*
X123719853Y-67670646D01*
X123818456Y-67818216D01*
X123886376Y-67982188D01*
X123921000Y-68156259D01*
X123921000Y-68333741D01*
X123886376Y-68507812D01*
X123818456Y-68671784D01*
X123719853Y-68819354D01*
X123594354Y-68944853D01*
X123446784Y-69043456D01*
X123282812Y-69111376D01*
X123133512Y-69141073D01*
X123108742Y-69146000D01*
X122931258Y-69146000D01*
X122906488Y-69141073D01*
X122757188Y-69111376D01*
X122593216Y-69043456D01*
X122445646Y-68944853D01*
X122320147Y-68819354D01*
X122221544Y-68671784D01*
X122153624Y-68507812D01*
X122119000Y-68333741D01*
X122119000Y-68156259D01*
X122153624Y-67982188D01*
X122221544Y-67818216D01*
X122320147Y-67670646D01*
X122445646Y-67545147D01*
X122593216Y-67446544D01*
X122757188Y-67378624D01*
X122906488Y-67348927D01*
X122931258Y-67344000D01*
X123108742Y-67344000D01*
X123133512Y-67348927D01*
G37*
G36*
X125673512Y-67348927D02*
G01*
X125822812Y-67378624D01*
X125986784Y-67446544D01*
X126134354Y-67545147D01*
X126259853Y-67670646D01*
X126358456Y-67818216D01*
X126426376Y-67982188D01*
X126461000Y-68156259D01*
X126461000Y-68333741D01*
X126426376Y-68507812D01*
X126358456Y-68671784D01*
X126259853Y-68819354D01*
X126134354Y-68944853D01*
X125986784Y-69043456D01*
X125822812Y-69111376D01*
X125673512Y-69141073D01*
X125648742Y-69146000D01*
X125471258Y-69146000D01*
X125446488Y-69141073D01*
X125297188Y-69111376D01*
X125133216Y-69043456D01*
X124985646Y-68944853D01*
X124860147Y-68819354D01*
X124761544Y-68671784D01*
X124693624Y-68507812D01*
X124659000Y-68333741D01*
X124659000Y-68156259D01*
X124693624Y-67982188D01*
X124761544Y-67818216D01*
X124860147Y-67670646D01*
X124985646Y-67545147D01*
X125133216Y-67446544D01*
X125297188Y-67378624D01*
X125446488Y-67348927D01*
X125471258Y-67344000D01*
X125648742Y-67344000D01*
X125673512Y-67348927D01*
G37*
G36*
X123133512Y-64808927D02*
G01*
X123282812Y-64838624D01*
X123446784Y-64906544D01*
X123594354Y-65005147D01*
X123719853Y-65130646D01*
X123818456Y-65278216D01*
X123886376Y-65442188D01*
X123921000Y-65616259D01*
X123921000Y-65793741D01*
X123886376Y-65967812D01*
X123818456Y-66131784D01*
X123719853Y-66279354D01*
X123594354Y-66404853D01*
X123446784Y-66503456D01*
X123282812Y-66571376D01*
X123133512Y-66601073D01*
X123108742Y-66606000D01*
X122931258Y-66606000D01*
X122906488Y-66601073D01*
X122757188Y-66571376D01*
X122593216Y-66503456D01*
X122445646Y-66404853D01*
X122320147Y-66279354D01*
X122221544Y-66131784D01*
X122153624Y-65967812D01*
X122119000Y-65793741D01*
X122119000Y-65616259D01*
X122153624Y-65442188D01*
X122221544Y-65278216D01*
X122320147Y-65130646D01*
X122445646Y-65005147D01*
X122593216Y-64906544D01*
X122757188Y-64838624D01*
X122906488Y-64808927D01*
X122931258Y-64804000D01*
X123108742Y-64804000D01*
X123133512Y-64808927D01*
G37*
G36*
X125673512Y-64808927D02*
G01*
X125822812Y-64838624D01*
X125986784Y-64906544D01*
X126134354Y-65005147D01*
X126259853Y-65130646D01*
X126358456Y-65278216D01*
X126426376Y-65442188D01*
X126461000Y-65616259D01*
X126461000Y-65793741D01*
X126426376Y-65967812D01*
X126358456Y-66131784D01*
X126259853Y-66279354D01*
X126134354Y-66404853D01*
X125986784Y-66503456D01*
X125822812Y-66571376D01*
X125673512Y-66601073D01*
X125648742Y-66606000D01*
X125471258Y-66606000D01*
X125446488Y-66601073D01*
X125297188Y-66571376D01*
X125133216Y-66503456D01*
X124985646Y-66404853D01*
X124860147Y-66279354D01*
X124761544Y-66131784D01*
X124693624Y-65967812D01*
X124659000Y-65793741D01*
X124659000Y-65616259D01*
X124693624Y-65442188D01*
X124761544Y-65278216D01*
X124860147Y-65130646D01*
X124985646Y-65005147D01*
X125133216Y-64906544D01*
X125297188Y-64838624D01*
X125446488Y-64808927D01*
X125471258Y-64804000D01*
X125648742Y-64804000D01*
X125673512Y-64808927D01*
G37*
G36*
X125673512Y-62268927D02*
G01*
X125822812Y-62298624D01*
X125986784Y-62366544D01*
X126134354Y-62465147D01*
X126259853Y-62590646D01*
X126358456Y-62738216D01*
X126426376Y-62902188D01*
X126461000Y-63076259D01*
X126461000Y-63253741D01*
X126426376Y-63427812D01*
X126358456Y-63591784D01*
X126259853Y-63739354D01*
X126134354Y-63864853D01*
X125986784Y-63963456D01*
X125822812Y-64031376D01*
X125673512Y-64061073D01*
X125648742Y-64066000D01*
X125471258Y-64066000D01*
X125446488Y-64061073D01*
X125297188Y-64031376D01*
X125133216Y-63963456D01*
X124985646Y-63864853D01*
X124860147Y-63739354D01*
X124761544Y-63591784D01*
X124693624Y-63427812D01*
X124659000Y-63253741D01*
X124659000Y-63076259D01*
X124693624Y-62902188D01*
X124761544Y-62738216D01*
X124860147Y-62590646D01*
X124985646Y-62465147D01*
X125133216Y-62366544D01*
X125297188Y-62298624D01*
X125446488Y-62268927D01*
X125471258Y-62264000D01*
X125648742Y-62264000D01*
X125673512Y-62268927D01*
G37*
G36*
X123133512Y-62268927D02*
G01*
X123282812Y-62298624D01*
X123446784Y-62366544D01*
X123594354Y-62465147D01*
X123719853Y-62590646D01*
X123818456Y-62738216D01*
X123886376Y-62902188D01*
X123921000Y-63076259D01*
X123921000Y-63253741D01*
X123886376Y-63427812D01*
X123818456Y-63591784D01*
X123719853Y-63739354D01*
X123594354Y-63864853D01*
X123446784Y-63963456D01*
X123282812Y-64031376D01*
X123133512Y-64061073D01*
X123108742Y-64066000D01*
X122931258Y-64066000D01*
X122906488Y-64061073D01*
X122757188Y-64031376D01*
X122593216Y-63963456D01*
X122445646Y-63864853D01*
X122320147Y-63739354D01*
X122221544Y-63591784D01*
X122153624Y-63427812D01*
X122119000Y-63253741D01*
X122119000Y-63076259D01*
X122153624Y-62902188D01*
X122221544Y-62738216D01*
X122320147Y-62590646D01*
X122445646Y-62465147D01*
X122593216Y-62366544D01*
X122757188Y-62298624D01*
X122906488Y-62268927D01*
X122931258Y-62264000D01*
X123108742Y-62264000D01*
X123133512Y-62268927D01*
G37*
G36*
X123133512Y-59728927D02*
G01*
X123282812Y-59758624D01*
X123446784Y-59826544D01*
X123594354Y-59925147D01*
X123719853Y-60050646D01*
X123818456Y-60198216D01*
X123886376Y-60362188D01*
X123921000Y-60536259D01*
X123921000Y-60713741D01*
X123886376Y-60887812D01*
X123818456Y-61051784D01*
X123719853Y-61199354D01*
X123594354Y-61324853D01*
X123446784Y-61423456D01*
X123282812Y-61491376D01*
X123133512Y-61521073D01*
X123108742Y-61526000D01*
X122931258Y-61526000D01*
X122906488Y-61521073D01*
X122757188Y-61491376D01*
X122593216Y-61423456D01*
X122445646Y-61324853D01*
X122320147Y-61199354D01*
X122221544Y-61051784D01*
X122153624Y-60887812D01*
X122119000Y-60713741D01*
X122119000Y-60536259D01*
X122153624Y-60362188D01*
X122221544Y-60198216D01*
X122320147Y-60050646D01*
X122445646Y-59925147D01*
X122593216Y-59826544D01*
X122757188Y-59758624D01*
X122906488Y-59728927D01*
X122931258Y-59724000D01*
X123108742Y-59724000D01*
X123133512Y-59728927D01*
G37*
G36*
X125673512Y-59728927D02*
G01*
X125822812Y-59758624D01*
X125986784Y-59826544D01*
X126134354Y-59925147D01*
X126259853Y-60050646D01*
X126358456Y-60198216D01*
X126426376Y-60362188D01*
X126461000Y-60536259D01*
X126461000Y-60713741D01*
X126426376Y-60887812D01*
X126358456Y-61051784D01*
X126259853Y-61199354D01*
X126134354Y-61324853D01*
X125986784Y-61423456D01*
X125822812Y-61491376D01*
X125673512Y-61521073D01*
X125648742Y-61526000D01*
X125471258Y-61526000D01*
X125446488Y-61521073D01*
X125297188Y-61491376D01*
X125133216Y-61423456D01*
X124985646Y-61324853D01*
X124860147Y-61199354D01*
X124761544Y-61051784D01*
X124693624Y-60887812D01*
X124659000Y-60713741D01*
X124659000Y-60536259D01*
X124693624Y-60362188D01*
X124761544Y-60198216D01*
X124860147Y-60050646D01*
X124985646Y-59925147D01*
X125133216Y-59826544D01*
X125297188Y-59758624D01*
X125446488Y-59728927D01*
X125471258Y-59724000D01*
X125648742Y-59724000D01*
X125673512Y-59728927D01*
G37*
G36*
X125673512Y-57188927D02*
G01*
X125822812Y-57218624D01*
X125986784Y-57286544D01*
X126134354Y-57385147D01*
X126259853Y-57510646D01*
X126358456Y-57658216D01*
X126426376Y-57822188D01*
X126461000Y-57996259D01*
X126461000Y-58173741D01*
X126426376Y-58347812D01*
X126358456Y-58511784D01*
X126259853Y-58659354D01*
X126134354Y-58784853D01*
X125986784Y-58883456D01*
X125822812Y-58951376D01*
X125673512Y-58981073D01*
X125648742Y-58986000D01*
X125471258Y-58986000D01*
X125446488Y-58981073D01*
X125297188Y-58951376D01*
X125133216Y-58883456D01*
X124985646Y-58784853D01*
X124860147Y-58659354D01*
X124761544Y-58511784D01*
X124693624Y-58347812D01*
X124659000Y-58173741D01*
X124659000Y-57996259D01*
X124693624Y-57822188D01*
X124761544Y-57658216D01*
X124860147Y-57510646D01*
X124985646Y-57385147D01*
X125133216Y-57286544D01*
X125297188Y-57218624D01*
X125446488Y-57188927D01*
X125471258Y-57184000D01*
X125648742Y-57184000D01*
X125673512Y-57188927D01*
G37*
G36*
X123133512Y-57188927D02*
G01*
X123282812Y-57218624D01*
X123446784Y-57286544D01*
X123594354Y-57385147D01*
X123719853Y-57510646D01*
X123818456Y-57658216D01*
X123886376Y-57822188D01*
X123921000Y-57996259D01*
X123921000Y-58173741D01*
X123886376Y-58347812D01*
X123818456Y-58511784D01*
X123719853Y-58659354D01*
X123594354Y-58784853D01*
X123446784Y-58883456D01*
X123282812Y-58951376D01*
X123133512Y-58981073D01*
X123108742Y-58986000D01*
X122931258Y-58986000D01*
X122906488Y-58981073D01*
X122757188Y-58951376D01*
X122593216Y-58883456D01*
X122445646Y-58784853D01*
X122320147Y-58659354D01*
X122221544Y-58511784D01*
X122153624Y-58347812D01*
X122119000Y-58173741D01*
X122119000Y-57996259D01*
X122153624Y-57822188D01*
X122221544Y-57658216D01*
X122320147Y-57510646D01*
X122445646Y-57385147D01*
X122593216Y-57286544D01*
X122757188Y-57218624D01*
X122906488Y-57188927D01*
X122931258Y-57184000D01*
X123108742Y-57184000D01*
X123133512Y-57188927D01*
G37*
G36*
X171305007Y-43464211D02*
G01*
X172069140Y-43616206D01*
X172860972Y-43944193D01*
X173573601Y-44420357D01*
X174179643Y-45026399D01*
X174655807Y-45739028D01*
X174983794Y-46530860D01*
X175151000Y-47371464D01*
X175151000Y-48228536D01*
X174983794Y-49069140D01*
X174655807Y-49860972D01*
X174179643Y-50573601D01*
X173573601Y-51179643D01*
X172860972Y-51655807D01*
X172069140Y-51983794D01*
X171348156Y-52127206D01*
X171228537Y-52151000D01*
X170371463Y-52151000D01*
X170251844Y-52127206D01*
X169530860Y-51983794D01*
X168739028Y-51655807D01*
X168026399Y-51179643D01*
X167420357Y-50573601D01*
X166944193Y-49860972D01*
X166616206Y-49069140D01*
X166449000Y-48228536D01*
X166449000Y-47371464D01*
X166616206Y-46530860D01*
X166944193Y-45739028D01*
X167420357Y-45026399D01*
X168026399Y-44420357D01*
X168739028Y-43944193D01*
X169530860Y-43616206D01*
X170294993Y-43464211D01*
X170371463Y-43449000D01*
X171228537Y-43449000D01*
X171305007Y-43464211D01*
G37*
G36*
X152298285Y-47451234D02*
G01*
X152394981Y-47470468D01*
X152577151Y-47545926D01*
X152741100Y-47655473D01*
X152880527Y-47794900D01*
X152990074Y-47958849D01*
X153065532Y-48141019D01*
X153104000Y-48334410D01*
X153104000Y-48531590D01*
X153065532Y-48724981D01*
X152990074Y-48907151D01*
X152880527Y-49071100D01*
X152741100Y-49210527D01*
X152577151Y-49320074D01*
X152394981Y-49395532D01*
X152298285Y-49414766D01*
X152201591Y-49434000D01*
X152004409Y-49434000D01*
X151811019Y-49395532D01*
X151628849Y-49320074D01*
X151464900Y-49210527D01*
X151325473Y-49071100D01*
X151215926Y-48907151D01*
X151140468Y-48724981D01*
X151102000Y-48531590D01*
X151102000Y-48334410D01*
X151140468Y-48141019D01*
X151215926Y-47958849D01*
X151325473Y-47794900D01*
X151464900Y-47655473D01*
X151628849Y-47545926D01*
X151811019Y-47470468D01*
X151907715Y-47451234D01*
X152004409Y-47432000D01*
X152201591Y-47432000D01*
X152298285Y-47451234D01*
G37*
G36*
X154838285Y-47451234D02*
G01*
X154934981Y-47470468D01*
X155117151Y-47545926D01*
X155281100Y-47655473D01*
X155420527Y-47794900D01*
X155530074Y-47958849D01*
X155605532Y-48141019D01*
X155644000Y-48334410D01*
X155644000Y-48531590D01*
X155605532Y-48724981D01*
X155530074Y-48907151D01*
X155420527Y-49071100D01*
X155281100Y-49210527D01*
X155117151Y-49320074D01*
X154934981Y-49395532D01*
X154838285Y-49414766D01*
X154741591Y-49434000D01*
X154544409Y-49434000D01*
X154351019Y-49395532D01*
X154168849Y-49320074D01*
X154004900Y-49210527D01*
X153865473Y-49071100D01*
X153755926Y-48907151D01*
X153680468Y-48724981D01*
X153642000Y-48531590D01*
X153642000Y-48334410D01*
X153680468Y-48141019D01*
X153755926Y-47958849D01*
X153865473Y-47794900D01*
X154004900Y-47655473D01*
X154168849Y-47545926D01*
X154351019Y-47470468D01*
X154447715Y-47451234D01*
X154544409Y-47432000D01*
X154741591Y-47432000D01*
X154838285Y-47451234D01*
G37*
G36*
X157378285Y-47451234D02*
G01*
X157474981Y-47470468D01*
X157657151Y-47545926D01*
X157821100Y-47655473D01*
X157960527Y-47794900D01*
X158070074Y-47958849D01*
X158145532Y-48141019D01*
X158184000Y-48334410D01*
X158184000Y-48531590D01*
X158145532Y-48724981D01*
X158070074Y-48907151D01*
X157960527Y-49071100D01*
X157821100Y-49210527D01*
X157657151Y-49320074D01*
X157474981Y-49395532D01*
X157378285Y-49414766D01*
X157281591Y-49434000D01*
X157084409Y-49434000D01*
X156891019Y-49395532D01*
X156708849Y-49320074D01*
X156544900Y-49210527D01*
X156405473Y-49071100D01*
X156295926Y-48907151D01*
X156220468Y-48724981D01*
X156182000Y-48531590D01*
X156182000Y-48334410D01*
X156220468Y-48141019D01*
X156295926Y-47958849D01*
X156405473Y-47794900D01*
X156544900Y-47655473D01*
X156708849Y-47545926D01*
X156891019Y-47470468D01*
X156987715Y-47451234D01*
X157084409Y-47432000D01*
X157281591Y-47432000D01*
X157378285Y-47451234D01*
G37*
G36*
X159918285Y-47451234D02*
G01*
X160014981Y-47470468D01*
X160197151Y-47545926D01*
X160361100Y-47655473D01*
X160500527Y-47794900D01*
X160610074Y-47958849D01*
X160685532Y-48141019D01*
X160724000Y-48334410D01*
X160724000Y-48531590D01*
X160685532Y-48724981D01*
X160610074Y-48907151D01*
X160500527Y-49071100D01*
X160361100Y-49210527D01*
X160197151Y-49320074D01*
X160014981Y-49395532D01*
X159918285Y-49414766D01*
X159821591Y-49434000D01*
X159624409Y-49434000D01*
X159431019Y-49395532D01*
X159248849Y-49320074D01*
X159084900Y-49210527D01*
X158945473Y-49071100D01*
X158835926Y-48907151D01*
X158760468Y-48724981D01*
X158722000Y-48531590D01*
X158722000Y-48334410D01*
X158760468Y-48141019D01*
X158835926Y-47958849D01*
X158945473Y-47794900D01*
X159084900Y-47655473D01*
X159248849Y-47545926D01*
X159431019Y-47470468D01*
X159527715Y-47451234D01*
X159624409Y-47432000D01*
X159821591Y-47432000D01*
X159918285Y-47451234D01*
G37*
G36*
X199996981Y-47304468D02*
G01*
X200179151Y-47379926D01*
X200343100Y-47489473D01*
X200482527Y-47628900D01*
X200592074Y-47792849D01*
X200667532Y-47975019D01*
X200706000Y-48168410D01*
X200706000Y-48365590D01*
X200667532Y-48558981D01*
X200592074Y-48741151D01*
X200482527Y-48905100D01*
X200343100Y-49044527D01*
X200179151Y-49154074D01*
X199996981Y-49229532D01*
X199803591Y-49268000D01*
X199606409Y-49268000D01*
X199413019Y-49229532D01*
X199230849Y-49154074D01*
X199066900Y-49044527D01*
X198927473Y-48905100D01*
X198817926Y-48741151D01*
X198742468Y-48558981D01*
X198704000Y-48365590D01*
X198704000Y-48168410D01*
X198742468Y-47975019D01*
X198817926Y-47792849D01*
X198927473Y-47628900D01*
X199066900Y-47489473D01*
X199230849Y-47379926D01*
X199413019Y-47304468D01*
X199606409Y-47266000D01*
X199803591Y-47266000D01*
X199996981Y-47304468D01*
G37*
G36*
X194916981Y-47304468D02*
G01*
X195099151Y-47379926D01*
X195263100Y-47489473D01*
X195402527Y-47628900D01*
X195512074Y-47792849D01*
X195587532Y-47975019D01*
X195626000Y-48168410D01*
X195626000Y-48365590D01*
X195587532Y-48558981D01*
X195512074Y-48741151D01*
X195402527Y-48905100D01*
X195263100Y-49044527D01*
X195099151Y-49154074D01*
X194916981Y-49229532D01*
X194723591Y-49268000D01*
X194526409Y-49268000D01*
X194333019Y-49229532D01*
X194150849Y-49154074D01*
X193986900Y-49044527D01*
X193847473Y-48905100D01*
X193737926Y-48741151D01*
X193662468Y-48558981D01*
X193624000Y-48365590D01*
X193624000Y-48168410D01*
X193662468Y-47975019D01*
X193737926Y-47792849D01*
X193847473Y-47628900D01*
X193986900Y-47489473D01*
X194150849Y-47379926D01*
X194333019Y-47304468D01*
X194526409Y-47266000D01*
X194723591Y-47266000D01*
X194916981Y-47304468D01*
G37*
G36*
X197456981Y-47304468D02*
G01*
X197639151Y-47379926D01*
X197803100Y-47489473D01*
X197942527Y-47628900D01*
X198052074Y-47792849D01*
X198127532Y-47975019D01*
X198166000Y-48168410D01*
X198166000Y-48365590D01*
X198127532Y-48558981D01*
X198052074Y-48741151D01*
X197942527Y-48905100D01*
X197803100Y-49044527D01*
X197639151Y-49154074D01*
X197456981Y-49229532D01*
X197263591Y-49268000D01*
X197066409Y-49268000D01*
X196873019Y-49229532D01*
X196690849Y-49154074D01*
X196526900Y-49044527D01*
X196387473Y-48905100D01*
X196277926Y-48741151D01*
X196202468Y-48558981D01*
X196164000Y-48365590D01*
X196164000Y-48168410D01*
X196202468Y-47975019D01*
X196277926Y-47792849D01*
X196387473Y-47628900D01*
X196526900Y-47489473D01*
X196690849Y-47379926D01*
X196873019Y-47304468D01*
X197066409Y-47266000D01*
X197263591Y-47266000D01*
X197456981Y-47304468D01*
G37*
G36*
X202536981Y-47304468D02*
G01*
X202719151Y-47379926D01*
X202883100Y-47489473D01*
X203022527Y-47628900D01*
X203132074Y-47792849D01*
X203207532Y-47975019D01*
X203246000Y-48168410D01*
X203246000Y-48365590D01*
X203207532Y-48558981D01*
X203132074Y-48741151D01*
X203022527Y-48905100D01*
X202883100Y-49044527D01*
X202719151Y-49154074D01*
X202536981Y-49229532D01*
X202343591Y-49268000D01*
X202146409Y-49268000D01*
X201953019Y-49229532D01*
X201770849Y-49154074D01*
X201606900Y-49044527D01*
X201467473Y-48905100D01*
X201357926Y-48741151D01*
X201282468Y-48558981D01*
X201244000Y-48365590D01*
X201244000Y-48168410D01*
X201282468Y-47975019D01*
X201357926Y-47792849D01*
X201467473Y-47628900D01*
X201606900Y-47489473D01*
X201770849Y-47379926D01*
X201953019Y-47304468D01*
X202146409Y-47266000D01*
X202343591Y-47266000D01*
X202536981Y-47304468D01*
G37*
G36*
X181913512Y-45383927D02*
G01*
X182062812Y-45413624D01*
X182226784Y-45481544D01*
X182374354Y-45580147D01*
X182499853Y-45705646D01*
X182598456Y-45853216D01*
X182666376Y-46017188D01*
X182701000Y-46191259D01*
X182701000Y-46368741D01*
X182666376Y-46542812D01*
X182598456Y-46706784D01*
X182499853Y-46854354D01*
X182374354Y-46979853D01*
X182226784Y-47078456D01*
X182062812Y-47146376D01*
X181913512Y-47176073D01*
X181888742Y-47181000D01*
X181711258Y-47181000D01*
X181686488Y-47176073D01*
X181537188Y-47146376D01*
X181373216Y-47078456D01*
X181225646Y-46979853D01*
X181100147Y-46854354D01*
X181001544Y-46706784D01*
X180933624Y-46542812D01*
X180899000Y-46368741D01*
X180899000Y-46191259D01*
X180933624Y-46017188D01*
X181001544Y-45853216D01*
X181100147Y-45705646D01*
X181225646Y-45580147D01*
X181373216Y-45481544D01*
X181537188Y-45413624D01*
X181686488Y-45383927D01*
X181711258Y-45379000D01*
X181888742Y-45379000D01*
X181913512Y-45383927D01*
G37*
G36*
X158744981Y-44930468D02*
G01*
X158927151Y-45005926D01*
X159091100Y-45115473D01*
X159230527Y-45254900D01*
X159340074Y-45418849D01*
X159415532Y-45601019D01*
X159454000Y-45794410D01*
X159454000Y-45991590D01*
X159415532Y-46184981D01*
X159340074Y-46367151D01*
X159230527Y-46531100D01*
X159091100Y-46670527D01*
X158927151Y-46780074D01*
X158744981Y-46855532D01*
X158648285Y-46874766D01*
X158551591Y-46894000D01*
X158354409Y-46894000D01*
X158257715Y-46874766D01*
X158161019Y-46855532D01*
X157978849Y-46780074D01*
X157814900Y-46670527D01*
X157675473Y-46531100D01*
X157565926Y-46367151D01*
X157490468Y-46184981D01*
X157452000Y-45991590D01*
X157452000Y-45794410D01*
X157490468Y-45601019D01*
X157565926Y-45418849D01*
X157675473Y-45254900D01*
X157814900Y-45115473D01*
X157978849Y-45005926D01*
X158161019Y-44930468D01*
X158354409Y-44892000D01*
X158551591Y-44892000D01*
X158744981Y-44930468D01*
G37*
G36*
X151834000Y-46894000D02*
G01*
X149832000Y-46894000D01*
X149832000Y-44892000D01*
X151834000Y-44892000D01*
X151834000Y-46894000D01*
G37*
G36*
X153664981Y-44930468D02*
G01*
X153847151Y-45005926D01*
X154011100Y-45115473D01*
X154150527Y-45254900D01*
X154260074Y-45418849D01*
X154335532Y-45601019D01*
X154374000Y-45794410D01*
X154374000Y-45991590D01*
X154335532Y-46184981D01*
X154260074Y-46367151D01*
X154150527Y-46531100D01*
X154011100Y-46670527D01*
X153847151Y-46780074D01*
X153664981Y-46855532D01*
X153568285Y-46874766D01*
X153471591Y-46894000D01*
X153274409Y-46894000D01*
X153177715Y-46874766D01*
X153081019Y-46855532D01*
X152898849Y-46780074D01*
X152734900Y-46670527D01*
X152595473Y-46531100D01*
X152485926Y-46367151D01*
X152410468Y-46184981D01*
X152372000Y-45991590D01*
X152372000Y-45794410D01*
X152410468Y-45601019D01*
X152485926Y-45418849D01*
X152595473Y-45254900D01*
X152734900Y-45115473D01*
X152898849Y-45005926D01*
X153081019Y-44930468D01*
X153274409Y-44892000D01*
X153471591Y-44892000D01*
X153664981Y-44930468D01*
G37*
G36*
X156204981Y-44930468D02*
G01*
X156387151Y-45005926D01*
X156551100Y-45115473D01*
X156690527Y-45254900D01*
X156800074Y-45418849D01*
X156875532Y-45601019D01*
X156914000Y-45794410D01*
X156914000Y-45991590D01*
X156875532Y-46184981D01*
X156800074Y-46367151D01*
X156690527Y-46531100D01*
X156551100Y-46670527D01*
X156387151Y-46780074D01*
X156204981Y-46855532D01*
X156108285Y-46874766D01*
X156011591Y-46894000D01*
X155814409Y-46894000D01*
X155717715Y-46874766D01*
X155621019Y-46855532D01*
X155438849Y-46780074D01*
X155274900Y-46670527D01*
X155135473Y-46531100D01*
X155025926Y-46367151D01*
X154950468Y-46184981D01*
X154912000Y-45991590D01*
X154912000Y-45794410D01*
X154950468Y-45601019D01*
X155025926Y-45418849D01*
X155135473Y-45254900D01*
X155274900Y-45115473D01*
X155438849Y-45005926D01*
X155621019Y-44930468D01*
X155814409Y-44892000D01*
X156011591Y-44892000D01*
X156204981Y-44930468D01*
G37*
G36*
X201170285Y-44745234D02*
G01*
X201266981Y-44764468D01*
X201449151Y-44839926D01*
X201613100Y-44949473D01*
X201752527Y-45088900D01*
X201862074Y-45252849D01*
X201928670Y-45413624D01*
X201937532Y-45435020D01*
X201976000Y-45628409D01*
X201976000Y-45825591D01*
X201959462Y-45908733D01*
X201937889Y-46017188D01*
X201937532Y-46018980D01*
X201866172Y-46191259D01*
X201862074Y-46201151D01*
X201752527Y-46365100D01*
X201613100Y-46504527D01*
X201449151Y-46614074D01*
X201266981Y-46689532D01*
X201180260Y-46706782D01*
X201073591Y-46728000D01*
X200876409Y-46728000D01*
X200769740Y-46706782D01*
X200683019Y-46689532D01*
X200500849Y-46614074D01*
X200336900Y-46504527D01*
X200197473Y-46365100D01*
X200087926Y-46201151D01*
X200083829Y-46191259D01*
X200012468Y-46018980D01*
X200012112Y-46017188D01*
X199990538Y-45908733D01*
X199974000Y-45825591D01*
X199974000Y-45628409D01*
X200012468Y-45435020D01*
X200021331Y-45413624D01*
X200087926Y-45252849D01*
X200197473Y-45088900D01*
X200336900Y-44949473D01*
X200500849Y-44839926D01*
X200683019Y-44764468D01*
X200779715Y-44745234D01*
X200876409Y-44726000D01*
X201073591Y-44726000D01*
X201170285Y-44745234D01*
G37*
G36*
X194356000Y-46728000D02*
G01*
X192354000Y-46728000D01*
X192354000Y-44726000D01*
X194356000Y-44726000D01*
X194356000Y-46728000D01*
G37*
G36*
X198630285Y-44745234D02*
G01*
X198726981Y-44764468D01*
X198909151Y-44839926D01*
X199073100Y-44949473D01*
X199212527Y-45088900D01*
X199322074Y-45252849D01*
X199388670Y-45413624D01*
X199397532Y-45435020D01*
X199436000Y-45628409D01*
X199436000Y-45825591D01*
X199419462Y-45908733D01*
X199397889Y-46017188D01*
X199397532Y-46018980D01*
X199326172Y-46191259D01*
X199322074Y-46201151D01*
X199212527Y-46365100D01*
X199073100Y-46504527D01*
X198909151Y-46614074D01*
X198726981Y-46689532D01*
X198640260Y-46706782D01*
X198533591Y-46728000D01*
X198336409Y-46728000D01*
X198229740Y-46706782D01*
X198143019Y-46689532D01*
X197960849Y-46614074D01*
X197796900Y-46504527D01*
X197657473Y-46365100D01*
X197547926Y-46201151D01*
X197543829Y-46191259D01*
X197472468Y-46018980D01*
X197472112Y-46017188D01*
X197450538Y-45908733D01*
X197434000Y-45825591D01*
X197434000Y-45628409D01*
X197472468Y-45435020D01*
X197481331Y-45413624D01*
X197547926Y-45252849D01*
X197657473Y-45088900D01*
X197796900Y-44949473D01*
X197960849Y-44839926D01*
X198143019Y-44764468D01*
X198239715Y-44745234D01*
X198336409Y-44726000D01*
X198533591Y-44726000D01*
X198630285Y-44745234D01*
G37*
G36*
X196090285Y-44745234D02*
G01*
X196186981Y-44764468D01*
X196369151Y-44839926D01*
X196533100Y-44949473D01*
X196672527Y-45088900D01*
X196782074Y-45252849D01*
X196848670Y-45413624D01*
X196857532Y-45435020D01*
X196896000Y-45628409D01*
X196896000Y-45825591D01*
X196879462Y-45908733D01*
X196857889Y-46017188D01*
X196857532Y-46018980D01*
X196786172Y-46191259D01*
X196782074Y-46201151D01*
X196672527Y-46365100D01*
X196533100Y-46504527D01*
X196369151Y-46614074D01*
X196186981Y-46689532D01*
X196100260Y-46706782D01*
X195993591Y-46728000D01*
X195796409Y-46728000D01*
X195689740Y-46706782D01*
X195603019Y-46689532D01*
X195420849Y-46614074D01*
X195256900Y-46504527D01*
X195117473Y-46365100D01*
X195007926Y-46201151D01*
X195003829Y-46191259D01*
X194932468Y-46018980D01*
X194932112Y-46017188D01*
X194910538Y-45908733D01*
X194894000Y-45825591D01*
X194894000Y-45628409D01*
X194932468Y-45435020D01*
X194941331Y-45413624D01*
X195007926Y-45252849D01*
X195117473Y-45088900D01*
X195256900Y-44949473D01*
X195420849Y-44839926D01*
X195603019Y-44764468D01*
X195699715Y-44745234D01*
X195796409Y-44726000D01*
X195993591Y-44726000D01*
X196090285Y-44745234D01*
G37*
G36*
X181913512Y-42843927D02*
G01*
X182062812Y-42873624D01*
X182226784Y-42941544D01*
X182374354Y-43040147D01*
X182499853Y-43165646D01*
X182598456Y-43313216D01*
X182666376Y-43477188D01*
X182701000Y-43651259D01*
X182701000Y-43828741D01*
X182666376Y-44002812D01*
X182598456Y-44166784D01*
X182499853Y-44314354D01*
X182374354Y-44439853D01*
X182226784Y-44538456D01*
X182062812Y-44606376D01*
X181913512Y-44636073D01*
X181888742Y-44641000D01*
X181711258Y-44641000D01*
X181686488Y-44636073D01*
X181537188Y-44606376D01*
X181373216Y-44538456D01*
X181225646Y-44439853D01*
X181100147Y-44314354D01*
X181001544Y-44166784D01*
X180933624Y-44002812D01*
X180899000Y-43828741D01*
X180899000Y-43651259D01*
X180933624Y-43477188D01*
X181001544Y-43313216D01*
X181100147Y-43165646D01*
X181225646Y-43040147D01*
X181373216Y-42941544D01*
X181537188Y-42873624D01*
X181686488Y-42843927D01*
X181711258Y-42839000D01*
X181888742Y-42839000D01*
X181913512Y-42843927D01*
G37*
G36*
X147897072Y-41303918D02*
G01*
X148099124Y-41387610D01*
X148142939Y-41405759D01*
X148174062Y-41426555D01*
X148364211Y-41553609D01*
X148552391Y-41741789D01*
X148700242Y-41963063D01*
X148802082Y-42208928D01*
X148854000Y-42469937D01*
X148854000Y-42736063D01*
X148802082Y-42997072D01*
X148700242Y-43242937D01*
X148562555Y-43449000D01*
X148552390Y-43464212D01*
X148364212Y-43652390D01*
X148142939Y-43800241D01*
X148142938Y-43800242D01*
X148142937Y-43800242D01*
X147897072Y-43902082D01*
X147636063Y-43954000D01*
X147369937Y-43954000D01*
X147108928Y-43902082D01*
X146863063Y-43800242D01*
X146863062Y-43800242D01*
X146863061Y-43800241D01*
X146641788Y-43652390D01*
X146453610Y-43464212D01*
X146443446Y-43449000D01*
X146305758Y-43242937D01*
X146203918Y-42997072D01*
X146152000Y-42736063D01*
X146152000Y-42469937D01*
X146203918Y-42208928D01*
X146305758Y-41963063D01*
X146453609Y-41741789D01*
X146641789Y-41553609D01*
X146831938Y-41426555D01*
X146863061Y-41405759D01*
X146906877Y-41387610D01*
X147108928Y-41303918D01*
X147369937Y-41252000D01*
X147636063Y-41252000D01*
X147897072Y-41303918D01*
G37*
G36*
X163447072Y-41303918D02*
G01*
X163649124Y-41387610D01*
X163692939Y-41405759D01*
X163724062Y-41426555D01*
X163914211Y-41553609D01*
X164102391Y-41741789D01*
X164250242Y-41963063D01*
X164352082Y-42208928D01*
X164404000Y-42469937D01*
X164404000Y-42736063D01*
X164352082Y-42997072D01*
X164250242Y-43242937D01*
X164112555Y-43449000D01*
X164102390Y-43464212D01*
X163914212Y-43652390D01*
X163692939Y-43800241D01*
X163692938Y-43800242D01*
X163692937Y-43800242D01*
X163447072Y-43902082D01*
X163186063Y-43954000D01*
X162919937Y-43954000D01*
X162658928Y-43902082D01*
X162413063Y-43800242D01*
X162413062Y-43800242D01*
X162413061Y-43800241D01*
X162191788Y-43652390D01*
X162003610Y-43464212D01*
X161993446Y-43449000D01*
X161855758Y-43242937D01*
X161753918Y-42997072D01*
X161702000Y-42736063D01*
X161702000Y-42469937D01*
X161753918Y-42208928D01*
X161855758Y-41963063D01*
X162003609Y-41741789D01*
X162191789Y-41553609D01*
X162381938Y-41426555D01*
X162413061Y-41405759D01*
X162456877Y-41387610D01*
X162658928Y-41303918D01*
X162919937Y-41252000D01*
X163186063Y-41252000D01*
X163447072Y-41303918D01*
G37*
G36*
X205969072Y-41137918D02*
G01*
X206188965Y-41229000D01*
X206214939Y-41239759D01*
X206310959Y-41303918D01*
X206436211Y-41387609D01*
X206624391Y-41575789D01*
X206687054Y-41669571D01*
X206761523Y-41781020D01*
X206772242Y-41797063D01*
X206874082Y-42042928D01*
X206920114Y-42274344D01*
X206926000Y-42303938D01*
X206926000Y-42570062D01*
X206874082Y-42831072D01*
X206772241Y-43076939D01*
X206624390Y-43298212D01*
X206436212Y-43486390D01*
X206214939Y-43634241D01*
X206214938Y-43634242D01*
X206214937Y-43634242D01*
X205969072Y-43736082D01*
X205708063Y-43788000D01*
X205441937Y-43788000D01*
X205180928Y-43736082D01*
X204935063Y-43634242D01*
X204935062Y-43634242D01*
X204935061Y-43634241D01*
X204713788Y-43486390D01*
X204525610Y-43298212D01*
X204377759Y-43076939D01*
X204275918Y-42831072D01*
X204224000Y-42570062D01*
X204224000Y-42303938D01*
X204229887Y-42274344D01*
X204275918Y-42042928D01*
X204377758Y-41797063D01*
X204388478Y-41781020D01*
X204462946Y-41669571D01*
X204525609Y-41575789D01*
X204713789Y-41387609D01*
X204839041Y-41303918D01*
X204935061Y-41239759D01*
X204961036Y-41229000D01*
X205180928Y-41137918D01*
X205441937Y-41086000D01*
X205708063Y-41086000D01*
X205969072Y-41137918D01*
G37*
G36*
X190419072Y-41137918D02*
G01*
X190638965Y-41229000D01*
X190664939Y-41239759D01*
X190760959Y-41303918D01*
X190886211Y-41387609D01*
X191074391Y-41575789D01*
X191137054Y-41669571D01*
X191211523Y-41781020D01*
X191222242Y-41797063D01*
X191324082Y-42042928D01*
X191370114Y-42274344D01*
X191376000Y-42303938D01*
X191376000Y-42570062D01*
X191324082Y-42831072D01*
X191222241Y-43076939D01*
X191074390Y-43298212D01*
X190886212Y-43486390D01*
X190664939Y-43634241D01*
X190664938Y-43634242D01*
X190664937Y-43634242D01*
X190419072Y-43736082D01*
X190158063Y-43788000D01*
X189891937Y-43788000D01*
X189630928Y-43736082D01*
X189385063Y-43634242D01*
X189385062Y-43634242D01*
X189385061Y-43634241D01*
X189163788Y-43486390D01*
X188975610Y-43298212D01*
X188827759Y-43076939D01*
X188725918Y-42831072D01*
X188674000Y-42570062D01*
X188674000Y-42303938D01*
X188679887Y-42274344D01*
X188725918Y-42042928D01*
X188827758Y-41797063D01*
X188838478Y-41781020D01*
X188912946Y-41669571D01*
X188975609Y-41575789D01*
X189163789Y-41387609D01*
X189289041Y-41303918D01*
X189385061Y-41239759D01*
X189411036Y-41229000D01*
X189630928Y-41137918D01*
X189891937Y-41086000D01*
X190158063Y-41086000D01*
X190419072Y-41137918D01*
G37*
G36*
X99548156Y-34672794D02*
G01*
X100269140Y-34816206D01*
X101060972Y-35144193D01*
X101773601Y-35620357D01*
X102379643Y-36226399D01*
X102855807Y-36939028D01*
X103183794Y-37730860D01*
X103300705Y-38318613D01*
X103339989Y-38516105D01*
X103351000Y-38571464D01*
X103351000Y-39428536D01*
X103183794Y-40269140D01*
X102855807Y-41060972D01*
X102379643Y-41773601D01*
X101773601Y-42379643D01*
X101060972Y-42855807D01*
X100269140Y-43183794D01*
X99548156Y-43327206D01*
X99428537Y-43351000D01*
X98571463Y-43351000D01*
X98451844Y-43327206D01*
X97730860Y-43183794D01*
X96939028Y-42855807D01*
X96226399Y-42379643D01*
X95620357Y-41773601D01*
X95144193Y-41060972D01*
X94816206Y-40269140D01*
X94649000Y-39428536D01*
X94649000Y-38571464D01*
X94660012Y-38516105D01*
X94699295Y-38318613D01*
X94816206Y-37730860D01*
X95144193Y-36939028D01*
X95620357Y-36226399D01*
X96226399Y-35620357D01*
X96939028Y-35144193D01*
X97730860Y-34816206D01*
X98451844Y-34672794D01*
X98571463Y-34649000D01*
X99428537Y-34649000D01*
X99548156Y-34672794D01*
G37*
G36*
X182701000Y-42101000D02*
G01*
X180899000Y-42101000D01*
X180899000Y-40299000D01*
X182701000Y-40299000D01*
X182701000Y-42101000D01*
G37*
G36*
X149852488Y-37901748D02*
G01*
X150051871Y-37941408D01*
X150356883Y-38067748D01*
X150631387Y-38251166D01*
X150864834Y-38484613D01*
X151048252Y-38759117D01*
X151174592Y-39064129D01*
X151239000Y-39387928D01*
X151239000Y-39718072D01*
X151174592Y-40041871D01*
X151048252Y-40346883D01*
X150864834Y-40621387D01*
X150631387Y-40854834D01*
X150356883Y-41038252D01*
X150051871Y-41164592D01*
X149889971Y-41196796D01*
X149728073Y-41229000D01*
X149397927Y-41229000D01*
X149236029Y-41196796D01*
X149074129Y-41164592D01*
X148769117Y-41038252D01*
X148494613Y-40854834D01*
X148261166Y-40621387D01*
X148077748Y-40346883D01*
X147951408Y-40041871D01*
X147887000Y-39718072D01*
X147887000Y-39387928D01*
X147951408Y-39064129D01*
X148077748Y-38759117D01*
X148261166Y-38484613D01*
X148494613Y-38251166D01*
X148769117Y-38067748D01*
X149074129Y-37941408D01*
X149273512Y-37901748D01*
X149397927Y-37877000D01*
X149728073Y-37877000D01*
X149852488Y-37901748D01*
G37*
G36*
X161282488Y-37901748D02*
G01*
X161481871Y-37941408D01*
X161786883Y-38067748D01*
X162061387Y-38251166D01*
X162294834Y-38484613D01*
X162478252Y-38759117D01*
X162604592Y-39064129D01*
X162669000Y-39387928D01*
X162669000Y-39718072D01*
X162604592Y-40041871D01*
X162478252Y-40346883D01*
X162294834Y-40621387D01*
X162061387Y-40854834D01*
X161786883Y-41038252D01*
X161481871Y-41164592D01*
X161319971Y-41196796D01*
X161158073Y-41229000D01*
X160827927Y-41229000D01*
X160666029Y-41196796D01*
X160504129Y-41164592D01*
X160199117Y-41038252D01*
X159924613Y-40854834D01*
X159691166Y-40621387D01*
X159507748Y-40346883D01*
X159381408Y-40041871D01*
X159317000Y-39718072D01*
X159317000Y-39387928D01*
X159381408Y-39064129D01*
X159507748Y-38759117D01*
X159691166Y-38484613D01*
X159924613Y-38251166D01*
X160199117Y-38067748D01*
X160504129Y-37941408D01*
X160703512Y-37901748D01*
X160827927Y-37877000D01*
X161158073Y-37877000D01*
X161282488Y-37901748D01*
G37*
G36*
X204003871Y-37775408D02*
G01*
X204308883Y-37901748D01*
X204583387Y-38085166D01*
X204816834Y-38318613D01*
X205000252Y-38593117D01*
X205126592Y-38898129D01*
X205191000Y-39221928D01*
X205191000Y-39552072D01*
X205126592Y-39875871D01*
X205000252Y-40180883D01*
X204816834Y-40455387D01*
X204583387Y-40688834D01*
X204308883Y-40872252D01*
X204003871Y-40998592D01*
X203680073Y-41063000D01*
X203349927Y-41063000D01*
X203026129Y-40998592D01*
X202721117Y-40872252D01*
X202446613Y-40688834D01*
X202213166Y-40455387D01*
X202029748Y-40180883D01*
X201903408Y-39875871D01*
X201839000Y-39552072D01*
X201839000Y-39221928D01*
X201903408Y-38898129D01*
X202029748Y-38593117D01*
X202213166Y-38318613D01*
X202446613Y-38085166D01*
X202721117Y-37901748D01*
X203026129Y-37775408D01*
X203188029Y-37743204D01*
X203349927Y-37711000D01*
X203680073Y-37711000D01*
X204003871Y-37775408D01*
G37*
G36*
X192573871Y-37775408D02*
G01*
X192878883Y-37901748D01*
X193153387Y-38085166D01*
X193386834Y-38318613D01*
X193570252Y-38593117D01*
X193696592Y-38898129D01*
X193761000Y-39221928D01*
X193761000Y-39552072D01*
X193696592Y-39875871D01*
X193570252Y-40180883D01*
X193386834Y-40455387D01*
X193153387Y-40688834D01*
X192878883Y-40872252D01*
X192573871Y-40998592D01*
X192250073Y-41063000D01*
X191919927Y-41063000D01*
X191596129Y-40998592D01*
X191291117Y-40872252D01*
X191016613Y-40688834D01*
X190783166Y-40455387D01*
X190599748Y-40180883D01*
X190473408Y-39875871D01*
X190409000Y-39552072D01*
X190409000Y-39221928D01*
X190473408Y-38898129D01*
X190599748Y-38593117D01*
X190783166Y-38318613D01*
X191016613Y-38085166D01*
X191291117Y-37901748D01*
X191596129Y-37775408D01*
X191758029Y-37743204D01*
X191919927Y-37711000D01*
X192250073Y-37711000D01*
X192573871Y-37775408D01*
G37*
G36*
X176722818Y-37292696D02*
G01*
X176836105Y-37327062D01*
X176940512Y-37382869D01*
X177032027Y-37457973D01*
X177107131Y-37549488D01*
X177162938Y-37653895D01*
X177197304Y-37767182D01*
X177206000Y-37855482D01*
X177206000Y-38314519D01*
X177197304Y-38402818D01*
X177162938Y-38516105D01*
X177107131Y-38620512D01*
X177107130Y-38620513D01*
X177032027Y-38712027D01*
X176974645Y-38759118D01*
X176940511Y-38787131D01*
X176836104Y-38842938D01*
X176722817Y-38877304D01*
X176605000Y-38888907D01*
X176487182Y-38877304D01*
X176373895Y-38842938D01*
X176269488Y-38787131D01*
X176235353Y-38759117D01*
X176177973Y-38712027D01*
X176102870Y-38620512D01*
X176102869Y-38620511D01*
X176047062Y-38516104D01*
X176012696Y-38402817D01*
X176004000Y-38314518D01*
X176004000Y-37855481D01*
X176012696Y-37767182D01*
X176047062Y-37653895D01*
X176102869Y-37549488D01*
X176177974Y-37457973D01*
X176269489Y-37382869D01*
X176373896Y-37327062D01*
X176487183Y-37292696D01*
X176605000Y-37281093D01*
X176722818Y-37292696D01*
G37*
G36*
X181562818Y-37292696D02*
G01*
X181676105Y-37327062D01*
X181780512Y-37382869D01*
X181872027Y-37457973D01*
X181947131Y-37549488D01*
X182002938Y-37653895D01*
X182037304Y-37767182D01*
X182046000Y-37855482D01*
X182046000Y-38314519D01*
X182037304Y-38402818D01*
X182002938Y-38516105D01*
X181947131Y-38620512D01*
X181947130Y-38620513D01*
X181872027Y-38712027D01*
X181814645Y-38759118D01*
X181780511Y-38787131D01*
X181676104Y-38842938D01*
X181562817Y-38877304D01*
X181445000Y-38888907D01*
X181327182Y-38877304D01*
X181213895Y-38842938D01*
X181109488Y-38787131D01*
X181075353Y-38759117D01*
X181017973Y-38712027D01*
X180942870Y-38620512D01*
X180942869Y-38620511D01*
X180887062Y-38516104D01*
X180852696Y-38402817D01*
X180844000Y-38314518D01*
X180844000Y-37855481D01*
X180852696Y-37767182D01*
X180887062Y-37653895D01*
X180942869Y-37549488D01*
X181017974Y-37457973D01*
X181109489Y-37382869D01*
X181213896Y-37327062D01*
X181327183Y-37292696D01*
X181445000Y-37281093D01*
X181562818Y-37292696D01*
G37*
G36*
X151783521Y-35215275D02*
G01*
X151874153Y-35252816D01*
X151964783Y-35290356D01*
X152127913Y-35399356D01*
X152266644Y-35538087D01*
X152375644Y-35701217D01*
X152406554Y-35775842D01*
X152450725Y-35882479D01*
X152489000Y-36074901D01*
X152489000Y-36271099D01*
X152450725Y-36463521D01*
X152442959Y-36482269D01*
X152375644Y-36644783D01*
X152266644Y-36807913D01*
X152127913Y-36946644D01*
X151964783Y-37055644D01*
X151874153Y-37093184D01*
X151783521Y-37130725D01*
X151591099Y-37169000D01*
X151394901Y-37169000D01*
X151202479Y-37130725D01*
X151111848Y-37093184D01*
X151021217Y-37055644D01*
X150858087Y-36946644D01*
X150719356Y-36807913D01*
X150610356Y-36644783D01*
X150543041Y-36482269D01*
X150535275Y-36463521D01*
X150497000Y-36271099D01*
X150497000Y-36074901D01*
X150535275Y-35882479D01*
X150579446Y-35775842D01*
X150610356Y-35701217D01*
X150719356Y-35538087D01*
X150858087Y-35399356D01*
X151021217Y-35290356D01*
X151111848Y-35252816D01*
X151202479Y-35215275D01*
X151394901Y-35177000D01*
X151591099Y-35177000D01*
X151783521Y-35215275D01*
G37*
G36*
X161893521Y-35215275D02*
G01*
X161984153Y-35252816D01*
X162074783Y-35290356D01*
X162237913Y-35399356D01*
X162376644Y-35538087D01*
X162485644Y-35701217D01*
X162516554Y-35775842D01*
X162560725Y-35882479D01*
X162599000Y-36074901D01*
X162599000Y-36271099D01*
X162560725Y-36463521D01*
X162552959Y-36482269D01*
X162485644Y-36644783D01*
X162376644Y-36807913D01*
X162237913Y-36946644D01*
X162074783Y-37055644D01*
X161984153Y-37093184D01*
X161893521Y-37130725D01*
X161701099Y-37169000D01*
X161504901Y-37169000D01*
X161312479Y-37130725D01*
X161221848Y-37093184D01*
X161131217Y-37055644D01*
X160968087Y-36946644D01*
X160829356Y-36807913D01*
X160720356Y-36644783D01*
X160653041Y-36482269D01*
X160645275Y-36463521D01*
X160607000Y-36271099D01*
X160607000Y-36074901D01*
X160645275Y-35882479D01*
X160689446Y-35775842D01*
X160720356Y-35701217D01*
X160829356Y-35538087D01*
X160968087Y-35399356D01*
X161131217Y-35290356D01*
X161221848Y-35252816D01*
X161312479Y-35215275D01*
X161504901Y-35177000D01*
X161701099Y-35177000D01*
X161893521Y-35215275D01*
G37*
G36*
X204415521Y-35049275D02*
G01*
X204506153Y-35086816D01*
X204596783Y-35124356D01*
X204759913Y-35233356D01*
X204898644Y-35372087D01*
X205007644Y-35535217D01*
X205009283Y-35539175D01*
X205082725Y-35716479D01*
X205121000Y-35908901D01*
X205121000Y-36105099D01*
X205082725Y-36297521D01*
X205069094Y-36330429D01*
X205007644Y-36478783D01*
X204898644Y-36641913D01*
X204759913Y-36780644D01*
X204596783Y-36889644D01*
X204506153Y-36927184D01*
X204415521Y-36964725D01*
X204223099Y-37003000D01*
X204026901Y-37003000D01*
X203834479Y-36964725D01*
X203743847Y-36927184D01*
X203653217Y-36889644D01*
X203490087Y-36780644D01*
X203351356Y-36641913D01*
X203242356Y-36478783D01*
X203180906Y-36330429D01*
X203167275Y-36297521D01*
X203129000Y-36105099D01*
X203129000Y-35908901D01*
X203167275Y-35716479D01*
X203240717Y-35539175D01*
X203242356Y-35535217D01*
X203351356Y-35372087D01*
X203490087Y-35233356D01*
X203653217Y-35124356D01*
X203743847Y-35086816D01*
X203834479Y-35049275D01*
X204026901Y-35011000D01*
X204223099Y-35011000D01*
X204415521Y-35049275D01*
G37*
G36*
X194305521Y-35049275D02*
G01*
X194396153Y-35086816D01*
X194486783Y-35124356D01*
X194649913Y-35233356D01*
X194788644Y-35372087D01*
X194897644Y-35535217D01*
X194899283Y-35539175D01*
X194972725Y-35716479D01*
X195011000Y-35908901D01*
X195011000Y-36105099D01*
X194972725Y-36297521D01*
X194959094Y-36330429D01*
X194897644Y-36478783D01*
X194788644Y-36641913D01*
X194649913Y-36780644D01*
X194486783Y-36889644D01*
X194396153Y-36927184D01*
X194305521Y-36964725D01*
X194113099Y-37003000D01*
X193916901Y-37003000D01*
X193724479Y-36964725D01*
X193633847Y-36927184D01*
X193543217Y-36889644D01*
X193380087Y-36780644D01*
X193241356Y-36641913D01*
X193132356Y-36478783D01*
X193070906Y-36330429D01*
X193057275Y-36297521D01*
X193019000Y-36105099D01*
X193019000Y-35908901D01*
X193057275Y-35716479D01*
X193130717Y-35539175D01*
X193132356Y-35535217D01*
X193241356Y-35372087D01*
X193380087Y-35233356D01*
X193543217Y-35124356D01*
X193633847Y-35086816D01*
X193724479Y-35049275D01*
X193916901Y-35011000D01*
X194113099Y-35011000D01*
X194305521Y-35049275D01*
G37*
G36*
X176437321Y-34194505D02*
G01*
X176574172Y-34236019D01*
X176574175Y-34236020D01*
X176700294Y-34303432D01*
X176810843Y-34394157D01*
X176901568Y-34504706D01*
X176968980Y-34630824D01*
X176979783Y-34666436D01*
X177010495Y-34767680D01*
X177021000Y-34874342D01*
X177021000Y-35295659D01*
X177010495Y-35402321D01*
X176970051Y-35535644D01*
X176968980Y-35539175D01*
X176901568Y-35665294D01*
X176810843Y-35775842D01*
X176700293Y-35866568D01*
X176574174Y-35933980D01*
X176574171Y-35933981D01*
X176437320Y-35975495D01*
X176295000Y-35989512D01*
X176152679Y-35975495D01*
X176015828Y-35933981D01*
X176015825Y-35933980D01*
X175889706Y-35866568D01*
X175779158Y-35775843D01*
X175688432Y-35665293D01*
X175621020Y-35539174D01*
X175619819Y-35535216D01*
X175579505Y-35402320D01*
X175569000Y-35295658D01*
X175569000Y-34874341D01*
X175579505Y-34767679D01*
X175621019Y-34630828D01*
X175621020Y-34630825D01*
X175688432Y-34504706D01*
X175779158Y-34394157D01*
X175889707Y-34303432D01*
X176015826Y-34236020D01*
X176015829Y-34236019D01*
X176152680Y-34194505D01*
X176295000Y-34180488D01*
X176437321Y-34194505D01*
G37*
G36*
X181897321Y-34194505D02*
G01*
X182034172Y-34236019D01*
X182034175Y-34236020D01*
X182160294Y-34303432D01*
X182270843Y-34394157D01*
X182361568Y-34504706D01*
X182428980Y-34630824D01*
X182439783Y-34666436D01*
X182470495Y-34767680D01*
X182481000Y-34874342D01*
X182481000Y-35295659D01*
X182470495Y-35402321D01*
X182430051Y-35535644D01*
X182428980Y-35539175D01*
X182361568Y-35665294D01*
X182270843Y-35775842D01*
X182160293Y-35866568D01*
X182034174Y-35933980D01*
X182034171Y-35933981D01*
X181897320Y-35975495D01*
X181755000Y-35989512D01*
X181612679Y-35975495D01*
X181475828Y-35933981D01*
X181475825Y-35933980D01*
X181349706Y-35866568D01*
X181239158Y-35775843D01*
X181148432Y-35665293D01*
X181081020Y-35539174D01*
X181079819Y-35535216D01*
X181039505Y-35402320D01*
X181029000Y-35295658D01*
X181029000Y-34874341D01*
X181039505Y-34767679D01*
X181081019Y-34630828D01*
X181081020Y-34630825D01*
X181148432Y-34504706D01*
X181239158Y-34394157D01*
X181349707Y-34303432D01*
X181475826Y-34236020D01*
X181475829Y-34236019D01*
X181612680Y-34194505D01*
X181755000Y-34180488D01*
X181897321Y-34194505D01*
G37*
G36*
X149243521Y-33695275D02*
G01*
X149334153Y-33732816D01*
X149424783Y-33770356D01*
X149587913Y-33879356D01*
X149726644Y-34018087D01*
X149835644Y-34181217D01*
X149858344Y-34236020D01*
X149910725Y-34362479D01*
X149949000Y-34554901D01*
X149949000Y-34751099D01*
X149910725Y-34943521D01*
X149882774Y-35011000D01*
X149835644Y-35124783D01*
X149726644Y-35287913D01*
X149587913Y-35426644D01*
X149424783Y-35535644D01*
X149334152Y-35573184D01*
X149243521Y-35610725D01*
X149051099Y-35649000D01*
X148854901Y-35649000D01*
X148662479Y-35610725D01*
X148571848Y-35573184D01*
X148481217Y-35535644D01*
X148318087Y-35426644D01*
X148179356Y-35287913D01*
X148070356Y-35124783D01*
X148023226Y-35011000D01*
X147995275Y-34943521D01*
X147957000Y-34751099D01*
X147957000Y-34554901D01*
X147995275Y-34362479D01*
X148047656Y-34236020D01*
X148070356Y-34181217D01*
X148179356Y-34018087D01*
X148318087Y-33879356D01*
X148481217Y-33770356D01*
X148571847Y-33732816D01*
X148662479Y-33695275D01*
X148854901Y-33657000D01*
X149051099Y-33657000D01*
X149243521Y-33695275D01*
G37*
G36*
X159353521Y-33695275D02*
G01*
X159444153Y-33732816D01*
X159534783Y-33770356D01*
X159697913Y-33879356D01*
X159836644Y-34018087D01*
X159945644Y-34181217D01*
X159968344Y-34236020D01*
X160020725Y-34362479D01*
X160059000Y-34554901D01*
X160059000Y-34751099D01*
X160020725Y-34943521D01*
X159992774Y-35011000D01*
X159945644Y-35124783D01*
X159836644Y-35287913D01*
X159697913Y-35426644D01*
X159534783Y-35535644D01*
X159444152Y-35573184D01*
X159353521Y-35610725D01*
X159161099Y-35649000D01*
X158964901Y-35649000D01*
X158772479Y-35610725D01*
X158681848Y-35573184D01*
X158591217Y-35535644D01*
X158428087Y-35426644D01*
X158289356Y-35287913D01*
X158180356Y-35124783D01*
X158133226Y-35011000D01*
X158105275Y-34943521D01*
X158067000Y-34751099D01*
X158067000Y-34554901D01*
X158105275Y-34362479D01*
X158157656Y-34236020D01*
X158180356Y-34181217D01*
X158289356Y-34018087D01*
X158428087Y-33879356D01*
X158591217Y-33770356D01*
X158681847Y-33732816D01*
X158772479Y-33695275D01*
X158964901Y-33657000D01*
X159161099Y-33657000D01*
X159353521Y-33695275D01*
G37*
G36*
X201875521Y-33529275D02*
G01*
X201966153Y-33566816D01*
X202056783Y-33604356D01*
X202219913Y-33713356D01*
X202358644Y-33852087D01*
X202467644Y-34015217D01*
X202505184Y-34105847D01*
X202542725Y-34196479D01*
X202581000Y-34388901D01*
X202581000Y-34585099D01*
X202542725Y-34777521D01*
X202505184Y-34868152D01*
X202467644Y-34958783D01*
X202358644Y-35121913D01*
X202219913Y-35260644D01*
X202056783Y-35369644D01*
X201985056Y-35399354D01*
X201875521Y-35444725D01*
X201683099Y-35483000D01*
X201486901Y-35483000D01*
X201294479Y-35444725D01*
X201184944Y-35399354D01*
X201113217Y-35369644D01*
X200950087Y-35260644D01*
X200811356Y-35121913D01*
X200702356Y-34958783D01*
X200664816Y-34868152D01*
X200627275Y-34777521D01*
X200589000Y-34585099D01*
X200589000Y-34388901D01*
X200627275Y-34196479D01*
X200664816Y-34105847D01*
X200702356Y-34015217D01*
X200811356Y-33852087D01*
X200950087Y-33713356D01*
X201113217Y-33604356D01*
X201203847Y-33566816D01*
X201294479Y-33529275D01*
X201486901Y-33491000D01*
X201683099Y-33491000D01*
X201875521Y-33529275D01*
G37*
G36*
X191765521Y-33529275D02*
G01*
X191856153Y-33566816D01*
X191946783Y-33604356D01*
X192109913Y-33713356D01*
X192248644Y-33852087D01*
X192357644Y-34015217D01*
X192395184Y-34105847D01*
X192432725Y-34196479D01*
X192471000Y-34388901D01*
X192471000Y-34585099D01*
X192432725Y-34777521D01*
X192395184Y-34868152D01*
X192357644Y-34958783D01*
X192248644Y-35121913D01*
X192109913Y-35260644D01*
X191946783Y-35369644D01*
X191875056Y-35399354D01*
X191765521Y-35444725D01*
X191573099Y-35483000D01*
X191376901Y-35483000D01*
X191184479Y-35444725D01*
X191074944Y-35399354D01*
X191003217Y-35369644D01*
X190840087Y-35260644D01*
X190701356Y-35121913D01*
X190592356Y-34958783D01*
X190554816Y-34868152D01*
X190517275Y-34777521D01*
X190479000Y-34585099D01*
X190479000Y-34388901D01*
X190517275Y-34196479D01*
X190554816Y-34105847D01*
X190592356Y-34015217D01*
X190701356Y-33852087D01*
X190840087Y-33713356D01*
X191003217Y-33604356D01*
X191093847Y-33566816D01*
X191184479Y-33529275D01*
X191376901Y-33491000D01*
X191573099Y-33491000D01*
X191765521Y-33529275D01*
G37*
M02*
